<svg width="46" height="35" viewBox="0 0 46 35" fill="none" xmlns="http://www.w3.org/2000/svg">
<path fill-rule="evenodd" clip-rule="evenodd" d="M12.6639 33.9823L12.7087 33.827C12.2221 33.4809 12.2685 33.245 12.4047 32.773L13.517 28.9188C14.0841 26.9537 14.1757 25.508 8.7905 25.508C4.2938 25.508 2.284 26.5295 1.7807 28.2738H6.1228C6.4355 27.5667 7.3106 27.4723 7.941 27.4723C8.4192 27.4723 9.3964 27.5509 9.2241 28.148C8.7793 29.6896 1.1676 27.9909 0.0871988 31.7346C-0.407301 33.4484 1.2809 34.2181 3.43 34.2181C5.1238 34.2181 6.4996 33.9667 8.0305 33.1027L7.9938 33.9825L12.6639 33.9823ZM6.0074 32.3644C5.1161 32.3644 4.6544 32.0814 4.7723 31.6725C5.0809 30.6032 6.9647 30.8548 8.5927 30.3358C8.3745 31.4681 7.5943 32.3644 6.0074 32.3644ZM20.7888 25.7439C20.7987 25.4013 21.0217 25.0729 21.1782 24.8785C21.5582 24.4067 22.3025 24.3831 23.0826 24.3861L24.6327 24.3807L25.2105 22.3628H21.9392C19.0515 22.3628 17.3523 22.8341 16.5125 25.7439H14.992L14.448 27.629H15.9467L14.1133 33.9822H18.6285L20.462 27.629H23.308L23.852 25.7439H20.7888ZM22.5282 33.9823H27.0435L28.2548 29.7846C28.5591 28.73 29.1149 28.0851 30.5062 28.0851C31.7888 28.0851 31.8843 28.8088 31.6481 29.6267L30.3912 33.9823H34.9064L36.3313 29.0447C36.9845 26.7808 35.9409 25.508 32.9452 25.508C31.2266 25.508 29.9645 26.0428 28.6578 27.0335L29.0299 25.744H24.9056L22.5282 33.9823ZM40.8908 33.9823L43.2683 25.7439H38.7531L36.3756 33.9823H40.8908ZM39.0577 24.6882H43.5729L44.244 22.3628H39.7288L39.0577 24.6882ZM45.3934 33.5874C45.3934 33.1608 45.0475 32.8148 44.6207 32.8148C44.1941 32.8148 43.8481 33.1606 43.8481 33.5874C43.8481 34.014 44.194 34.36 44.6207 34.36C45.0475 34.3599 45.3934 34.014 45.3934 33.5874ZM45.2515 33.5874C45.2515 33.2391 44.9691 32.9567 44.6207 32.9567C44.2725 32.9567 43.99 33.239 43.99 33.5874C43.99 33.9357 44.2724 34.2181 44.6207 34.2181C44.9691 34.2181 45.2515 33.9357 45.2515 33.5874ZM44.5147 33.5195H44.5882C44.6073 33.5195 44.6264 33.5185 44.6454 33.5163C44.6575 33.5149 44.6695 33.5127 44.6814 33.5099C44.7171 33.5025 44.7477 33.4799 44.7655 33.4481C44.7873 33.4068 44.7912 33.3585 44.7764 33.3143C44.7668 33.2857 44.7453 33.2628 44.7175 33.2513C44.7015 33.2452 44.6849 33.2411 44.6678 33.239C44.6485 33.2365 44.6289 33.2352 44.6094 33.2352H44.5147V33.5195ZM44.3868 34.0105V33.1126H44.6098C44.6494 33.1124 44.689 33.1148 44.7282 33.12C44.7689 33.1251 44.807 33.1422 44.8378 33.169C44.8783 33.207 44.9041 33.258 44.9107 33.3131C44.9215 33.3795 44.9115 33.4477 44.8821 33.5082C44.8582 33.5563 44.8159 33.5929 44.7648 33.6095C44.7509 33.6144 44.7369 33.6188 44.7227 33.6227L45.0018 34.0106H44.845L44.5756 33.6331H44.5149V34.0106H44.3868V34.0105Z" fill="#7A8C9F"/>
<path fill-rule="evenodd" clip-rule="evenodd" d="M43.3136 16.4434C42.3573 16.6603 41.3699 16.8117 40.4039 16.9217C37.4789 17.2548 34.4404 17.2904 31.5287 17.081C30.3161 16.9907 29.2968 16.8482 28.1058 16.6028C31.4355 16.7897 34.0237 16.8223 37.2174 16.5999C38.8069 16.4923 40.1437 16.3184 41.7077 16.0158C42.1252 15.9319 42.4755 15.85 42.8869 15.7401C43.2783 15.6396 43.6271 15.5344 43.9806 15.409C44.0915 15.2208 44.1981 15.0303 44.3003 14.8379C43.2541 15.1354 42.1589 15.3501 41.0883 15.5127C38.1778 15.9543 35.1429 16.1029 32.2252 16.002C31.0101 15.9568 29.9862 15.8524 28.7869 15.6515C32.1212 15.7143 34.7088 15.6507 37.8921 15.3096C39.4764 15.143 40.8058 14.9195 42.3575 14.5589C42.7716 14.4594 43.1186 14.3646 43.5257 14.2395C43.9864 14.1028 44.3866 13.9617 44.8048 13.787C45.0794 13.149 45.3054 12.4925 45.4766 11.8225C46.9046 6.2375 44.0523 1.597 38.9767 0.6683C39.2587 1.1025 39.5134 1.5454 39.7704 2.0433C40.7665 3.9749 41.4285 5.701 41.9794 7.8032C42.3171 9.0702 42.5515 10.1602 42.7174 11.4618C42.7697 11.8786 42.81 12.2309 42.8533 12.6487L42.6016 11.639L42.2472 10.3137C41.8132 8.6885 41.3685 7.2676 40.7301 5.6838C40.0106 3.8995 39.0243 1.996 37.8253 0.5633C37.8141 0.5498 37.8027 0.5364 37.7912 0.5228C37.5949 0.5099 37.3958 0.5023 37.1942 0.5C37.6326 1.1067 37.9941 1.6937 38.3609 2.3894C39.3738 4.3122 40.0508 6.0323 40.6201 8.1298C40.9689 9.3936 41.2129 10.4817 41.3901 11.7817C41.4461 12.198 41.4896 12.5499 41.5364 12.9673L41.276 11.9598L40.9101 10.6377C40.4618 9.0163 40.0046 7.5994 39.3524 6.0213C38.6175 4.2433 37.6146 2.3485 36.4032 0.9263C36.2967 0.8011 36.1764 0.6716 36.049 0.5429C35.8335 0.5615 35.6182 0.5857 35.4033 0.6157C35.996 1.3546 36.4486 2.0281 36.9126 2.8608C37.9698 4.7597 38.6865 6.4637 39.3042 8.5474C39.682 9.8029 39.9511 10.885 40.1584 12.1806C40.224 12.5955 40.2756 12.9463 40.3321 13.3625L40.0484 12.3613L39.652 11.048C39.1663 9.4375 38.6765 8.0315 37.988 6.4689C37.2122 4.7084 36.1657 2.8373 34.9218 1.4435C34.7397 1.2395 34.5195 1.0244 34.2916 0.8209C34.1407 0.8555 33.9901 0.8929 33.84 0.9329L34.0497 1.1695C34.6677 1.9217 35.1355 2.6021 35.6166 3.4485C36.6899 5.3382 37.4212 7.036 38.0568 9.1144C38.4453 10.3666 38.7238 11.4463 38.9422 12.7401C39.0114 13.1544 39.0659 13.5047 39.126 13.9205L38.8337 12.9218L38.426 11.6119C37.9266 10.0057 37.4247 8.6038 36.7227 7.0472C35.9319 5.2934 34.8694 3.4314 33.6135 2.0484C33.377 1.7878 33.0774 1.5095 32.7794 1.2612C28.1334 2.9017 24.0857 7.0119 22.8557 11.8228C22.5495 13.0207 22.4401 14.1752 22.5073 15.2589C22.8673 14.6726 23.2499 14.099 23.6401 13.5448C25.4831 10.927 27.6498 8.4319 29.9241 6.2167C30.8864 5.2843 31.7506 4.55 32.8259 3.7508L31.9494 4.6308L30.7558 5.8834C29.0602 7.6635 27.7077 9.2426 26.2093 11.1917C25.1484 12.561 24.3239 13.7729 23.4397 15.2624C23.158 15.7412 22.9201 16.1842 22.6974 16.6482C22.7457 16.8726 22.8022 17.0929 22.8668 17.3089C23.351 16.3835 23.9068 15.4778 24.4812 14.617C26.2583 11.9541 28.3621 9.4057 30.5806 7.1346C31.5193 6.1786 32.365 5.4229 33.42 4.5971L32.5657 5.4986L31.4039 6.7803C29.7532 8.6021 28.4405 10.2145 26.9911 12.2003C25.9646 13.5956 25.1706 14.8277 24.3239 16.3388C23.9194 17.0671 23.6113 17.7126 23.3086 18.4685C23.3695 18.5981 23.4336 18.7257 23.5008 18.8511C24.0082 17.7452 24.6268 16.658 25.2728 15.6314C26.978 12.9218 29.0128 10.318 31.1695 7.9882C32.0823 7.0074 32.9074 6.2293 33.94 5.3756L33.1102 6.2997L31.9831 7.6122C30.3817 9.4776 29.1127 11.1245 27.717 13.1484C26.7283 14.5707 25.9675 15.8236 25.1615 17.3569C24.7438 18.159 24.437 18.8604 24.1314 19.7114C24.1206 19.7408 24.1099 19.7702 24.0993 19.7994C24.1824 19.9124 24.2686 20.0231 24.3576 20.1312C24.8364 18.9778 25.4358 17.8387 26.0663 16.7629C27.6849 14.0008 29.6363 11.334 31.7184 8.937C32.5996 7.9278 33.3998 7.1241 34.4049 6.2381L33.6046 7.188L32.5195 8.5355C30.978 10.4506 29.7617 12.1367 28.4307 14.2038C27.4874 15.6566 26.7666 16.933 26.0096 18.491C25.618 19.305 25.3337 20.015 25.0555 20.8741C26.5829 22.3003 28.7204 23.1456 31.2712 23.1456C34.4753 23.1456 37.7093 21.8117 40.3153 19.6684C40.0541 19.6946 39.7937 19.7173 39.5348 19.737C36.5995 19.9616 33.5618 19.8846 30.6599 19.5676C29.4514 19.4324 28.4381 19.2524 27.257 18.9629C30.5774 19.273 33.1627 19.4014 36.3624 19.2975C37.9547 19.2488 39.297 19.1245 40.8712 18.8801C41.0139 18.8568 41.1488 18.8336 41.2811 18.8092C41.5274 18.5724 41.7664 18.328 41.9974 18.0765C41.3071 18.1885 40.6098 18.271 39.9235 18.3329C36.9915 18.5975 33.9531 18.5622 31.047 18.2849C29.8368 18.1663 28.8211 18.0001 27.6362 17.7269C30.9606 17.9915 33.5473 18.0845 36.7454 17.9369C38.3369 17.8664 39.6774 17.7238 41.2481 17.4579C41.6675 17.3836 42.0196 17.31 42.4334 17.2097C42.5643 17.1793 42.6903 17.1484 42.8136 17.1163C42.986 16.8965 43.1529 16.6719 43.3136 16.4434Z" fill="#7A8C9F"/>
</svg>
