<svg width="90" height="30" viewBox="0 0 90 30" fill="none" xmlns="http://www.w3.org/2000/svg">
<g clip-path="url(#clip0)">
<path d="M47.878 7.48191C47.878 8.4833 47.0713 9.28998 46.07 9.28998C45.0686 9.28998 44.2619 8.4833 44.2619 7.48191C44.2619 6.48052 45.0407 5.67385 46.07 5.67385C47.0992 5.70166 47.878 6.50834 47.878 7.48191ZM40.4232 11.1259C40.4232 11.2928 40.4232 11.5709 40.4232 11.5709C40.4232 11.5709 39.5609 10.4583 37.725 10.4583C34.6931 10.4583 32.3287 12.767 32.3287 15.9659C32.3287 19.137 34.6652 21.4736 37.725 21.4736C39.5887 21.4736 40.4232 20.3331 40.4232 20.3331V20.806C40.4232 21.0285 40.5901 21.1954 40.8127 21.1954H43.0658V10.7364C43.0658 10.7364 41.0074 10.7364 40.8127 10.7364C40.5901 10.7364 40.4232 10.9311 40.4232 11.1259ZM40.4232 17.8296C40.006 18.4416 39.1715 18.9701 38.1701 18.9701C36.3899 18.9701 35.0268 17.8574 35.0268 15.9659C35.0268 14.0744 36.3899 12.9617 38.1701 12.9617C39.1437 12.9617 40.0338 13.5181 40.4232 14.1022V17.8296ZM44.7348 10.7364H47.4051V21.1954H44.7348V10.7364ZM84.6235 10.4583C82.7876 10.4583 81.9253 11.5709 81.9253 11.5709V5.70166H79.2549V21.1954C79.2549 21.1954 81.3133 21.1954 81.508 21.1954C81.7306 21.1954 81.8975 21.0007 81.8975 20.806V20.3331C81.8975 20.3331 82.7598 21.4736 84.5956 21.4736C87.6276 21.4736 89.992 19.137 89.992 15.9659C89.992 12.7948 87.6276 10.4583 84.6235 10.4583ZM84.1784 18.9423C83.1492 18.9423 82.3425 18.4137 81.9253 17.8018V14.0744C82.3425 13.5181 83.2326 12.9339 84.1784 12.9339C85.9586 12.9339 87.3216 14.0466 87.3216 15.9381C87.3216 17.8296 85.9586 18.9423 84.1784 18.9423ZM77.8641 14.9923V21.2232H75.1937V15.2983C75.1937 13.5737 74.6374 12.8783 73.1353 12.8783C72.3286 12.8783 71.4941 13.2955 70.9656 13.9075V21.1954H68.2952V10.7364H70.4093C70.6318 10.7364 70.7987 10.9311 70.7987 11.1259V11.5709C71.5776 10.7642 72.6068 10.4583 73.636 10.4583C74.8043 10.4583 75.7778 10.7921 76.5567 11.4597C77.5025 12.2385 77.8641 13.2399 77.8641 14.9923ZM61.814 10.4583C59.9781 10.4583 59.1158 11.5709 59.1158 11.5709V5.70166H56.4455V21.1954C56.4455 21.1954 58.5039 21.1954 58.6986 21.1954C58.9211 21.1954 59.088 21.0007 59.088 20.806V20.3331C59.088 20.3331 59.9503 21.4736 61.7862 21.4736C64.8182 21.4736 67.1826 19.137 67.1826 15.9659C67.2104 12.7948 64.846 10.4583 61.814 10.4583ZM61.369 18.9423C60.3398 18.9423 59.5331 18.4137 59.1158 17.8018V14.0744C59.5331 13.5181 60.4232 12.9339 61.369 12.9339C63.1492 12.9339 64.5122 14.0466 64.5122 15.9381C64.5122 17.8296 63.1492 18.9423 61.369 18.9423ZM54.1367 10.4583C54.9434 10.4583 55.3606 10.5973 55.3606 10.5973V13.073C55.3606 13.073 53.1353 12.322 51.7445 13.9075V21.2232H49.0741V10.7364C49.0741 10.7364 51.1325 10.7364 51.3273 10.7364C51.5498 10.7364 51.7167 10.9311 51.7167 11.1259V11.5709C52.2174 10.9868 53.3022 10.4583 54.1367 10.4583ZM26.4038 20.2496C26.2647 19.9158 26.1256 19.5542 25.9865 19.2482C25.764 18.7475 25.5415 18.2747 25.3467 17.8296L25.3189 17.8018C23.3996 13.6293 21.3412 9.40124 19.1715 5.22879L19.0881 5.06189C18.8655 4.64464 18.643 4.19958 18.4205 3.75452C18.1423 3.25382 17.8641 2.72531 17.4191 2.22462C16.529 1.11196 15.2494 0.5 13.8864 0.5C12.4956 0.5 11.2438 1.11196 10.3259 2.16898C9.90866 2.66968 9.60268 3.19819 9.32451 3.69888C9.10198 4.14395 8.87945 4.58901 8.65692 5.00625L8.57347 5.17315C6.43161 9.34561 4.34538 13.5737 2.42605 17.7462L2.39823 17.8018C2.20352 18.2469 1.98099 18.7197 1.75846 19.2204C1.61937 19.5264 1.48029 19.8602 1.34121 20.2218C0.979597 21.251 0.868332 22.2246 1.00741 23.226C1.31339 25.3122 2.70421 27.0646 4.62354 27.8435C5.34677 28.1495 6.09781 28.2886 6.87667 28.2886C7.0992 28.2886 7.37737 28.2607 7.5999 28.2329C8.51784 28.1217 9.46359 27.8157 10.3815 27.2872C11.522 26.6474 12.6068 25.7295 13.8308 24.3943C15.0547 25.7295 16.1673 26.6474 17.28 27.2872C18.1979 27.8157 19.1437 28.1217 20.0616 28.2329C20.2842 28.2607 20.5623 28.2886 20.7849 28.2886C21.5637 28.2886 22.3426 28.1495 23.038 27.8435C24.9851 27.0646 26.3481 25.2844 26.6541 23.226C26.8766 22.2524 26.7654 21.2788 26.4038 20.2496ZM13.8586 21.6961C12.3565 19.8046 11.3829 18.0243 11.0491 16.5222C10.91 15.8825 10.8822 15.3261 10.9657 14.8254C11.0213 14.3804 11.1882 13.9909 11.4107 13.6571C11.9393 12.9061 12.8294 12.4332 13.8586 12.4332C14.8878 12.4332 15.8057 12.8783 16.3064 13.6571C16.529 13.9909 16.6959 14.3804 16.7515 14.8254C16.8349 15.3261 16.8071 15.9103 16.668 16.5222C16.3342 17.9965 15.3607 19.7768 13.8586 21.6961ZM24.9573 23.0035C24.7626 24.4499 23.789 25.7016 22.426 26.258C21.7584 26.5361 21.0352 26.6196 20.312 26.5361C19.6166 26.4527 18.9212 26.2302 18.1979 25.8129C17.1965 25.2566 16.1952 24.3943 15.0269 23.1147C16.8628 20.8616 17.9754 18.8032 18.3927 16.9673C18.5874 16.105 18.6152 15.3261 18.5317 14.6029C18.4205 13.9075 18.1701 13.2677 17.7807 12.7114C16.9184 11.4597 15.4719 10.7364 13.8586 10.7364C12.2452 10.7364 10.7988 11.4875 9.93647 12.7114C9.54704 13.2677 9.2967 13.9075 9.18543 14.6029C9.07416 15.3261 9.10198 16.1328 9.32451 16.9673C9.74176 18.8032 10.8822 20.8894 12.6903 23.1425C11.5498 24.4221 10.5206 25.2844 9.51923 25.8407C8.796 26.258 8.10059 26.4805 7.40518 26.5639C6.65414 26.6474 5.93091 26.5361 5.29114 26.2858C3.92813 25.7295 2.95456 24.4777 2.75985 23.0313C2.6764 22.3359 2.73203 21.6404 3.01019 20.8616C3.09364 20.5834 3.23272 20.3053 3.37181 19.9715C3.56652 19.5264 3.78905 19.0535 4.01158 18.5806L4.0394 18.525C5.95873 14.3804 8.01714 10.1523 10.159 6.03546L10.2425 5.86856C10.465 5.45132 10.6875 5.00625 10.91 4.58901C11.1326 4.14395 11.3829 3.7267 11.6889 3.36509C12.273 2.69749 13.0519 2.33588 13.9142 2.33588C14.7765 2.33588 15.5554 2.69749 16.1395 3.36509C16.4455 3.7267 16.6959 4.14395 16.9184 4.58901C17.1409 5.00625 17.3634 5.45132 17.586 5.86856L17.6694 6.03546C19.7835 10.1801 21.8419 14.4082 23.7612 18.5528V18.5806C23.9837 19.0257 24.1785 19.5264 24.401 19.9715C24.5401 20.3053 24.6792 20.5834 24.7626 20.8616C24.9851 21.5848 25.0686 22.2802 24.9573 23.0035Z" fill="#7A8C9F"/>
</g>
<defs>
<clipPath id="clip0">
<rect width="90" height="28.7234" fill="white" transform="translate(0 0.5)"/>
</clipPath>
</defs>
</svg>
