<svg width="90" height="25" viewBox="0 0 90 25" fill="none" xmlns="http://www.w3.org/2000/svg">
<path d="M32.591 24.6558H15.4414L17.0829 20.4197H30.931L32.591 24.6558Z" fill="#7A8C9F"/>
<path d="M24.0702 2.35498L29.9502 17.9494H17.9771L24.0702 2.35498Z" fill="#7A8C9F"/>
<path d="M0 0.5H22.1594L12.4164 24.656H0V0.5Z" fill="#7A8C9F"/>
<path d="M37.4352 6.9908L39.6956 12.6486H35.092L37.4352 6.9908ZM36.8614 5.9401L32.1445 16.9745H33.339L34.7483 13.543H40.072L41.498 16.9745H42.6939L38.107 5.9401H36.8614ZM43.561 9.0001H44.5112V10.3445H44.5609C45.1003 9.3861 45.9858 8.7686 47.3291 8.7686C48.4433 8.7686 49.4422 9.2775 49.7536 10.3292C50.2614 9.2775 51.3259 8.7686 52.439 8.7686C54.2911 8.7686 55.2413 9.6798 55.2413 11.5649V16.9749H54.2084V11.6121C54.2084 10.2983 53.6843 9.5878 52.21 9.5878C50.425 9.5878 49.9166 10.9783 49.9166 12.4622V16.9749H48.8851V11.5649C48.9018 10.4837 48.427 9.5878 47.1157 9.5878C45.3311 9.5878 44.6096 10.8544 44.5932 12.5236V16.9749H43.5617V9.0001H43.561ZM56.1411 5.9397H65.4118V6.8359H61.3338V16.9745H60.2192V6.8359H56.1411V5.9397ZM64.8061 9.0001H65.7563V10.87H65.7893C66.3134 9.5882 67.4596 8.8301 68.9836 8.8915V9.8655C67.1162 9.7721 65.8379 11.072 65.8379 12.7246V16.9752H64.8064V9.0001H64.8061ZM76.8131 16.9749H75.8629V15.5372H75.8298C75.2891 16.6042 74.1762 17.2064 72.9143 17.2064C70.7849 17.2064 69.949 16.0318 69.949 14.1776V8.9998H70.982V14.1925C71.0303 15.6302 71.6041 16.3869 73.2424 16.3869C75.0117 16.3869 75.7816 14.811 75.7816 13.1879V8.9998H76.8134V16.9749H76.8131ZM83.823 11.3334C83.775 10.1282 82.7915 9.5874 81.6123 9.5874C80.6951 9.5874 79.6139 9.9273 79.6139 10.9627C79.6139 11.828 80.6621 12.1373 81.3669 12.307L82.7422 12.601C83.921 12.7711 85.15 13.4202 85.15 14.8107C85.15 16.5413 83.332 17.2067 81.76 17.2067C79.7936 17.2067 78.45 16.3403 78.2873 14.3927H79.3188C79.4002 15.7065 80.4331 16.3865 81.8083 16.3865C82.7752 16.3865 84.118 15.9853 84.118 14.8721C84.118 13.9453 83.201 13.6361 82.2674 13.4202L80.9405 13.1414C79.5972 12.8016 78.581 12.3684 78.581 11.0085C78.581 9.3854 80.269 8.7679 81.76 8.7679C83.447 8.7679 84.79 9.6024 84.855 11.333H83.823V11.3334ZM88.279 9.0001H89.999V9.8193H88.279V15.1973C88.279 15.8312 88.377 16.2019 89.115 16.2491C89.41 16.2491 89.704 16.2324 89.999 16.2019V17.0363C89.689 17.0363 89.393 17.0668 89.082 17.0668C87.707 17.0668 87.231 16.6347 87.247 15.2751V9.8193H85.773V9.0001H87.247V6.6051H88.279V9.0001Z" fill="#7A8C9F"/>
</svg>
