<svg width="32" height="33" viewBox="0 0 32 33" fill="none" xmlns="http://www.w3.org/2000/svg">
<path fill-rule="evenodd" clip-rule="evenodd" d="M26.6782 0.5124C26.0697 0.8887 25.4352 1.5967 25.9227 2.3834C26.6606 3.5752 28.2089 2.0743 28.5142 2.5663C28.6488 2.7834 28.4956 2.9592 28.3166 3.0698C28.2048 3.139 28.0827 3.1659 27.974 3.1514C27.856 3.1349 27.7525 3.0687 27.7722 3.0656L26.6668 3.7489C27.145 4.4187 28.0164 4.1799 28.6861 3.7665C29.7583 3.1039 29.9911 2.3586 29.5947 1.7187C28.8817 0.5682 27.2123 1.9978 26.9463 1.5699C26.8521 1.4169 26.9401 1.2732 27.1409 1.1492C27.2299 1.0944 27.3282 1.0654 27.4224 1.0809C27.5165 1.0954 27.5993 1.1419 27.6004 1.1636L28.6581 0.5L32 0.503099V12.1394L17.2663 12.1631C14.8672 12.1631 12.9225 14.1055 12.9225 16.5016C12.9225 18.8976 14.8672 20.84 17.2663 20.84H32V32.4638L16.0181 32.5C7.1713 32.5 0 25.3365 0 16.5005C0 7.6656 7.1713 0.503099 16.0181 0.503099L26.6782 0.5124Z" fill="#7A8C9F"/>
<path fill-rule="evenodd" clip-rule="evenodd" d="M9.95789 15.2217L8.88049 15.8874L8.60629 15.6714C8.51729 16.0983 8.36099 16.3309 7.88079 16.6276C7.24429 17.0204 6.57669 16.8653 6.03129 15.9846L4.87109 14.1126L6.03229 13.3952L7.06209 15.0564C7.32399 15.4791 7.54749 15.5277 7.82589 15.3551C8.16119 15.1484 8.10329 14.8186 7.80829 14.3431L6.89129 12.8639L8.05259 12.1465L9.95789 15.2217Z" fill="#EFF2FF"/>
<path fill-rule="evenodd" clip-rule="evenodd" d="M8.5791 11.8211L9.6451 11.1616L9.9235 11.3828C9.9235 11.0582 10.1792 10.7161 10.5176 10.5011C11.0382 10.1692 11.478 10.2323 11.8216 10.4742C11.8434 9.94909 12.0535 9.55209 12.483 9.28649C13.3368 8.75829 13.9174 9.09729 14.438 9.93669L15.5651 11.756L14.4039 12.4734L13.4331 10.9063C13.1536 10.4545 12.957 10.3243 12.6496 10.5135C12.3091 10.7243 12.4343 11.0768 12.6641 11.4459L13.6059 12.9664L12.4447 13.6838L11.4739 12.1167C11.1934 11.665 10.9978 11.5348 10.6904 11.7239C10.3499 11.9348 10.4752 12.2873 10.7049 12.6563L11.6467 14.1769L10.4855 14.8943L8.5791 11.8211Z" fill="#EFF2FF"/>
<path fill-rule="evenodd" clip-rule="evenodd" d="M21.7452 7.9364L19.8398 4.8612L21.0011 4.1438L22.9064 7.219L21.7452 7.9364Z" fill="#EFF2FF"/>
<path fill-rule="evenodd" clip-rule="evenodd" d="M19.0581 3.59899L20.2193 2.88159L20.7575 3.74989L19.5963 4.46829L19.0581 3.59899Z" fill="#EFF2FF"/>
<path fill-rule="evenodd" clip-rule="evenodd" d="M21.6211 3.76129L22.6819 3.10599L23.0224 3.33649C23.0483 3.01909 23.1746 2.68009 23.6155 2.40719C24.3865 1.93169 25.0437 2.18289 25.5674 3.02739L26.709 4.87049L25.5478 5.58789L24.5407 3.96189C24.3513 3.65689 24.106 3.43469 23.7769 3.63829C23.4199 3.85949 23.4737 4.15829 23.7179 4.55209L24.6887 6.11919L23.5275 6.83659L21.6211 3.76129Z" fill="#EFF2FF"/>
<path fill-rule="evenodd" clip-rule="evenodd" d="M14.1597 8.37163L15.2257 7.71313L15.5041 7.93433C15.5041 7.60983 15.7597 7.26763 16.0982 7.05163C16.6187 6.71973 17.0586 6.78283 17.4022 7.02473C17.4239 6.49963 17.634 6.10263 18.0635 5.83703C18.9174 5.30883 19.498 5.64783 20.0186 6.48723L21.1457 8.30653L19.9844 9.02383L19.0136 7.45683C18.7342 7.00503 18.5376 6.87483 18.2302 7.06403C17.8897 7.27483 18.0149 7.62733 18.2447 7.99643L19.1865 9.51693L18.0253 10.2343L17.0545 8.66723C16.774 8.21553 16.5773 8.08533 16.271 8.27553C15.9305 8.48633 16.0568 8.83783 16.2855 9.20783L17.2273 10.7284L16.0661 11.4458L14.1597 8.37163Z" fill="#EFF2FF"/>
<path fill-rule="evenodd" clip-rule="evenodd" d="M4.8121 18.4037C3.5608 19.1769 1.9194 18.7913 1.1452 17.5416C0.371104 16.2918 0.757105 14.6524 2.0084 13.8792L3.5184 12.9458L4.2501 14.1273L2.94401 14.9346C2.34681 15.3036 2.16161 16.0872 2.53211 16.6846C2.90161 17.2811 3.68611 17.4661 4.28431 17.0971L5.59041 16.2898L6.32211 17.4713L4.8121 18.4037Z" fill="#EFF2FF"/>
</svg>
