<svg width="88" height="17" viewBox="0 0 88 17" fill="none" xmlns="http://www.w3.org/2000/svg">
<path d="M21.1066 7.6486C22.5102 7.6486 22.9353 8.9299 22.9353 9.6362C22.9322 9.6362 19.1526 9.6362 19.1526 9.6362C19.1496 8.6363 19.8437 7.6486 21.1066 7.6486ZM25.137 13.581C24.7364 13.7155 24.3205 13.8379 23.9047 13.9235C23.4154 14.0213 22.9108 14.0764 22.3971 14.0764C20.7366 14.0764 19.437 13.5229 19.226 12.208H26.3082C26.3602 11.9542 26.455 11.3426 26.455 10.7004C26.455 7.7097 24.9658 4.9668 21.1709 4.9668C17.483 4.9668 15.5198 7.8596 15.5198 11.0979C15.5198 14.8317 18.1313 16.9692 21.7763 16.9692C22.706 16.9692 23.3848 16.8866 23.9444 16.7735C24.5254 16.6542 25.1676 16.4646 25.7089 16.22L25.137 13.581Z" fill="#7A8C9F"/>
<path d="M76.0894 7.6486C77.493 7.6486 77.9181 8.9299 77.9181 9.6363C77.915 9.6363 74.1354 9.6363 74.1354 9.6363C74.1323 8.6364 74.8265 7.6486 76.0894 7.6486ZM80.1198 13.581C79.7223 13.7156 79.3033 13.8379 78.8875 13.9235C78.3982 14.0214 77.8936 14.0764 77.3799 14.0764C75.7194 14.0764 74.4198 13.5229 74.2088 12.208H81.291C81.343 11.9542 81.4347 11.3426 81.4347 10.7005C81.4347 7.7098 79.9455 4.9668 76.1506 4.9668C72.4627 4.9668 70.4995 7.8596 70.4995 11.098C70.4995 14.8317 73.111 16.9693 76.7561 16.9693C77.6857 16.9693 78.3615 16.8867 78.9241 16.7735C79.5052 16.6543 80.1473 16.4647 80.6886 16.2201L80.1198 13.581Z" fill="#7A8C9F"/>
<path d="M28.187 1.15991V16.7218H32.0278V1.15991H28.187Z" fill="#7A8C9F"/>
<path d="M39.7433 14.1194C38.4957 14.1194 37.6761 12.887 37.6761 10.9789C37.6761 9.45908 38.2266 7.83838 39.7555 7.83838C41.2325 7.83838 41.7585 9.52018 41.7585 10.9636C41.7554 12.8779 40.9604 14.1194 39.7433 14.1194ZM39.6913 16.9663C42.6881 16.9663 45.7216 15.0796 45.7216 10.8627C45.7216 8.35208 44.2354 4.98218 39.8809 4.98218C35.398 4.98218 33.762 8.24808 33.762 11.0553C33.7589 14.5781 36.2022 16.9663 39.6913 16.9663Z" fill="#7A8C9F"/>
<path d="M47.3909 5.23608V16.7218H51.2317V5.23608H47.3909Z" fill="#7A8C9F"/>
<path d="M47.3909 1.16284V4.14434H51.2317V1.16284H47.3909Z" fill="#7A8C9F"/>
<path d="M54.2702 2.11072V5.23282H52.7932V8.07982H54.2702V12.786C54.2702 15.373 55.4536 16.957 58.1538 16.957C58.6614 16.957 59.2332 16.905 59.7592 16.8255C60.2454 16.7521 60.6796 16.6634 60.8692 16.6023C60.8723 16.5992 60.8417 13.6024 60.8417 13.5902C60.7194 13.633 59.8479 13.7798 59.5298 13.7798C59.221 13.7798 58.7623 13.74 58.4351 13.4037C58.1996 13.1652 58.0345 12.7737 58.0345 12.1407V8.08282H60.5176V5.23592C60.5176 5.23592 58.3617 5.23592 58.0345 5.23592C58.0345 4.89952 58.0345 1.68872 58.0345 1.68872L54.2702 2.11072Z" fill="#7A8C9F"/>
<path d="M63.1569 2.11072V5.23282H61.6799V8.07982H63.1569V12.786C63.1569 15.373 64.3403 16.957 67.0405 16.957C67.5481 16.957 68.1199 16.905 68.6459 16.8255C69.1352 16.7521 69.5663 16.6634 69.7559 16.6023C69.759 16.5992 69.7284 13.6024 69.7284 13.5902C69.6061 13.633 68.7346 13.7798 68.4166 13.7798C68.1077 13.7798 67.649 13.74 67.3218 13.4037C67.0863 13.1652 66.9212 12.7737 66.9212 12.1407V8.08282H69.3981V5.23592C69.3981 5.23592 67.2454 5.23592 66.9151 5.23592C66.9151 4.89952 66.9151 1.68872 66.9151 1.68872L63.1569 2.11072Z" fill="#7A8C9F"/>
<path d="M0.659594 16.7401H5.00489C5.29849 16.7401 5.65619 16.734 5.93449 16.7187C11.8822 16.4098 14.3561 12.8901 14.3561 8.8231C14.3561 3.7469 10.9312 0.899902 5.0202 0.899902C3.5034 0.899902 2.15489 0.951903 0.656494 1.0773V16.7401H0.659594ZM6.21279 13.6393C6.05379 13.6516 5.81219 13.6577 5.65929 13.6577H4.44219C4.44529 13.6577 4.44219 4.0924 4.44219 4.0924C4.86419 4.0557 5.39939 4.0282 5.75719 4.0282C7.98949 4.0282 10.3685 5.47771 10.3685 8.8231C10.3685 12.3152 8.13319 13.4803 6.21279 13.6393Z" fill="#7A8C9F"/>
<path d="M83.0891 14.8471C83.0891 13.6729 84.0401 12.7219 85.2141 12.7219C86.3881 12.7219 87.3391 13.6729 87.3391 14.8471C87.3391 16.0214 86.3881 16.9724 85.2141 16.9724C84.0431 16.9724 83.0891 16.0214 83.0891 14.8471Z" fill="#C1C9D2"/>
</svg>
