<svg width="122" height="15" viewBox="0 0 122 15" fill="none" xmlns="http://www.w3.org/2000/svg">
<path d="M35.7661 4.273V10.411H37.2851C38.0601 10.411 38.8351 10.07 39.3621 9.481C39.9201 8.892 40.1991 8.117 40.1991 7.311C40.2301 6.505 39.9201 5.73 39.3621 5.141C38.8041 4.552 38.0601 4.242 37.2541 4.242L35.7661 4.273ZM37.2851 2.35101C40.1371 2.35101 42.3071 4.552 42.3071 7.342C42.3071 10.132 40.1371 12.333 37.2851 12.333H33.9061C33.7821 12.333 33.6581 12.209 33.6581 12.085V2.599C33.6581 2.475 33.7821 2.35101 33.9061 2.35101H37.2851ZM49.6541 10.628C50.9561 10.628 52.1341 9.822 52.6301 8.613C53.1261 7.373 52.8471 5.978 51.9481 5.017C51.0491 4.087 49.6541 3.777 48.4451 4.304C47.2361 4.8 46.4611 6.009 46.4611 7.342C46.4611 9.171 47.8871 10.628 49.6541 10.628ZM49.6541 2.134C52.6611 2.134 54.9551 4.49 54.9551 7.342C54.9551 10.194 52.6611 12.55 49.6541 12.55C46.6471 12.55 44.3841 10.194 44.3841 7.342C44.3841 4.49 46.6781 2.134 49.6541 2.134ZM62.2711 10.628C64.0381 10.628 65.4641 9.14 65.4641 7.342C65.4641 5.513 64.0381 4.05601 62.2711 4.05601C60.5041 4.05601 59.0781 5.513 59.0781 7.342C59.0781 8.21 59.4191 9.047 60.0081 9.667C60.5971 10.287 61.4031 10.628 62.2711 10.628ZM62.2711 2.134C65.2781 2.134 67.5721 4.49 67.5721 7.342C67.5721 10.194 65.2781 12.55 62.2711 12.55C59.2951 12.55 56.9701 10.194 56.9701 7.342C56.9701 4.49 59.2641 2.134 62.2711 2.134ZM74.5471 4.273H72.3771V6.908H74.5471C74.8881 6.908 75.2291 6.784 75.4771 6.567C75.7251 6.319 75.8801 5.978 75.8801 5.637C75.8801 5.265 75.7561 4.924 75.5081 4.676C75.2601 4.397 74.9191 4.273 74.5471 4.273ZM70.3001 2.599C70.3001 2.475 70.4241 2.35101 70.5481 2.35101H74.6091C76.5621 2.35101 77.9571 3.808 77.9571 5.637C77.9571 6.877 77.3061 8.02401 76.2211 8.55101L78.0811 11.961C78.1431 12.054 78.1431 12.147 78.0811 12.24C78.0501 12.333 77.9571 12.364 77.8641 12.364H76.2211C76.1281 12.364 76.0351 12.302 76.0041 12.24L74.2061 8.861H72.4081V12.085C72.4081 12.209 72.3151 12.333 72.1601 12.333H70.5791C70.4551 12.333 70.3311 12.209 70.3311 12.085L70.3001 2.599ZM83.4131 4.335V10.473H84.9321C85.7071 10.473 86.4821 10.132 87.0091 9.574C87.5671 8.985 87.8771 8.21 87.8461 7.404C87.8771 6.598 87.5671 5.823 87.0091 5.234C86.4511 4.645 85.7071 4.335 84.9011 4.335C84.9321 4.335 83.4131 4.335 83.4131 4.335ZM84.9321 2.413C87.7841 2.413 89.9541 4.614 89.9541 7.404C89.9541 10.194 87.7841 12.395 84.9321 12.395H81.5531C81.4291 12.395 81.3051 12.271 81.3051 12.147V2.661C81.3051 2.537 81.4291 2.413 81.5531 2.413H84.9321ZM96.3091 4.831L95.1311 8.117H97.4871L96.3091 4.831ZM94.4491 9.977L93.6741 12.178C93.6431 12.271 93.5501 12.364 93.4261 12.364H91.7521C91.6591 12.364 91.5661 12.333 91.5351 12.271C91.4731 12.209 91.4731 12.116 91.5041 12.023L95.1311 2.537C95.1621 2.444 95.2551 2.382 95.3791 2.382H97.2701C97.3941 2.382 97.4871 2.444 97.5181 2.537L101.145 12.023C101.176 12.116 101.176 12.209 101.114 12.271C101.052 12.333 100.99 12.395 100.897 12.364H99.223C99.099 12.364 99.006 12.302 98.9751 12.178L98.2001 9.977H94.4491ZM103.067 5.048C103.067 3.467 104.4 2.134 106.477 2.134C107.593 2.103 108.678 2.537 109.515 3.312C109.608 3.405 109.608 3.56 109.515 3.653L108.585 4.614C108.492 4.707 108.337 4.707 108.244 4.614C107.81 4.211 107.221 3.963 106.632 3.963C105.795 3.963 105.175 4.459 105.175 5.048C105.175 6.908 110.104 5.82301 110.104 9.41901C110.104 11.217 108.771 12.612 106.415 12.612C105.082 12.612 103.811 12.116 102.881 11.155C102.788 11.062 102.788 10.907 102.881 10.814L103.78 9.88401C103.873 9.79101 104.028 9.79101 104.121 9.88401C104.679 10.442 105.454 10.752 106.26 10.783C107.314 10.783 107.996 10.225 107.996 9.481C108.027 7.559 103.067 8.644 103.067 5.048ZM119.063 2.599V6.35H114.878V2.599C114.878 2.475 114.785 2.35101 114.63 2.35101H113.08C112.956 2.35101 112.832 2.475 112.832 2.599V12.085C112.832 12.209 112.956 12.333 113.08 12.333H114.661C114.785 12.333 114.909 12.209 114.909 12.085V8.272H119.094V12.085C119.094 12.209 119.218 12.333 119.342 12.333H120.923C121.047 12.333 121.171 12.209 121.171 12.085V2.599C121.171 2.475 121.078 2.35101 120.923 2.35101H119.342C119.187 2.35101 119.063 2.475 119.063 2.599ZM24.7611 3.622C23.6761 1.576 21.5061 0.305004 19.1811 0.336004H1.48011C1.23211 0.336004 1.01511 0.491003 0.922114 0.708003C0.829114 0.925003 0.891114 1.204 1.04611 1.359L4.89011 5.172C5.23111 5.513 5.69611 5.699 6.19211 5.699H18.6851C19.5841 5.699 20.2971 6.381 20.2971 7.28C20.2971 8.148 19.5841 8.861 18.7161 8.892H10.0981C9.8501 8.892 9.6331 9.047 9.5401 9.264C9.4471 9.481 9.5091 9.76 9.6641 9.915L13.5081 13.759C13.8491 14.1 14.3141 14.286 14.8101 14.286H18.7161C23.7691 14.255 27.5821 8.92301 24.7611 3.622Z" fill="#7A8C9F"/>
</svg>
