<svg width="70" height="20" viewBox="0 0 70 20" fill="none" xmlns="http://www.w3.org/2000/svg">
<path d="M19.8478 1.06421C20.4229 0.97744 21.0845 0.923203 21.5727 1.28116C21.8764 1.5089 21.9849 1.92109 21.9632 2.29C21.9849 2.89743 21.7028 3.54832 21.1606 3.86295C20.6832 4.1233 20.1083 4.14488 19.5767 4.09069C19.2187 4.04736 18.8608 3.85215 18.6764 3.52669C18.2641 2.58292 18.7739 1.24862 19.8478 1.06421ZM2.64325 1.74763C2.67575 1.42217 2.96867 1.12928 3.30493 1.14019C5.81085 1.14019 8.30583 1.15098 10.8008 1.14019C11.072 1.11849 11.3649 1.23775 11.495 1.4764C11.6794 1.80186 11.5167 2.15982 11.495 2.49615C11.4192 2.95167 11.4408 3.55923 10.9094 3.73273C9.08688 3.78697 7.26441 3.73273 5.44195 3.75443C5.2684 4.90424 5.1057 6.04325 4.93207 7.18227C4.93207 7.22567 4.94298 7.32339 4.94298 7.36664C6.27724 7.35585 7.6115 7.36664 8.94576 7.35585C9.31462 7.33415 9.70507 7.64886 9.67254 8.03927C9.64004 8.44067 9.55323 8.83116 9.49903 9.23256C9.45555 9.5037 9.23864 9.75322 8.95659 9.80746C7.47041 9.84 5.96253 9.77493 4.47651 9.84C4.23778 11.478 3.95573 13.116 3.70621 14.754C3.67375 15.0795 3.41332 15.3615 3.0879 15.3723C2.46964 15.3832 1.85124 15.3832 1.23298 15.3723C0.831618 15.3832 0.506154 14.9383 0.614588 14.5587C1.2765 10.2848 1.95988 6.02171 2.64325 1.74763V1.74763ZM13.6646 1.16177C14.2287 1.11845 14.8036 1.15098 15.3677 1.14019C15.7149 1.11849 16.062 1.38963 16.0945 1.74763C16.0945 2.0296 16.0185 2.3117 15.986 2.59371C15.5304 5.50096 15.064 8.40821 14.6083 11.3154C14.5432 11.7819 14.4239 12.2808 14.565 12.7582C14.7277 13.2354 15.4544 13.0293 15.628 13.5283C15.7365 13.9297 15.6171 14.3527 15.5845 14.765C15.5521 15.3073 14.9337 15.4266 14.5107 15.5461C13.5887 15.7196 12.4713 15.5894 11.8096 14.83C11.3323 14.2769 11.2997 13.4957 11.3974 12.8016C11.9723 9.11333 12.5472 5.4251 13.1331 1.72593C13.1656 1.4547 13.3825 1.20522 13.6646 1.16177V1.16177ZM35.1975 1.74763C35.2299 1.42217 35.5229 1.14019 35.8483 1.14019H37.4972C37.9094 1.12928 38.2457 1.57408 38.1481 1.96453C37.7684 4.37278 37.3779 6.78103 36.9983 9.18911C37.5732 9.10238 38.2241 8.99391 38.6254 8.52748C39.2979 7.76804 39.8513 6.88954 40.2634 5.96747C40.4044 5.60944 40.4804 5.08877 40.9468 5.02366C41.5652 5.00196 42.1943 5.01279 42.8126 5.02366C43.2357 5.01279 43.5503 5.49009 43.4093 5.88058C43.2466 6.45564 42.9754 6.9871 42.6934 7.49698C42.0641 8.51669 41.37 9.52548 40.4587 10.3282C40.86 11.5323 41.3699 12.7039 41.8147 13.8863C41.9448 14.2768 42.2595 14.7324 41.9665 15.1122C41.6302 15.5677 41.001 15.3398 40.5346 15.3941C40.0464 15.3398 39.3414 15.5893 39.0701 15.0361C38.5603 13.8537 38.1373 12.6388 37.6165 11.4564C37.3128 11.4671 36.9982 11.4781 36.6944 11.4456C36.6728 11.489 36.6294 11.5757 36.6077 11.6191C36.4449 12.7039 36.2714 13.7887 36.0978 14.8734C36.0327 15.1337 35.8266 15.3616 35.5446 15.3833C34.9697 15.405 34.3839 15.3941 33.7981 15.3941C33.5485 15.3941 33.3208 15.2314 33.2123 15.0144C33.1038 14.7974 33.1688 14.548 33.2015 14.3094C33.874 10.1221 34.5357 5.93482 35.1975 1.74763V1.74763ZM65.3434 2.93005C65.4194 2.62621 65.7122 2.42017 66.0161 2.43096C66.45 2.44188 66.8947 2.42017 67.3394 2.44188C67.6975 2.45267 67.9795 2.81066 67.936 3.15779C67.871 3.77614 67.719 4.39448 67.6757 5.01271C68.0987 5.01271 68.5326 5.00192 68.9557 5.01271C69.3354 5.01271 69.6501 5.40328 69.5849 5.77203C69.5306 6.10844 69.4547 6.4339 69.4005 6.77004C69.3462 7.05217 69.1077 7.27995 68.8365 7.32332C68.3157 7.35585 67.8059 7.30161 67.2961 7.35585C67.0791 8.80937 66.8405 10.2629 66.6126 11.7167C66.58 12.053 66.5584 12.4326 66.7536 12.7255C67.0466 13.0835 67.5563 12.9532 67.9686 12.9967C68.2941 13.0943 68.5001 13.4524 68.4459 13.7779C68.3916 14.1466 68.3808 14.5154 68.2941 14.8734C68.1639 15.2747 67.6974 15.3507 67.3394 15.4483C66.3522 15.7087 65.2132 15.7087 64.3347 15.1337C63.5211 14.5804 63.3908 13.5065 63.4776 12.5953C63.7054 10.8379 64.0635 9.09147 64.2587 7.32328C63.955 7.33407 63.5861 7.37751 63.3584 7.10629C63.098 6.83514 63.2282 6.43374 63.2715 6.09737C63.3367 5.73942 63.3258 5.27299 63.7163 5.0777C64.0309 4.95832 64.3889 5.04521 64.7252 5.00176C64.9313 4.30763 65.1265 3.61342 65.3434 2.93005V2.93005ZM59.2145 6.44465C59.8979 5.76124 60.7222 5.19717 61.666 4.91519C62.0782 4.73074 62.6098 5.0779 62.599 5.5335C62.5231 6.13014 62.382 6.71584 62.2844 7.30161C62.2409 7.59454 61.9914 7.84406 61.6985 7.8766C60.6354 8.06093 59.7134 8.70086 58.9758 9.4603C58.7914 9.6882 58.5202 9.9051 58.4876 10.2197C58.2599 11.7383 58.0212 13.257 57.7826 14.7757C57.7501 15.1011 57.4679 15.4158 57.1317 15.3941H55.4827C55.1031 15.4158 54.7669 15.0362 54.8102 14.6564C55.2875 11.6516 55.7649 8.65765 56.2313 5.65272C56.253 5.34904 56.47 5.05616 56.7845 5.02358C57.1859 5.00188 57.5872 5.01271 57.9995 5.01271C58.3249 5.01271 58.6286 5.3056 58.6286 5.64193C58.6286 6.10836 58.5853 6.58562 58.5744 7.06292C58.8348 6.90033 58.9975 6.63994 59.2145 6.44465V6.44465ZM18.6654 5.06699C19.2512 4.94772 19.8587 5.04537 20.4444 5.01275C20.7808 4.96943 21.1387 5.18633 21.1929 5.52267C21.2364 5.82635 21.1495 6.11927 21.1169 6.4122C20.6723 9.20014 20.2274 11.988 19.7935 14.7758C19.761 15.0905 19.5008 15.4051 19.1644 15.3941C18.5786 15.3941 17.9928 15.4051 17.3963 15.3834C17.0274 15.3399 16.7562 14.917 16.8539 14.5589C17.3203 11.6626 17.7651 8.77704 18.2316 5.88062C18.2533 5.56603 18.34 5.19717 18.6654 5.06699V5.06699ZM53.7688 5.20812C52.1525 4.90428 50.5037 4.68733 48.8656 4.85004C47.4012 5.0345 45.9259 5.69625 45.0256 6.90033C43.7781 8.48407 43.355 10.6103 43.6369 12.5847C43.7889 13.5283 44.201 14.483 44.9713 15.0687C45.6872 15.622 46.6527 15.6979 47.5206 15.5569C48.7354 15.3182 49.7659 14.5373 50.6121 13.6694C50.6555 14.0382 50.5687 14.407 50.5904 14.765C50.6121 15.1012 50.9159 15.4158 51.2521 15.3941H52.3587C52.6841 15.3941 52.9553 15.0905 52.977 14.7758C53.4434 11.836 53.9099 8.9071 54.3655 5.97827C54.4305 5.6094 54.1377 5.25144 53.7688 5.20812V5.20812ZM50.7207 10.3174C50.2867 11.131 49.6792 11.8686 48.9958 12.4977C48.6053 12.8231 48.1063 13.1595 47.5748 13.051C47.0541 12.9426 46.8046 12.4002 46.6853 11.9337C46.4141 10.7188 46.6636 9.39527 47.3469 8.34311C47.6507 7.85485 48.1388 7.48611 48.7029 7.33419C49.4948 7.1389 50.3302 7.23654 51.1004 7.45349L51.1437 7.49698C51.0461 8.44067 50.8617 9.37361 50.7207 10.3174V10.3174ZM32.4747 8.69023C32.4638 7.60541 32.1709 6.46644 31.4116 5.6528C30.891 5.0779 30.1099 4.78501 29.3505 4.79577C28.0922 4.75248 26.9098 5.37083 25.9877 6.19517C25.7816 6.35796 25.6406 6.59661 25.4128 6.72675C25.4128 6.36867 25.4453 6.01076 25.4344 5.64197C25.4453 5.3056 25.1307 5.01275 24.8053 5.01275H23.6988C23.3517 5.01275 23.0696 5.31655 23.0479 5.65276C22.3645 9.99191 21.6703 14.331 20.9869 18.6702C20.8893 19.0715 21.2365 19.4838 21.6487 19.4729C22.2561 19.4621 22.8745 19.5163 23.4711 19.4294C23.9484 19.2992 23.9375 18.746 24.0135 18.3447C24.187 17.39 24.3064 16.4354 24.4148 15.47C26.5519 15.8822 29.036 15.6002 30.6306 13.9838C31.9323 12.5629 32.5397 10.5994 32.4747 8.69023V8.69023ZM29.4373 9.7858C29.3723 10.7838 29.0143 11.7927 28.32 12.5194C27.4197 13.3765 26.0528 13.257 24.9463 12.9643C24.9248 12.9317 24.8921 12.8665 24.8813 12.8341C25.0548 11.8903 25.1416 10.9357 25.3586 10.0028C25.9661 9.00486 26.7037 7.9959 27.7559 7.44274C28.1464 7.25837 28.678 7.30173 28.96 7.65973C29.4373 8.25633 29.4807 9.05906 29.4373 9.7858V9.7858Z" fill="#7A8C9F" stroke="#107BD4" stroke-width="0.101"/>
</svg>
