<svg width="94" height="17" viewBox="0 0 94 17" fill="none" xmlns="http://www.w3.org/2000/svg">
<path d="M17.7245 5.06967H19.5016L19.1742 7.18207H17.3971L16.7424 11.8293H13.8897L15.4329 0.75107H20.2966L19.9693 2.95727H17.9583L17.7245 5.06967ZM26.6568 7.27587C26.6568 7.46367 26.6101 8.02697 26.5165 8.91887L26.0956 11.8293H23.43L23.9444 8.12087C24.0379 7.51067 24.0379 7.18207 23.9444 7.04117C23.8509 6.90037 23.617 6.80647 23.2429 6.80647L22.5414 11.8293H19.6887L21.2319 0.75107H23.2897C24.6459 0.75107 25.5344 0.797969 26.0021 0.891869C26.4698 0.985769 26.8439 1.26747 27.0777 1.68987C27.3115 2.11237 27.3583 2.81647 27.218 3.75537C27.0777 4.60027 26.8907 5.21047 26.6568 5.49217C26.423 5.77377 25.9553 5.96157 25.3006 6.00847C25.8618 6.14937 26.1892 6.33707 26.3762 6.57177C26.5633 6.85347 26.6568 7.08817 26.6568 7.27587ZM24.5056 2.81647C24.412 2.72257 24.1782 2.62877 23.8509 2.62877L23.5235 5.11657C23.8509 5.11657 24.0847 5.06967 24.225 4.97577C24.3653 4.88187 24.4588 4.60027 24.5523 4.13087L24.6459 3.52057C24.6459 3.14507 24.5991 2.91037 24.5056 2.81647ZM28.5275 0.75107L26.9842 11.8293H29.8369L31.3802 0.75107H28.5275ZM35.1215 2.95727H37.0389L37.3663 0.75107H32.5494L31.0061 11.8293H36.0101L36.3374 9.62297H34.2329L34.5603 7.18207H36.3374L36.618 5.06967H34.8409L35.1215 2.95727ZM42.3703 0.75107L41.6688 5.72687L40.7802 0.75107H38.3951L36.8518 11.8293H39.2369L39.9384 6.80647L40.6867 11.8293H43.212L44.7553 0.75107H42.3703ZM52.2379 2.53487C52.2379 2.91037 52.1911 3.61447 52.0508 4.64717L51.4897 8.54337C51.3494 9.52907 51.2091 10.1863 51.0688 10.5618C50.9285 10.9374 50.7414 11.1721 50.4608 11.3598C50.1802 11.5476 49.8996 11.6884 49.5255 11.7354C49.1513 11.8293 48.6369 11.8293 47.9822 11.8293H44.3344L45.8777 0.75107H48.029C49.4319 0.75107 50.3673 0.797969 50.8349 0.938869C51.3026 1.07967 51.63 1.26747 51.8638 1.54907C52.1444 1.87767 52.2379 2.15927 52.2379 2.53487ZM49.3384 3.05117C49.3384 2.91037 49.2449 2.81647 49.1513 2.72257C49.0578 2.67567 48.824 2.62877 48.5434 2.62877L47.5145 9.90467C47.9354 9.90467 48.216 9.81077 48.3096 9.66997C48.4499 9.48217 48.5434 9.05967 48.6369 8.30867L49.2449 3.99007C49.3384 3.52057 49.3852 3.19207 49.3384 3.05117ZM56.4469 2.95727H58.4578L58.7852 0.75107H53.9215L52.3782 11.8293H55.2309L55.8857 7.18207H57.6628L57.9434 5.06967H56.1663L56.4469 2.95727ZM62.5732 0.75107H59.7205L58.1772 11.8293H61.0299L62.5732 0.75107ZM69.9155 0.75107H67.5304L66.8289 5.72687L65.9404 0.75107H63.5553L62.012 11.8293H64.3971L65.0986 6.80647L65.8936 11.8293H68.419L69.9155 0.75107ZM75.621 11.3129C75.3404 11.5007 75.0598 11.6415 74.6857 11.6884C74.3115 11.7823 73.7971 11.7823 73.1424 11.7823H69.4946L71.0847 0.75107H73.2359C74.6389 0.75107 75.5742 0.797969 76.0419 0.938869C76.5096 1.07967 76.8369 1.26747 77.0707 1.54907C77.3046 1.83077 77.3981 2.15927 77.3981 2.53487C77.3981 2.91037 77.3513 3.61447 77.211 4.64717L76.6498 8.54337C76.5095 9.52907 76.3692 10.1863 76.229 10.5618C76.0419 10.8904 75.8548 11.1251 75.621 11.3129ZM74.4518 3.05117C74.4518 2.91037 74.3583 2.81647 74.2648 2.72257C74.1712 2.67567 73.9374 2.62877 73.6568 2.62877L72.628 9.90467C73.0489 9.90467 73.3294 9.81077 73.423 9.66997C73.5633 9.48217 73.6568 9.05967 73.7503 8.30867L74.3583 3.99007C74.4518 3.52057 74.4986 3.19207 74.4518 3.05117ZM81.1394 2.95727H83.0568L83.3842 0.75107H78.5673L77.024 11.8293H82.028L82.3553 9.62297H80.2508L80.5782 7.18207H82.3553L82.6359 5.06967H80.8588L81.1394 2.95727ZM90.212 1.68987C90.446 2.11237 90.493 2.81647 90.352 3.75537C90.212 4.60027 90.025 5.21047 89.791 5.49217C89.557 5.77377 89.09 5.96157 88.435 6.00847C88.996 6.14937 89.323 6.33707 89.511 6.57177C89.651 6.80647 89.744 7.04117 89.791 7.22897C89.791 7.41677 89.744 7.98007 89.651 8.87197L89.23 11.7823H86.564L87.079 8.07397C87.172 7.46367 87.172 7.13507 87.079 6.99427C86.985 6.85347 86.751 6.75957 86.377 6.75957L85.676 11.7823H82.823L84.366 0.70417H86.424C87.78 0.70417 88.669 0.751069 89.136 0.844969C89.604 0.985769 89.978 1.26747 90.212 1.68987ZM87.64 2.81647C87.546 2.72257 87.313 2.62877 86.985 2.62877L86.658 5.11657C86.985 5.11657 87.219 5.06967 87.359 4.97577C87.5 4.88187 87.593 4.60027 87.687 4.13087L87.78 3.52057C87.78 3.14507 87.733 2.91037 87.64 2.81647ZM61.0299 15.9601L59.4867 13.5661H59.0658V16.4764H59.4399V14.1294L60.9832 16.4764H61.4041V13.613H61.0299V15.9601ZM63.5553 15.209H65.0518V14.8804H63.5553V13.9416H65.1921V13.613H63.1812V16.5234H65.1921V16.1948H63.5553V15.209ZM66.5016 13.9416H67.4837V16.5234H67.8578V13.9416H68.8399V13.613H66.5016V13.9416ZM72.7215 16.054L72.0668 13.613H71.6459L70.9911 16.054L70.4299 13.613H70.0558L70.8041 16.5234H71.225L71.8797 14.0824L72.5344 16.5234H72.9553L73.7503 13.613H73.3762L72.7215 16.054ZM77.7255 14.5049C77.7722 14.6927 77.819 14.8804 77.819 15.0682C77.819 15.256 77.7722 15.4437 77.7255 15.6315C77.6787 15.8193 77.5852 15.9601 77.4449 16.1009C77.3046 16.2417 77.1643 16.3356 77.024 16.4295C76.8369 16.5234 76.6498 16.5703 76.416 16.5703C76.1822 16.5703 75.9951 16.5234 75.8081 16.4295C75.621 16.3356 75.4807 16.2417 75.3872 16.1009C75.2469 15.9601 75.2001 15.7723 75.1066 15.6315C75.0598 15.4437 75.013 15.256 75.013 15.0682C75.013 14.8804 75.0598 14.6927 75.1066 14.5049C75.1533 14.3171 75.2469 14.1763 75.3872 14.0355C75.5275 13.8947 75.6678 13.8008 75.8081 13.7069C75.9951 13.613 76.1822 13.5661 76.416 13.5661C76.6498 13.5661 76.8369 13.613 77.024 13.7069C77.211 13.8008 77.3513 13.8947 77.4449 14.0355C77.5852 14.1294 77.6787 14.3171 77.7255 14.5049ZM77.4449 15.0682C77.4449 14.9274 77.4449 14.7866 77.3981 14.6457C77.3513 14.5049 77.3046 14.3641 77.211 14.2702C77.1175 14.1763 77.024 14.0824 76.8837 13.9886C76.7434 13.9416 76.6031 13.8947 76.416 13.8947C76.229 13.8947 76.0886 13.9416 75.9483 13.9886C75.8081 14.0355 75.7145 14.1294 75.621 14.2702C75.5275 14.3641 75.4807 14.5049 75.4339 14.6457C75.3872 14.7866 75.3872 14.9274 75.3872 15.0682C75.3872 15.209 75.3872 15.3499 75.4339 15.4907C75.4807 15.6315 75.5275 15.7723 75.621 15.8662C75.7145 15.9601 75.8081 16.054 75.9483 16.1479C76.0886 16.1948 76.229 16.2417 76.416 16.2417C76.6031 16.2417 76.7434 16.1948 76.8837 16.1479C77.024 16.1009 77.1175 16.007 77.211 15.8662C77.3046 15.7723 77.3513 15.6315 77.3981 15.4907C77.3981 15.3499 77.4449 15.209 77.4449 15.0682ZM81.7006 16.3356C81.7006 16.3826 81.7474 16.4764 81.7941 16.5234H81.3732C81.3265 16.4764 81.3265 16.4295 81.3265 16.3826C81.3265 16.3356 81.3265 16.2887 81.3265 16.1948C81.3265 16.1479 81.3265 16.054 81.3265 16.007C81.3265 15.9132 81.3265 15.8662 81.2797 15.7723C81.2797 15.6784 81.2329 15.6315 81.2329 15.5846C81.2329 15.5376 81.1862 15.4437 81.1394 15.3968C81.0926 15.3499 81.0459 15.3029 80.9991 15.3029C80.9523 15.256 80.8588 15.256 80.7653 15.256H79.8299V16.5234H79.4558V13.613H80.812C81.0926 13.613 81.3265 13.66 81.4668 13.8008C81.6071 13.9416 81.7006 14.1294 81.7006 14.3641C81.7006 14.5519 81.6538 14.6927 81.5603 14.8335C81.4668 14.9743 81.3732 15.0682 81.1862 15.1151C81.2797 15.1151 81.3265 15.1621 81.3732 15.209C81.42 15.256 81.4668 15.3029 81.5135 15.3499C81.5603 15.3968 81.5603 15.4437 81.5603 15.5376C81.5603 15.5846 81.6071 15.6784 81.6071 15.7254C81.6071 15.8193 81.6071 15.8662 81.6071 15.9601C81.6071 16.054 81.6071 16.1009 81.6071 16.1948C81.6538 16.2417 81.6538 16.2887 81.7006 16.3356ZM81.2329 14.6927C81.2797 14.6457 81.2797 14.5519 81.2797 14.411C81.2797 14.2702 81.2329 14.1294 81.1394 14.0355C81.0459 13.9416 80.9056 13.8947 80.7653 13.8947H79.7832V14.9274H80.5782C80.6717 14.9274 80.7653 14.9274 80.812 14.9274C80.9056 14.9274 80.9523 14.8804 81.0459 14.8335C81.1394 14.8335 81.1862 14.7396 81.2329 14.6927ZM85.722 13.613H85.208L83.7115 15.0682V13.613H83.3374V16.5234H83.7115V15.4907L84.179 15.0213L85.255 16.5234H85.722L84.46 14.7866L85.722 13.613ZM89.09 15.1151C88.996 15.0682 88.903 15.0213 88.809 14.9743C88.716 14.9274 88.575 14.9274 88.482 14.8804C88.388 14.8335 88.248 14.8335 88.154 14.7866C88.061 14.7866 87.92 14.7396 87.874 14.6927C87.78 14.6457 87.733 14.5988 87.64 14.5519C87.593 14.5049 87.546 14.411 87.546 14.3171C87.546 14.2233 87.546 14.1294 87.593 14.0824C87.64 14.0355 87.687 13.9886 87.733 13.9416C87.78 13.8947 87.874 13.8947 87.92 13.8477C88.014 13.8477 88.061 13.8008 88.154 13.8008C88.341 13.8008 88.528 13.8477 88.669 13.9416C88.809 14.0355 88.856 14.1763 88.903 14.411H89.277C89.277 14.2702 89.23 14.1294 89.183 13.9886C89.136 13.8947 89.043 13.7539 88.949 13.7069C88.856 13.613 88.762 13.5661 88.622 13.5191C88.482 13.4722 88.341 13.4722 88.201 13.4722C88.061 13.4722 87.92 13.4722 87.827 13.5191C87.687 13.5661 87.593 13.613 87.5 13.66C87.406 13.7069 87.313 13.8008 87.266 13.9416C87.219 14.0355 87.172 14.1763 87.172 14.3171C87.172 14.458 87.219 14.5519 87.266 14.6457C87.313 14.7396 87.406 14.7866 87.5 14.8804C87.593 14.9274 87.687 14.9743 87.78 15.0213C87.874 15.0682 88.014 15.0682 88.108 15.1151C88.201 15.1621 88.341 15.1621 88.435 15.209C88.528 15.256 88.669 15.256 88.716 15.3029C88.809 15.3499 88.856 15.3968 88.949 15.4437C88.996 15.4907 89.043 15.5846 89.043 15.6784C89.043 15.7723 89.043 15.8662 88.996 15.9601C88.949 16.007 88.903 16.1009 88.809 16.1009C88.716 16.1479 88.669 16.1479 88.575 16.1948C88.482 16.1948 88.388 16.2417 88.295 16.2417C88.201 16.2417 88.061 16.2417 87.967 16.1948C87.874 16.1479 87.78 16.1479 87.687 16.054C87.593 16.007 87.546 15.9132 87.5 15.8193C87.453 15.7254 87.406 15.6315 87.406 15.4907H87.032C87.032 15.6784 87.079 15.8193 87.125 15.9601C87.172 16.1009 87.266 16.1948 87.406 16.2887C87.5 16.3826 87.64 16.4295 87.78 16.4764C87.92 16.5234 88.061 16.5234 88.248 16.5234C88.388 16.5234 88.528 16.5234 88.669 16.4764C88.809 16.4295 88.903 16.3826 89.043 16.3356C89.136 16.2887 89.23 16.1948 89.323 16.054C89.37 15.9601 89.417 15.8193 89.417 15.6315C89.417 15.4907 89.37 15.3499 89.323 15.256C89.277 15.256 89.183 15.209 89.09 15.1151ZM94 1.78377C94 1.97157 93.953 2.15927 93.907 2.34707C93.813 2.53487 93.719 2.67567 93.626 2.76957C93.486 2.91037 93.345 3.00427 93.205 3.05117C93.065 3.09817 92.878 3.14507 92.691 3.14507C92.504 3.14507 92.317 3.09817 92.129 3.05117C91.942 2.95727 91.802 2.86347 91.709 2.76957C91.568 2.62877 91.475 2.48787 91.428 2.34707C91.381 2.15927 91.334 1.97157 91.334 1.78377C91.334 1.59597 91.381 1.40827 91.428 1.22047C91.521 1.03277 91.615 0.89187 91.709 0.79797C91.849 0.65717 91.989 0.563269 92.129 0.516369C92.317 0.469469 92.457 0.42247 92.644 0.42247C92.831 0.42247 92.971 0.469469 93.158 0.516369C93.299 0.563269 93.486 0.65717 93.579 0.79797C93.719 0.93887 93.813 1.07967 93.86 1.22047C93.953 1.40827 94 1.59597 94 1.78377ZM93.673 1.78377C93.673 1.59597 93.626 1.45517 93.579 1.31437C93.532 1.17357 93.439 1.03277 93.345 0.938869C93.252 0.844969 93.158 0.75107 93.018 0.70417C92.878 0.65717 92.737 0.61027 92.597 0.61027C92.457 0.61027 92.317 0.65717 92.176 0.70417C92.036 0.75107 91.942 0.844969 91.849 0.938869C91.755 1.03277 91.662 1.17357 91.615 1.31437C91.568 1.45517 91.521 1.59597 91.521 1.78377C91.521 1.92457 91.568 2.11237 91.615 2.25317C91.662 2.39407 91.755 2.53487 91.849 2.62877C91.942 2.72257 92.036 2.81647 92.176 2.86347C92.317 2.91037 92.457 2.95727 92.597 2.95727C92.737 2.95727 92.878 2.91037 93.018 2.86347C93.158 2.81647 93.252 2.72257 93.345 2.62877C93.439 2.53487 93.532 2.39407 93.579 2.25317C93.673 2.11237 93.673 1.97157 93.673 1.78377ZM92.831 1.92457L93.252 2.58177H92.971L92.597 1.92457H92.363V2.58177H92.129V1.03277H92.691C92.878 1.03277 93.018 1.07967 93.112 1.12657C93.205 1.17357 93.252 1.31437 93.252 1.45517C93.252 1.59597 93.205 1.68987 93.158 1.78377C93.065 1.87767 92.971 1.87767 92.831 1.92457ZM92.784 1.68987C92.831 1.68987 92.878 1.68987 92.878 1.64297C92.924 1.64297 92.924 1.59597 92.971 1.54907C93.018 1.50217 93.018 1.45517 93.018 1.40827C93.018 1.36127 93.018 1.31437 92.971 1.31437C92.971 1.26747 92.924 1.26747 92.878 1.26747C92.831 1.26747 92.831 1.22047 92.784 1.22047C92.737 1.22047 92.691 1.22047 92.691 1.22047H92.41V1.68987H92.691C92.691 1.68987 92.737 1.68987 92.784 1.68987ZM11.0369 2.72257C11.7384 3.70837 12.1593 4.88187 12.1593 6.19627C12.1593 9.52907 9.49358 12.2517 6.17318 12.2987C4.62998 12.2987 3.22697 11.7354 2.15137 10.7965L3.18018 6.99427H5.23787C5.23787 6.99427 5.05088 6.75957 4.95728 6.47787C4.81698 6.00847 4.95728 5.82077 4.95728 5.82077H3.46078L3.88168 4.31857C3.92848 4.17777 3.97517 4.03697 4.11547 3.89617C4.20907 3.75537 4.34937 3.66147 4.44287 3.52057C4.58317 3.42677 4.72348 3.33287 4.86378 3.28587C5.00408 3.23897 5.19117 3.19207 5.33147 3.19207C5.47167 3.19207 5.61198 3.23897 5.75228 3.28587C5.89258 3.33287 5.98618 3.42677 6.03288 3.52057C6.12647 3.61447 6.12648 3.75537 6.17318 3.89617C6.17318 4.03697 6.03288 4.78807 5.98618 4.78807H7.15528C7.20208 4.69417 7.38917 3.75537 7.34237 3.47367C7.29557 3.19207 7.20208 2.91037 7.06178 2.72257C7.01498 2.44097 6.78117 2.25317 6.54737 2.15927C6.31347 2.01847 6.03288 1.97157 5.70558 1.97157C5.37818 1.97157 5.05087 2.01847 4.72347 2.15927C4.39607 2.30017 4.11548 2.44097 3.83488 2.67567C3.55428 2.91037 3.32048 3.14507 3.13338 3.42677C2.94638 3.70837 2.80607 3.99007 2.71247 4.31857L2.33838 5.77377L2.01108 6.94737L1.21597 9.76377C0.514475 8.77807 0.046875 7.55757 0.046875 6.24317C0.046875 2.91037 2.71248 0.187769 6.03288 0.140869C7.57618 0.140869 9.02598 0.704169 10.1016 1.68987L9.02597 5.72687H7.52947C7.52947 5.72687 7.57618 5.96157 7.38918 6.33707C7.29558 6.57177 7.01497 6.90037 7.01497 6.90037H8.74537L8.32447 8.40247C8.27767 8.54337 8.23098 8.68417 8.09068 8.82497C7.99708 8.96577 7.85678 9.05967 7.76328 9.20047C7.62298 9.29437 7.48267 9.38827 7.34237 9.43527C7.20208 9.48217 7.01498 9.52907 6.87468 9.52907C6.73438 9.52907 6.59408 9.48217 6.45378 9.43527C6.31348 9.38827 6.21998 9.29437 6.17318 9.20047C6.07968 9.10667 6.07968 8.96577 6.03288 8.82497C6.03288 8.68417 6.17317 7.93307 6.21997 7.93307H5.05087C5.00407 8.02697 4.81698 8.96577 4.86378 9.24747C4.91058 9.52907 5.00408 9.81077 5.14437 9.99847C5.28467 10.2333 5.47168 10.3741 5.75228 10.5149C5.98618 10.6557 6.26678 10.7027 6.59408 10.7027C6.92148 10.7027 7.24888 10.6557 7.57618 10.5149C7.90358 10.3741 8.18418 10.2333 8.46478 9.99847C8.74537 9.76377 8.97917 9.52907 9.16628 9.24747C9.35328 8.96577 9.49358 8.68417 9.58718 8.35557L10.0081 6.85347L10.3354 5.67987L11.0369 2.72257ZM5.93937 7.36977C5.93937 7.36977 7.52947 6.33707 7.24887 5.67987C6.96827 5.02277 6.36027 5.67987 6.31347 5.72687C6.31347 5.72687 5.93938 5.02277 5.37818 5.67987C4.81698 6.29017 5.93937 7.36977 5.93937 7.36977Z" fill="#7A8C9F"/>
</svg>
