<svg width="80" height="21" viewBox="0 0 80 21" fill="none" xmlns="http://www.w3.org/2000/svg">
<path d="M41.6441 9.29622V16.445H37.2118C34.6382 16.445 34.6382 15.7301 34.6382 12.8706C34.6382 10.44 34.6382 9.29622 37.2118 9.29622H41.6441ZM46.7197 20.6628V0.0742188H41.6441V5.14992H37.2118C30.9209 5.14992 29.4911 7.29452 29.4911 12.8706C29.4911 18.1607 30.4919 20.6628 37.2833 20.6628H46.7197ZM55.1553 12.8706C55.1553 10.154 55.1553 9.29622 57.7288 9.29622H59.3016V5.14992H57.7288C51.4379 5.14992 50.0081 6.15072 50.0081 12.8706V20.6628H55.1553V12.8706ZM74.314 9.29622V16.445H69.8818C67.3082 16.445 67.3082 15.7301 67.3082 12.8706C67.3082 10.44 67.3082 9.29622 69.8818 9.29622H74.314ZM79.39 20.6628V5.14992H69.8818C63.5909 5.14992 62.1611 7.29452 62.1611 12.8706C62.1611 18.1607 63.1619 20.6628 69.9533 20.6628H79.39ZM9.51022 5.14992L9.54602 20.6628H14.6216V9.29622H18.482C21.0555 9.29622 21.0555 10.154 21.0555 12.8706V20.6628H26.2027V12.8706C26.2027 6.15072 24.7729 5.14992 18.482 5.14992H9.51022ZM5.68562 5.14992H0.574219V20.6628H5.68562V5.14992Z" fill="#7A8C9F"/>
</svg>
