<svg width="75" height="16" viewBox="0 0 75 16" fill="none" xmlns="http://www.w3.org/2000/svg">
<path d="M58.3982 7.5381L60.1842 3.6328C60.3364 3.2998 60.3364 3.2998 60.5402 3.2998C60.7699 3.2998 60.77 3.2998 60.8217 3.6558L61.3587 7.5351H58.3982V7.5381ZM63.2192 2.1023C62.9377 0.571801 62.9377 0.5718 60.7697 0.5718C58.7282 0.5718 58.7539 0.571801 58.1422 1.8208L53.5248 11.3887C52.8616 12.767 52.9648 12.8675 54.6734 12.8675C55.9999 12.8675 55.9741 12.8675 56.5369 11.6414L57.2776 10.0077H61.717L61.9467 11.6414C62.1247 12.8675 62.1765 12.8675 63.503 12.8675C64.9963 12.8675 65.1398 12.7612 64.8555 11.2852L63.2192 2.1023ZM52.6121 3.1733C53.6976 3.1733 53.7003 3.1618 53.9216 1.8725C54.1456 0.574499 54.1426 0.5718 53.1491 0.5718H47.6387C45.7005 0.5718 45.7377 0.571801 45.4047 2.5358L43.9889 10.7512C43.6329 12.8705 43.6529 12.8705 45.6457 12.8705H51.0298C52.1526 12.8705 52.1268 12.8705 52.3563 11.5954C52.5861 10.2689 52.5861 10.2689 51.5666 10.2689H46.9205L47.3025 7.8971H51.156C52.2013 7.8971 52.2013 7.8971 52.3821 6.6711C52.5861 5.4221 52.5861 5.4221 51.156 5.4221H47.7102L48.0923 3.1765H52.6121V3.1733ZM39.0614 0.5718H31.3397C30.2427 0.5718 30.2427 0.5718 30.0132 1.8725C29.7835 3.1733 29.8092 3.1733 30.78 3.1733H33.2955L31.8942 11.2882C31.6387 12.8705 31.6617 12.8705 33.0888 12.8705C34.3925 12.8705 34.47 12.8705 34.648 11.7477L36.1241 3.1733H38.5219C39.6044 3.1733 39.6044 3.1733 39.8314 1.8725C40.0576 0.574799 40.0576 0.5718 39.0614 0.5718ZM17.9498 0.5718C16.606 0.5718 16.58 0.5803 16.3878 1.6975L15.3712 7.6071C15.0897 9.3156 14.6275 10.3207 12.9677 10.3207C11.3079 10.3207 10.7422 9.3241 10.9979 7.7936L11.9627 2.1453C12.2182 0.563 12.1722 0.5718 10.7682 0.5718C9.3984 0.5718 9.3611 0.560301 9.1831 1.683L8.1666 7.6126C7.5836 10.9694 9.6512 13.0485 12.6089 13.0485C15.9255 13.0485 17.5968 11.5697 18.1568 8.0234L19.1675 2.151C19.4401 0.571799 19.3771 0.5718 17.9498 0.5718ZM6.5556 0.5718H3.1758C2.0703 0.5718 2.0703 0.571801 1.8435 1.8525C1.6168 3.1333 1.6455 3.1733 2.6245 3.1733H4.6288L3.5146 9.6659C3.2648 11.1247 2.6128 12.1037 0.6518 12.707C0.1523 12.8562 0 13.0572 0 13.284C0 13.5337 0.1005 13.7865 0.3015 14.3147C0.603 15.093 0.804 15.2422 1.0798 15.2422C1.3555 15.2422 1.858 15.09 2.033 15.0412C4.8213 14.1367 5.9268 12.0002 6.3776 9.4389L7.6381 2.1308C7.9139 0.5978 7.9139 0.5718 6.5556 0.5718ZM24.1609 10.2747C25.2491 10.2114 25.8207 9.7434 25.8207 9.2094C25.8207 8.5719 25.0309 8.3421 23.9829 8.0349C21.9153 7.3974 20.0776 6.6739 20.0776 4.4798C20.0806 1.9013 22.1996 0.5 24.8789 0.5C26.0017 0.5 27.2909 0.565999 28.1267 0.643499C28.8762 0.712499 29.014 0.979501 28.8217 2.1023C28.6292 3.2223 28.3679 3.3398 27.7477 3.2853C26.9752 3.2193 25.9759 3.1475 24.8101 3.1618C23.4319 3.179 23.0414 3.6471 23.0414 4.1296C23.0414 4.7153 23.5784 5.0483 24.8534 5.3786C27.2252 6.0678 28.7817 7.0011 28.7817 9.0426C28.7817 11.4404 26.9957 12.8445 24.1384 12.9565C22.5821 13.0167 21.2438 12.902 20.0581 12.7297C19.1478 12.5977 19.1163 12.5805 19.3431 11.2739C19.5498 10.0822 19.5786 9.9989 20.4141 10.0994C22.0246 10.2947 23.0726 10.3379 24.1609 10.2747ZM74.1082 0.5718H66.3865C65.2895 0.5718 65.2895 0.5718 65.0598 1.8725C64.83 3.1733 64.8558 3.1733 65.8265 3.1733H68.3421L66.9408 11.2882C66.6853 12.8705 66.7083 12.8705 68.1353 12.8705C69.4391 12.8705 69.5166 12.8705 69.6946 11.7477L71.1706 3.1733H73.5684C74.6509 3.1733 74.6509 3.1733 74.8779 1.8725C75.1044 0.574799 75.1017 0.5718 74.1082 0.5718Z" fill="#7A8C9F"/>
</svg>
