<svg width="39" height="40" viewBox="0 0 39 40" fill="none" xmlns="http://www.w3.org/2000/svg">
<path d="M19.5 39.5C30.2696 39.5 39 30.7696 39 20C39 9.2304 30.2696 0.5 19.5 0.5C8.7304 0.5 0 9.2304 0 20C0 30.7696 8.7304 39.5 19.5 39.5Z" fill="#7A8C9F"/>
<path d="M5.1783 19.9971C5.1783 11.065 10.8171 3.4492 18.7308 0.518799C8.32 0.924999 0 9.4888 0 20.0025C0 30.5271 8.3362 39.1017 18.7633 39.4863C10.8387 36.5613 5.1783 28.94 5.1783 19.9971Z" fill="url(#paint0_radial)"/>
<path d="M5.1783 19.9971C5.1783 11.065 10.8171 3.4492 18.7308 0.518799C8.32 0.924999 0 9.4888 0 20.0025C0 30.5271 8.3362 39.1017 18.7633 39.4863C10.8387 36.5613 5.1783 28.94 5.1783 19.9971Z" fill="#7A8C9F"/>
<path d="M19.1696 18.142C20.4642 14.9516 18.0429 14.085 16.4667 14.085H11.245C11.6783 14.3829 11.6079 14.7783 11.5213 15.022L8.47708 24.745C8.35788 25.1295 7.90288 25.5358 7.65918 25.5954H11.8842C11.6513 25.552 11.3208 25.2216 11.44 24.772L12.545 21.2566C12.5504 21.2566 17.6313 21.9445 19.1696 18.142ZM15.0638 14.9787C15.6163 14.9787 17.1492 15.0545 16.1579 17.9525C15.1233 20.9966 12.8267 20.3683 12.8267 20.3683L14.5167 14.9787H15.0638Z" fill="#EFF2FF"/>
<path d="M22.5482 25.6008H25.3919C24.4819 25.3083 23.1386 24.4471 22.6023 23.835C23.0357 23.3638 23.5719 22.7679 23.6694 21.56H22.1961C22.1961 21.56 22.4778 21.7225 22.4778 22.0692C22.4778 22.3887 22.3478 22.8329 22.0986 23.1417C21.6653 22.5025 21.2048 21.7712 21.0423 20.6987C21.6219 20.4117 22.4344 20.0975 23.079 19.5342C23.6911 18.9979 23.8319 18.4887 23.8428 18.1583V18.115C23.8428 17.7683 23.7073 17.4433 23.4582 17.1996C23.0303 16.7771 22.3586 16.6037 21.649 16.7337C21.0803 16.8421 20.5982 17.1454 20.3544 17.3675C19.4986 18.1746 19.3903 19.5017 19.3903 20.1029C19.3903 20.2492 19.3957 20.3575 19.4011 20.4225C19.3523 20.4442 19.2657 20.4767 19.2657 20.4767C18.6373 20.7096 16.9636 21.1537 16.3678 22.5296C16.2919 22.7029 16.1836 23.0821 16.1836 23.5208C16.1836 23.9 16.2648 24.3225 16.5086 24.7071C16.9311 25.3679 17.6461 25.785 18.7944 25.7633C20.0403 25.7417 21.2698 24.8913 21.4865 24.7342C21.6978 24.9346 22.2557 25.46 22.5482 25.6008ZM22.5482 17.9092C22.4019 18.8354 21.1994 19.7725 20.9069 19.8971C20.8528 19.3771 20.8798 18.5537 21.3132 17.8821C21.6003 17.4379 21.9848 17.2429 22.2936 17.3512C22.5428 17.4379 22.5698 17.6654 22.5482 17.9092ZM20.8798 24.1058C20.7119 24.2088 20.0511 24.5446 19.4336 24.6042C18.8594 24.6583 17.9061 24.4363 17.9115 23.2879C17.9115 22.3075 18.9786 21.5871 19.5582 21.3379C19.7911 22.2858 20.3165 23.3583 20.8798 24.1058Z" fill="#EFF2FF"/>
<path d="M31.1892 14.9895C32.8792 14.5832 34.2713 15.9049 34.3958 15.997L34.8779 14.4641C34.2117 14.2637 29.3637 12.6224 25.935 16.5332C23.8279 18.9382 23.3133 23.8674 25.9837 25.1891C28.8437 26.6028 32.0017 24.9724 32.2346 24.8586L33.54 20.6987C33.6808 20.1949 34.0004 19.8699 34.5637 19.6587H30.0246C30.6854 19.9349 30.6367 20.4332 30.5879 20.6391L29.2825 24.7991C29.1092 24.8316 25.4583 25.7416 27.5004 19.3553C27.95 17.9849 29.1796 15.4716 31.1892 14.9895Z" fill="#EFF2FF"/>
<defs>
<radialGradient id="paint0_radial" cx="0" cy="0" r="1" gradientUnits="userSpaceOnUse" gradientTransform="translate(5.6199 3.5094) scale(60.3818)">
<stop offset="0.02" stop-color="white"/>
<stop offset="0.03" stop-color="#FBFEFF"/>
<stop offset="0.09" stop-color="#BAE7F9"/>
<stop offset="0.14" stop-color="#87D5F4"/>
<stop offset="0.19" stop-color="#63C9F1"/>
<stop offset="0.23" stop-color="#4CC1EF"/>
<stop offset="0.26" stop-color="#44BEEE"/>
<stop offset="0.28" stop-color="#37B8EB"/>
<stop offset="0.35" stop-color="#19ACE5"/>
<stop offset="0.41" stop-color="#07A4E0"/>
<stop offset="0.45" stop-color="#00A1DF"/>
<stop offset="0.79" stop-color="#0045AB"/>
<stop offset="0.82" stop-color="#003DA6"/>
<stop offset="0.96" stop-color="#0059B6"/>
</radialGradient>
</defs>
</svg>
