<svg width="80" height="40" viewBox="0 0 80 40" fill="none" xmlns="http://www.w3.org/2000/svg">
<path d="M6.9497 39.9046L6.7713 39.8787L6.5993 39.8203L6.4696 39.7489L6.3268 39.6224L6.2003 39.4536L6.1159 39.2784L6.0575 39.0805L6.0348 38.941V38.7042L6.077 38.2791L6.2068 37.494L6.4241 36.4298L6.5864 35.5894L6.6415 35.2001L6.6221 35.1514L6.515 35.0995L6.0672 34.9178L5.4411 34.6161L4.7435 34.204L4.3184 33.9185L3.7636 33.4935L3.4295 33.195L3.0726 32.8381L2.7968 32.5396L2.3782 32.0497L2.2874 31.9329L2.1122 31.7057L1.6871 31.1087L1.6093 30.9887L1.4568 30.7551L1.4179 30.7259L1.4049 30.7454L1.4114 30.8946L1.4535 31.3002L1.5379 31.8615L1.7618 32.8478L1.8169 33.2307L1.8267 33.62L1.8137 33.8212L1.7747 34.0223L1.7066 34.2202L1.6385 34.337L1.5411 34.4733L1.4081 34.6063L1.2621 34.7004L1.1226 34.7588L0.9863 34.7848L0.8144 34.7815L0.678101 34.7394L0.5581 34.6777L0.428301 34.5771L0.3309 34.4766L0.2206 34.2819L0.132999 34.045L0.0972996 33.766V33.3961L0.129801 33.0749L0.282301 32.3157L0.460699 31.5987L0.5159 31.3002L0.538601 31.0666L0.5548 31.0049L0.5937 30.6221L0.606701 29.9342L0.584 29.4768L0.567801 29.3502L0.5548 29.1231L0.4802 28.7111L0.454201 28.5651L0.2985 27.9453L0.1525 27.3354L0.0389004 26.4853L0 25.8689L0.00650024 25.3984L0.0130005 25.3303V25.0577L0.0259991 24.7365L0.0389004 24.6522L0.0583992 24.3894L0.1395 23.7729L0.246599 23.1986L0.3666 22.699L0.5418 22.1117L0.684601 21.6899L0.944201 21.0475L1.2005 20.5089L1.5055 19.9509L1.6904 19.6426L2.0311 19.1332L2.4237 18.6174L2.7351 18.2442L2.8065 18.1696L2.9071 18.0561L3.2997 17.6602L3.3905 17.5824L3.7474 17.2579L4.2568 16.8621L4.4807 16.6999L4.7435 16.5214L4.7629 16.4825L4.7532 16.4338L4.6591 16.2619L4.6072 16.0964L4.5715 15.8368L4.578 15.6454L4.6364 15.3858L4.7273 15.1782L4.8733 14.9348L5.016 14.7596L5.2983 14.4936L5.4443 14.3898L5.4703 14.3508L5.4573 14.3119L5.3437 14.2211L5.2302 14.0621L5.175 13.942L5.1555 13.8447L5.149 13.663L5.1815 13.4975L5.2594 13.3029L5.3437 13.1698L5.4767 13.0206L5.5871 12.92L5.7979 12.7837L5.9991 12.6994L6.2944 12.6118L6.5993 12.5631L6.82 12.5599L7.0438 12.5501L7.0601 12.5274L7.0471 12.4885L6.9822 12.3911L6.9076 12.2387L6.8751 12.0991L6.8719 11.9596L6.8913 11.8493L6.9433 11.7293L7.0211 11.6125L7.125 11.5086L7.2807 11.4113L7.4105 11.3659L7.511 11.3464H7.7382L7.8971 11.3789L8.1535 11.4697L8.3741 11.5898L8.5201 11.6838L8.7505 11.8785L8.9127 12.0472L9.1787 12.3976L9.3312 12.641L9.435 12.8356L9.4675 12.8681L9.4805 12.8324L9.4675 12.6475L9.3929 12.2354L9.315 11.6417L9.2469 11.2264L9.1495 10.85L9.0944 10.6975L9.0262 10.6002L8.9516 10.5418L8.8608 10.4639L8.8056 10.3601L8.7764 10.2238L8.7602 10.094L8.7083 10.0194L8.6045 9.8961L8.4455 9.7177L8.3773 9.6755L8.3092 9.669L8.2021 9.6982L8.1275 9.6885L8.0529 9.6366L7.9361 9.5165L7.8907 9.497L7.842 9.51L7.7187 9.6106L7.67 9.6301L7.6084 9.6203L7.5305 9.5717L7.3002 9.3316L6.9465 8.8708L6.6318 8.3647L6.4825 8.0889L6.3203 7.7093L6.1256 7.1805L6.051 7.0637L5.8174 6.7911L5.4021 6.3596L4.9284 5.8664L4.8246 5.795L4.7402 5.7658L4.5942 5.7399L4.5229 5.701L4.4612 5.6036L4.4158 5.4446L4.3898 5.2337L4.3963 5.0942L4.4547 4.773L4.5229 4.5686L4.6494 4.2766L4.8408 3.9067L5.0842 3.4817L5.3178 3.1378L5.5643 2.8133L5.8985 2.4175L5.9439 2.3721L6.1938 2.119L6.6253 1.7394L6.8427 1.5674L7.0958 1.3825L7.3391 1.2235L7.7901 0.9445L8.3027 0.7076L8.7148 0.5779L9.0392 0.513L9.2955 0.5L9.5194 0.5324L9.6751 0.5844L9.7563 0.6395L9.7952 0.7012L9.8147 0.8212L9.7919 0.9575L9.8082 1.0191L9.8763 1.11L10.2819 1.5674L10.4798 1.7783L10.9178 2.265L11.1157 2.4662L11.2228 2.5343L11.531 2.6511L11.823 2.7906L12.0566 2.9269L12.4297 3.1897L12.7737 3.4655L13.2246 3.9003L13.3804 4.0982L13.4128 4.1598L13.4096 4.2215L13.3739 4.2863L13.2798 4.3999L13.2863 4.4551L13.3414 4.5297L13.4582 4.6887L13.4907 4.7763L13.481 4.8476L13.429 4.9515L13.4226 4.9969L13.4712 5.078L13.6594 5.2759L13.7665 5.3668L13.8768 5.4284L14.0228 5.4544L14.1007 5.4998L14.1785 5.6198L14.2142 5.7074L14.2304 5.8242L14.2175 5.9605L14.1785 6.1065L14.0942 6.3336L13.919 6.6776L13.6854 7.0734L13.4485 7.4173L13.137 7.8326L12.8418 8.17L12.5465 8.4945L12.141 8.8838L12.0469 8.9617L11.956 9.0428L11.4694 9.4289L11.0443 9.7306L10.9957 9.7955L10.9762 9.8734L10.9535 11.5184L10.947 11.8623L10.9113 12.8097L10.9178 12.8324H10.9437L11.0054 12.7253L11.0833 12.5826L11.1709 12.4366L11.2747 12.2776L11.4466 12.0634L11.6478 11.8428L11.703 11.7974L11.8619 11.6741L12.0761 11.5378L12.2448 11.4567L12.4719 11.3886L12.6439 11.3594L12.8807 11.3724L13.0073 11.4081L13.1662 11.4794L13.2895 11.567L13.4193 11.7066L13.4874 11.8396L13.5394 11.9953L13.5491 12.1575L13.5166 12.2938L13.4712 12.4041L13.3934 12.5307V12.5501L13.4226 12.5631H13.6951L13.9222 12.6085L14.1526 12.6994L14.2824 12.7772L14.4186 12.9103L14.4965 13.0303L14.5711 13.1925L14.6003 13.3321L14.6068 13.4716L14.5744 13.6241L14.5192 13.7441L14.4316 13.8642L14.2986 13.9712L14.1753 14.0394L14.1623 14.0653L14.185 14.0913L14.344 14.1529L14.4543 14.2146L14.6522 14.3281L15.0059 14.5974L15.2849 14.8862L15.4147 15.0776L15.5055 15.2723L15.5542 15.4572L15.5737 15.6L15.5672 15.7849L15.5315 15.9634L15.4601 16.1418L15.366 16.2878L15.353 16.3332L15.3693 16.3722L16.281 16.9984L16.6768 17.3033L16.9104 17.5045L17.0661 17.631L17.4912 18.0398L17.8513 18.4389L18.0947 18.7244L18.3639 19.0619L18.6138 19.409L18.9415 19.9184L19.3957 20.7166L19.7137 21.4206L19.8726 21.8489L19.9116 21.956L19.9862 22.1734L20.0024 22.248L20.1419 22.7055L20.1679 22.8093L20.2685 23.2505L20.382 23.9903L20.4469 24.5581L20.4859 25.2167L20.4794 25.9305L20.4307 26.9006L20.3723 27.4489L20.3366 27.6825L20.2782 28.0265L20.2458 28.2438L20.1711 28.6981L20.1419 29.0809L20.1452 29.1977L20.1419 29.2626V30.0186L20.1679 30.3658L20.1841 30.5312L20.1809 30.5799L20.1971 30.8038L20.1874 31.0049L20.2003 31.0698L20.1809 31.125L20.116 31.7122L20.0576 32.0399L19.9765 32.426L19.9473 32.5136L19.8305 32.9257L19.6974 33.3312L19.6326 33.5259L19.6001 33.5584H19.5482L19.5093 33.5194L19.4671 33.3767L19.3827 32.9062L19.2432 32.3579L18.9285 31.245L18.896 30.9692L18.8831 30.9465H18.8701L18.8312 30.9919L18.6981 31.2191L18.338 31.7252L17.9746 32.1762L17.7832 32.3903L17.2705 32.9127L17.1213 33.049L16.7579 33.3734L16.4627 33.6135L16.0376 33.9315L15.499 34.2884L15.0253 34.5706L14.5322 34.8205L13.9676 35.0638L13.4355 35.252L12.9034 35.4045L12.4816 35.5116L11.849 35.6348L11.1709 35.7257L10.6128 35.7711L9.7433 35.7646L9.4545 35.7419L9.2955 35.7354L8.5525 35.6446L7.7933 35.4888L7.3066 35.3623L7.2807 35.3818L7.2742 35.4077L7.2807 35.557L7.3002 35.677L7.3553 36.0404L7.7057 37.7827L7.7576 38.1137L7.8031 38.4122L7.816 38.8599L7.8031 39.0708L7.7511 39.2979L7.6538 39.5088L7.5338 39.658L7.4105 39.7716L7.2937 39.8397L7.125 39.8884L6.9497 39.9046Z" fill="#7A8C9F"/>
<path d="M6.99992 39.4504L6.87022 39.4472L6.72412 39.4017L6.61712 39.3335L6.52302 39.2168L6.44842 39.0611L6.39972 38.8405L6.38672 38.6652L6.42572 38.2207L6.49382 37.8249L6.55872 37.4972L6.56522 37.4128L6.66572 36.9132L6.77932 36.2611L6.79232 36.1539L6.83772 35.9593L6.92532 35.4693L6.93832 35.45L6.95452 35.4823L7.00322 35.7938L7.07782 36.3292L7.31142 37.5458L7.34392 37.7438L7.40552 38.1428L7.43792 38.4868L7.44772 38.7658L7.41522 39.0124L7.35682 39.1843L7.27902 39.3012L7.19142 39.3791L7.06162 39.4375L6.99992 39.4504Z" fill="#EFF2FF"/>
<path d="M19.4328 38.7788L19.2284 38.7496L19.0824 38.7042L18.9559 38.6263L18.8229 38.5062L18.7223 38.3505L18.6606 38.211L18.6184 38.0488L18.6055 37.8152L18.6087 37.747L18.6055 37.6951L18.6379 37.3739L18.7482 36.8256L18.8813 36.3389L18.9526 36.1053L19.05 35.7517L19.2576 35.0443L19.4231 34.2981L19.5042 33.8179L19.5269 33.779L19.5594 33.7595L19.5918 33.7693L19.6145 33.8049L19.634 33.9217L19.6534 34.1618L19.6794 34.5285L19.7248 34.8529L19.741 35.0151L19.8222 35.5116L19.8546 35.6997L19.9747 36.2578L20.1401 37.0884L20.1823 37.4875L20.192 37.7925L20.1726 38.0358L20.1239 38.2045L20.046 38.3765L19.9584 38.4965L19.8643 38.6068L19.7638 38.6782L19.634 38.7399L19.5042 38.7723L19.4328 38.7788Z" fill="#7A8C9F"/>
<path d="M2.55527 38.4771L2.34107 38.4707L2.15937 38.4285L1.98747 38.3441L1.87387 38.2533L1.77327 38.1462L1.66947 37.984L1.61427 37.8282L1.56567 37.6498L1.54297 37.3773L1.54617 37.1566L1.60137 36.7219L1.73437 36.0762L1.87067 35.4857L1.97447 35.0704L2.04587 34.7395L2.09447 34.5286L2.14637 34.2625L2.32167 33.4384L2.43847 32.7019L2.45137 32.5462L2.48057 32.4943L2.50977 32.4878L2.54227 32.5007L2.55847 32.5592L2.61687 33.0328L2.73697 33.7564L2.98027 34.9147L3.09377 35.3819L3.10357 35.4403L3.15217 35.6577L3.23337 36.0827L3.28847 36.3423L3.35987 36.8679L3.37607 37.215L3.36637 37.5038L3.32417 37.7342L3.24957 37.9483L3.18787 38.0683L3.08407 38.2014L3.01917 38.2695L2.98347 38.3019L2.79857 38.4123L2.64927 38.4609L2.55527 38.4771Z" fill="#7A8C9F"/>
<path d="M19.4295 38.3473L19.2932 38.3376L19.2121 38.3019L19.1115 38.2143L19.0531 38.1267L18.998 37.9709L18.972 37.8282L18.9688 37.5556L19.0043 37.309L19.0336 37.1663L19.0661 36.9716L19.2186 36.3325L19.3516 35.849L19.4781 35.252L19.4976 35.2261L19.5301 35.3364L19.5787 35.7614L19.6696 36.446L19.7215 36.7445L19.8188 37.4875L19.8252 37.6789L19.8188 37.7243V37.8022L19.7929 37.9515L19.7408 38.0942L19.6631 38.2175L19.556 38.2986L19.4295 38.3473Z" fill="#EFF2FF"/>
<path d="M2.45119 38.0294L2.32469 38.023L2.22079 37.9905L2.11699 37.9256L2.01969 37.8218L1.94829 37.7017L1.89309 37.5265L1.87039 37.4097L1.86719 37.2086L1.92229 36.8127L2.05859 36.1866L2.27919 35.3397L2.53559 34.1717L2.54849 34.1555L2.56479 34.2042L2.61339 34.6714L2.68799 35.0964L2.70749 35.2456L2.84379 35.9692L2.88599 36.3001L2.91519 36.4948L2.95409 36.8874V37.2508L2.89889 37.5557L2.84699 37.692L2.76919 37.8283L2.67179 37.9321L2.55499 38.0035L2.45119 38.0294Z" fill="#EFF2FF"/>
<path d="M10.7606 35.4693L10.6568 35.4531L10.4459 35.385L10.3778 35.3428L10.3323 35.2714L10.3031 35.1708L10.2545 35.0475L10.2025 35.0021L10.1312 34.9632L10.0857 34.9015L10.063 34.642L10.0533 34.3922L10.0273 34.1423L10.0403 34.1034L10.1247 34.0774L10.2285 34.0645H10.368L10.3972 34.0807L10.355 34.1942L10.3615 34.3792L10.3778 34.4311L10.4751 34.5544L10.5465 34.5933L10.6243 34.603L10.6827 34.5836L10.7801 34.4798L10.8255 34.4603L10.9358 34.4343L10.9553 34.4408L10.9585 34.5057L10.9553 34.5609L10.9975 34.6647L11.0364 34.749L11.0299 34.8302L11.0202 34.8918L11.0461 34.9859L11.1143 35.08L11.1175 35.1416L11.0786 35.2455L11.0169 35.346L10.9747 35.3979L10.9196 35.4272L10.8125 35.4564L10.7606 35.4693Z" fill="#EFF2FF"/>
<path d="M8.98613 35.463L8.90493 35.4597L8.81733 35.4403L8.72653 35.4305L8.70703 35.4143L8.76543 35.3819L9.06723 35.2748L9.17103 35.2229L9.22623 35.1547L9.28463 35.0477L9.33973 35.0152L9.45333 34.999L9.54093 35.0022L9.55393 35.0217L9.54413 35.0477L9.50843 35.0704L9.38513 35.1093L9.35273 35.1482L9.31703 35.2748L9.27483 35.3299L8.98613 35.463Z" fill="#EFF2FF"/>
<path d="M9.67509 34.9081L9.61669 34.9049L9.60049 34.84L9.59399 34.7005L9.61349 34.4896L9.60369 34.376L9.6102 34.3079L9.63619 34.1814L9.65559 34.1197L9.68479 34.1035H9.8341L9.86979 34.1262L9.88919 34.1943L9.92819 34.5253L9.93469 34.7946L9.91519 34.84L9.87949 34.8595L9.67509 34.9081Z" fill="#EFF2FF"/>
<path d="M12.253 34.5285L12.1524 34.5188L12.0486 34.4734L11.9447 34.3793L11.8896 34.2852L11.8085 34.0808L11.7728 33.8277L11.7695 33.6038L11.7987 33.1821L11.8766 32.7862L11.9123 32.6597L11.922 32.6013L11.9512 32.4683L12.0291 32.1471L12.0583 32.0238L12.1913 31.4041L12.2335 31.138L12.2497 31.1348L12.2692 31.2094L12.3146 31.4884L12.386 31.8648L12.4768 32.2444L12.5385 32.452L12.6164 32.7635L12.6942 33.1821L12.7169 33.4805L12.7104 33.8634L12.6683 34.0775L12.5936 34.2625L12.5223 34.3793L12.4314 34.4571L12.3276 34.5091L12.253 34.5285Z" fill="#EFF2FF"/>
<path d="M1.01234 34.2916L0.915045 34.2883L0.830645 34.2526L0.710644 34.1618L0.619743 34.0353L0.564644 33.9055L0.522444 33.7076L0.502943 33.4934L0.509443 33.2144L0.571144 32.7764L0.733343 32.0009L0.827444 31.5662L0.843643 31.4656L0.889044 31.1541L0.908545 30.9692L0.928043 30.8751L0.963644 30.4793V29.8044L0.918243 29.3567L0.811243 28.698L0.671644 27.8966L0.603544 27.517L0.434843 26.362L0.402344 25.8526L0.428345 24.7494L0.571144 23.6496L0.684645 23.0915L0.798244 22.647L0.973444 22.0857L1.17784 21.5276L1.49254 20.8106L1.81704 20.2071L2.24204 19.529L2.51784 19.1429L2.88124 18.6952L3.27704 18.2604L3.70204 17.8354L4.15624 17.4493L4.50994 17.1832L4.88304 16.9302L5.03234 16.8361L5.06474 16.7907L5.11344 16.7874L5.17184 16.7647L5.24644 16.7712L5.40864 16.8069L5.59034 16.8004L5.73634 16.7679L5.89864 16.6998L6.06404 16.5992L6.21654 16.4759L6.28464 16.4078L6.33014 16.411L6.36254 16.4597L6.43394 16.5603L6.50534 16.6284L6.62214 16.6966L6.75834 16.7452L6.82004 16.755L7.02444 16.7485L7.16394 16.7063L7.28724 16.6382L7.42674 16.5311L7.68304 16.2586L8.07564 15.7784L8.20224 15.6713L8.33524 15.5934L8.46824 15.5415L8.58184 15.5058L8.61104 15.4701L8.60124 15.428L8.52014 15.3988L8.43904 15.3955L8.27354 15.4215L8.12434 15.4799L7.97834 15.5642L7.83884 15.6778L7.49494 16.0314L7.39434 16.145L7.24184 16.265L7.14124 16.304L7.01144 16.3137L6.88494 16.2813L6.81354 16.2358L6.75514 16.1645L6.71294 16.0379V15.9276L6.75514 15.7492L6.85894 15.5383L6.99204 15.3728L7.13474 15.243L7.30994 15.1165L7.50134 15.0191L7.78044 14.9186L8.00104 14.8731L8.33844 14.8537L8.66944 14.8894L8.89974 14.9478L9.27614 15.1003L9.44484 15.1976L9.68174 15.3825L9.74334 15.4669L9.80824 15.561L9.83744 15.5772L9.87964 15.5675L9.90234 15.5285L9.92184 15.4117V14.5195L9.88934 13.7765L9.85694 13.2671L9.83414 13.0854L9.80494 12.6312L9.77904 12.3976L9.69794 11.5605L9.62654 11.0868L9.56814 10.837L9.48374 10.5742L9.40594 10.4314L9.28264 10.2854L9.23724 10.1881L9.22744 10.1524L9.23074 10.0194L9.30534 9.73385L9.45134 9.38345L9.64274 9.04285L9.92184 8.62755L10.1975 8.26415L10.5382 7.88455L10.9924 7.42375L11.1612 7.27125L11.3785 7.07335L11.7549 6.76835L12.2091 6.43425L12.7055 6.12275L13.0268 5.95405L13.2441 5.85665L13.4356 5.79825L13.601 5.79175L13.6854 5.82095L13.747 5.89885L13.7633 5.99295L13.7276 6.19415L13.601 6.47315L13.2279 7.05065L13.0462 7.28755L12.9521 7.40435L12.7445 7.66065L12.3454 8.10185L11.9366 8.51715L11.2844 9.07205L10.8951 9.36075L10.7102 9.53275L10.6355 9.65275L10.5966 9.75015L10.5869 9.85065L10.5999 11.1809L10.6193 11.58L10.6128 11.6416L10.6193 11.7422V12.6474L10.5966 13.8154L10.5869 13.9452L10.5512 14.7174L10.5155 15.3825L10.5317 15.4409L10.5577 15.4604H10.6063L10.8983 15.2528L11.0411 15.1781L11.265 15.0873L11.4499 15.0419L11.5505 15.0289L11.7971 15.0321L11.9496 15.0711L12.0729 15.123L12.2254 15.2203L12.3259 15.3209L12.4298 15.4831L12.4719 15.6097L12.4784 15.7427L12.4525 15.9017L12.3941 16.0314L12.2967 16.145L12.1248 16.2586L11.9885 16.3137L11.9528 16.3494L11.9723 16.3883L12.0145 16.4175L12.115 16.4273L12.2805 16.4013L12.4362 16.3397L12.5595 16.2521L12.6828 16.1126L12.7575 15.9698L12.8094 15.8043L12.8223 15.6713L12.8029 15.5058L12.7672 15.4052L12.6991 15.269L12.6796 15.23L12.725 15.2365L12.9099 15.3598L13.0073 15.4312L13.2214 15.6032L13.3285 15.7037L13.6465 16.0055L13.8054 16.158L14.0618 16.3721L14.2759 16.5149L14.4381 16.5927L14.5549 16.6252L14.7334 16.6382L14.9021 16.6187L14.9735 16.6446L15.3174 16.8458L15.697 17.0891L16.2518 17.485L16.7515 17.9035L16.8455 17.9911L17.17 18.2994L17.2252 18.361L17.4425 18.5849L17.7637 18.958L17.8221 19.0391L17.9162 19.1527L18.1823 19.5063L18.2374 19.5842L18.6592 20.2136L18.8182 20.4764L19.0486 20.9274L19.2108 21.2778L19.2335 21.3427L19.373 21.6801L19.5709 22.2382L19.7461 22.8352L19.8143 23.1012L19.9051 23.5684L19.9992 24.2044L20.0446 24.6197L20.0479 24.6975L20.0609 24.9311L20.0673 25.0999L20.0479 25.155L20.0771 25.2783L20.0836 26.0473L20.0803 26.3166L20.0706 26.667L20.0414 26.933L20.0284 27.1601L20.0154 27.2055L20.0025 27.4035L19.9668 27.6857L19.85 28.419L19.7883 29.0549L19.7624 29.2301L19.7689 30.0445L19.7948 30.8751L19.7786 31.245L19.7526 31.4818L19.6521 32.0204L19.6066 32.1405L19.5839 32.1372L19.5547 32.0821L19.4249 31.6797L19.2854 31.3001L19.2076 30.9659L19.1621 30.5182L19.1784 29.6649L19.1556 29.2853L19.068 28.6461L18.9739 28.1919L18.9383 28.0621L18.9026 27.7441L18.9123 27.3061L18.9383 27.0174L18.9675 26.8324L18.9739 26.5534L18.948 26.362L18.8701 26.1057L18.802 25.9629L18.7176 25.8299L18.5976 25.7098L18.5002 25.6449L18.3867 25.606L18.2731 25.6028L18.1563 25.6417L18.0428 25.726L17.9422 25.8429L17.8741 25.9661L17.7767 26.2387L17.7313 26.4658L17.6729 26.8973L17.5885 27.1861L17.5236 27.384L17.4393 27.8155L17.4198 28.0718L17.4231 28.2697L17.4458 28.4125L17.4588 28.565L17.5139 28.7986L17.5561 28.9738L17.5885 29.0809L17.7183 29.6714L17.7443 29.9861L17.7345 30.1289L17.6859 30.2976L17.6145 30.4274L17.5399 30.5085L17.4523 30.5669L17.4004 30.5798L17.3128 30.5766L17.2446 30.5506L17.1668 30.4922L17.0921 30.4046L17.0305 30.2943L16.9915 30.1289L16.9818 29.9309L16.9948 29.733L17.037 29.454L17.2122 28.6753L17.2933 28.3476L17.3387 28.0556L17.3484 27.809L17.316 27.6273L17.2544 27.4294L17.157 27.225L16.9948 26.9655L16.7774 26.6994L16.5535 26.495L16.2583 26.2809L15.8625 26.0408L15.6353 25.8429L15.5056 25.7001L15.3888 25.5281L15.2103 25.2426L14.9735 24.9052L14.7691 24.7008L14.5874 24.5807L14.4478 24.5256L14.2824 24.4802L14.1558 24.4639L13.9612 24.4737L13.7405 24.5256L13.6043 24.5872L13.4518 24.7008L13.3382 24.8143L13.2247 24.9766L13.1663 25.1096L13.0981 25.2394L13.0203 25.5184L12.9554 25.9629L12.9262 26.5566L12.9294 26.6345L12.9132 27.105L12.871 27.5138L12.7964 27.8317L12.6828 28.1757L12.5595 28.4839L12.4492 28.737L12.3227 29.1328L12.2546 29.4248L12.2286 29.5351L12.2156 29.5319L12.1118 29.149L11.9528 28.7629L11.7938 28.4255L11.5959 28.0524L11.4791 27.848L11.3104 27.5332L11.2066 27.2834L11.106 26.9687L10.9924 26.4626L10.8594 25.7001L10.7588 25.327L10.6615 25.0966L10.5771 24.9441L10.4863 24.8241L10.4603 24.8014L10.3987 24.7462L10.3176 24.6943L10.217 24.6683H10.0937L9.98344 24.7105L9.88934 24.7851L9.80174 24.9084L9.70114 25.1355L9.58114 25.4438L9.48374 25.6092L9.35404 25.7812L8.97444 26.1446L8.86084 26.3003L8.78944 26.4463L8.73434 26.641L8.71154 26.7805L8.69534 27.2412L8.72784 27.7668L8.90954 28.8083L8.92574 29.1782L8.91604 29.3177L8.88354 29.454L8.81864 29.5546L8.74404 29.6097L8.66614 29.6422L8.58834 29.6389L8.52994 29.6032L8.46504 29.5384L8.41954 29.454L8.38714 29.3469L8.36444 29.2171L8.38064 28.9057L8.43904 28.6072L8.56884 28.0102L8.63044 27.6598L8.64994 27.3808L8.61754 27.0952L8.54934 26.813L8.43904 26.4853L8.37094 26.2354L8.31904 25.898L8.28984 25.632L8.24764 25.434L8.16974 25.2296L8.05624 25.0382L7.93614 24.8922L7.79664 24.7851L7.68954 24.73L7.55654 24.6943L7.49814 24.6846L7.32944 24.6943L7.18344 24.7332L7.02444 24.8079L6.84604 24.9441L6.56694 25.1907L6.35284 25.3335L6.17764 25.4178L5.89864 25.5087L5.44434 25.6125L5.23994 25.6904L5.08744 25.7974L4.90254 25.9856L4.77924 26.1673L4.69484 26.323L4.62994 26.5112L4.58134 26.7416L4.57154 27.0758L4.57804 27.3288L4.57484 27.7798L4.52614 28.1659L4.47754 28.3476L4.16604 29.0549L4.06224 29.4021L4.04594 29.4183L4.02654 29.3242L3.99404 29.136L3.85454 28.7078L3.76374 28.5034L3.66314 28.2049L3.59494 27.8934L3.55604 27.5949L3.51714 26.9492L3.48464 26.7546L3.44574 26.6605L3.37434 26.5923L3.31274 26.5729L3.24134 26.5794L3.17644 26.615L3.11804 26.6767L3.05644 26.8065L3.00124 27.0174L2.90714 27.6241L2.83254 27.8837L2.72544 28.1335L2.67674 28.2405L2.56974 28.5261L2.52434 28.7175L2.50484 28.7791L2.47564 28.8148L2.42374 28.8213L2.38154 28.7824L2.34914 28.6883L2.28744 28.4547L2.10574 27.994L2.06034 27.822L2.01164 27.4392L2.00194 27.0887L1.97924 27.0109L1.94024 26.959L1.87864 26.9363L1.81054 26.9557L1.75864 27.0206L1.71964 27.105L1.65804 27.3191L1.61904 27.6468L1.59964 27.8577L1.57364 28.0491L1.38874 28.7986L1.23294 29.3891L1.13244 29.9082L1.07724 30.2976L1.06424 30.648L1.08044 31.0016L1.12594 31.3812L1.13564 31.4234L1.14864 31.5467L1.28814 32.3351L1.40494 32.9613L1.44714 33.3993L1.43734 33.6329L1.40174 33.8406L1.33354 34.0417L1.25894 34.1521L1.22654 34.1813L1.13244 34.2526L1.01234 34.2916Z" fill="#EFF2FF"/>
<path d="M10.6875 34.0708L10.6323 34.0676V34.0514L10.6842 34.0481L10.6972 34.0579L10.6875 34.0708Z" fill="white"/>
<path d="M9.65111 33.9899H9.49211L9.45641 33.9705L9.37531 33.8439L9.34281 33.7466L9.31361 33.4935L9.32011 33.3183L9.30061 33.2761L9.26501 33.2534L9.11901 33.2242L9.0703 33.1853L8.98591 33.0425L8.95351 32.9387L8.96 32.8706L8.9924 32.8284L9.05081 32.783L9.06061 32.7278L9.01191 32.5915L9.02491 32.5623L9.1125 32.5364L9.33961 32.5039L9.38501 32.4812L9.4045 32.4358L9.39151 32.3969L9.35581 32.3774L9.20981 32.3839L9.04431 32.4034L8.9924 32.3904L8.96651 32.3385L8.96971 32.2573L8.98591 32.2281L9.01511 32.2217L9.1125 32.2314L9.18711 32.1989L9.27141 32.1308L9.38501 31.9816L9.40121 31.9426L9.39151 31.8615L9.33631 31.6701L9.2163 31.4235L9.14491 31.3067L9.08651 31.2061L9.0022 31.0796L8.98271 31.0244L8.9924 30.9109L9.00541 30.8492L8.99571 30.7811L8.95671 30.7032L8.87561 30.6026L8.6939 30.421L8.61281 30.3366L8.48951 30.2133L8.45061 30.1971L8.3273 30.2036L8.27541 30.1711L8.217 30.1646L8.12611 30.1809L8.03201 30.1484L7.89581 30.0803L7.70431 30.0186L7.67841 29.9959V29.9635L7.72381 29.9343L8.0612 29.8402L8.10991 29.8045V29.7526L8.08401 29.7201L8.02561 29.7137L7.62001 29.824L7.56161 29.8272L7.5162 29.8077L7.46101 29.7526L7.4059 29.7331L7.32151 29.7429L7.18851 29.7785L7.04901 29.7883L6.87051 29.7785L6.74721 29.8077L6.585 29.8856L6.39031 29.9343L6.25731 29.9862L6.22811 30.0219L6.20211 30.1192L6.15671 30.1484L6.01071 30.1776L5.98801 30.1938L5.97181 30.2847L5.9166 30.3398L5.91341 30.4047V30.4502L5.88091 30.4923L5.72191 30.5637L5.66681 30.6189L5.56951 30.7649L5.46241 30.8557L5.21261 31.0374L5.12171 31.138L5.05361 31.2548L4.98221 31.4235L4.94651 31.5176L4.86541 31.6376L4.85241 31.6733L4.86221 31.7415L4.9173 31.855L4.94001 31.9361L5.00821 32.014L5.04061 32.0886L5.0309 32.1243L5.00171 32.1373L4.88161 32.1113L4.6869 32.0594L4.60261 32.0529L4.56371 32.0757L4.54421 32.1081L4.55721 32.147L4.65771 32.186L4.99191 32.2898L5.02441 32.3157L5.03411 32.3644L5.02761 32.439L5.04381 32.4747L5.09901 32.5461L5.09251 32.5915L5.05031 32.6337L4.87191 32.7213L4.81671 32.7765L4.77781 32.8835L4.75831 32.9711L4.7291 32.9939L4.67401 32.9841L4.50201 32.9063L3.92771 32.5818L3.33401 32.1989L2.99981 31.9589L2.73701 31.7415L2.71101 31.6863L2.71431 31.6117L2.75651 31.5014L2.78571 31.4819L2.84081 31.4916L3.22371 31.6668H3.28211L3.30801 31.6279L3.30151 31.5695L3.26911 31.5306L2.84411 31.3262L2.7986 31.2775L2.79221 31.2548L2.80191 30.9044L2.78241 30.6448L2.79541 30.5962L2.83761 30.5799L2.9544 30.5767H3.0906L3.41511 30.554L3.45081 30.5378L3.48001 30.4956L3.47351 30.4599L3.4411 30.4307L3.3632 30.4274L2.79541 30.4469L2.75971 30.4307L2.73371 30.3885L2.6559 30.1257L2.57151 29.9213L2.56501 29.8856L2.58131 29.8499L2.70781 29.7656L3.5514 29.2854L3.62601 29.2205L3.63251 29.1816L3.60981 29.1523H3.56111L3.42481 29.2205L2.74351 29.6196L2.55531 29.7234L2.50341 29.7331L2.46121 29.7039L2.38011 29.5774L2.18221 29.334L1.95181 29.1199L1.77011 28.9804L1.75391 28.9512L1.77661 28.7825L1.835 28.4223L1.85451 28.2634L1.8772 28.2147L1.89341 28.2309L2.00701 28.7111L2.09781 28.9642L2.2438 29.2367L2.38661 29.4152L2.5001 29.5352L2.52931 29.5579L2.56181 29.5514L2.60071 29.3924L2.68511 29.2367L2.77591 28.9836L2.87001 28.6689L2.95761 28.471L3.02581 28.3412L3.15551 28.0135L3.20741 27.7799L3.2431 27.5431L3.25941 27.5139L3.2788 27.5301L3.31781 27.715L3.33401 27.8967L3.41191 28.2763L3.56111 28.7046L3.63571 28.896L3.70061 29.1134L3.73631 29.3795L3.74601 29.6617L3.7298 29.8467L3.66491 30.2068L3.47031 30.9076L3.39241 31.3943V31.55L3.41511 31.7188L3.46381 31.881L3.53191 32.0237L3.61301 32.1308L3.71681 32.2152L3.82721 32.2703L3.918 32.293L4.07701 32.2866L4.20031 32.2444L4.31711 32.1697L4.41771 32.0627L4.49231 31.9491L4.56041 31.7739L4.59931 31.5825V31.3521L4.56371 31.0244L4.38201 30.0251L4.37221 29.9148L4.37551 29.6358L4.44361 29.3405L4.57341 29.0193L4.74211 28.6754L4.88161 28.2926L4.94981 28.0103L4.9952 27.6696L4.99841 27.3127L4.98871 27.2056L4.9952 26.9234L5.02761 26.7417L5.06661 26.5892L5.12171 26.4789L5.22551 26.3491L5.33261 26.2518L5.51111 26.1447L5.80951 26.0311L6.14371 25.9273L6.42601 25.791L6.64011 25.6548L7.02621 25.3628L7.22741 25.2395L7.36691 25.1811L7.47071 25.1616L7.57461 25.1713L7.70111 25.2168L7.74981 25.2524L7.82761 25.366L7.87951 25.5055L7.98341 26.1414L8.08071 26.4367L8.23001 26.7547L8.27541 26.8974L8.31111 27.1667L8.31431 27.3873L8.27541 27.6923L8.17481 28.1628L8.11961 28.3477L8.03851 28.6884L8.00931 28.935V29.2562L8.04501 29.4606L8.11961 29.652L8.19751 29.785L8.30131 29.8986L8.43441 29.9959L8.5479 30.0381L8.63551 30.0543L8.78801 30.0446L8.94051 29.9992L9.03461 29.944L9.14171 29.8467L9.22601 29.7299L9.29421 29.5806L9.34281 29.3924L9.36231 29.2497L9.34931 28.9999L9.2909 28.5975L9.05411 27.5106L9.04431 27.41L9.05081 27.0759L9.08331 26.8812L9.12871 26.7644L9.20011 26.6476L9.29741 26.547L9.58941 26.3199L9.72571 26.1836L9.8392 26.0149L9.90741 25.8819L9.98851 25.6321L10.0566 25.5217L10.1053 25.4763L10.1669 25.4633L10.2286 25.4861L10.3097 25.5639L10.4005 25.7099L10.4914 25.9208L10.592 26.3004L10.6731 26.693L10.7185 26.9461L10.8093 27.2446L10.9164 27.5268L11.0365 27.7702L11.0786 27.8448L11.1727 28.0297L11.4485 28.5326L11.747 29.188L11.8671 29.5287L11.9676 29.9765L12.0098 30.2685L12.0163 30.5442L11.9871 30.6805L11.9579 30.7032H11.9027L11.8054 30.6578L11.7373 30.5897L11.7146 30.528L11.6854 30.4047L11.6367 30.3431L11.5751 30.3106L11.5167 30.3204L11.3414 30.4274L11.2409 30.528L11.1208 30.5994L10.8613 30.687L10.7185 30.7811L10.6244 30.8038L10.5173 30.7973L10.4654 30.7746L10.4232 30.7324L10.3746 30.5994L10.3681 30.4566L10.3973 30.3106L10.3843 30.2458L10.2772 30.1549L10.2059 30.1257L10.1442 30.1192L9.99501 30.1289L9.84901 30.0997L9.75491 30.1095L9.45311 30.2165L9.33311 30.2133L9.2909 30.2393L9.26821 30.2782H9.23901L9.19031 30.1614L9.1384 30.0349L9.10921 30.0024L9.06061 29.9959L9.01841 30.0219L9.00541 30.077L9.14171 30.4826L9.15461 30.5637L9.14171 30.6318L9.05081 30.7487L9.03461 30.8038L9.05411 30.8427L9.15461 30.9174L9.23251 30.9595L9.28441 31.0212L9.359 31.2678L9.47591 31.748L9.5829 32.2573L9.57641 32.4228L9.59591 32.4747L9.63481 32.5266L9.69651 32.8154L9.82301 33.6298L9.8555 33.9185L9.83271 33.9607L9.7354 33.9867L9.65111 33.9899Z" fill="#EFF2FF"/>
<path d="M10.0545 33.951L10.0091 33.9316L9.99609 33.8894L9.97339 33.6071L9.98639 33.5974L10.061 33.6655L10.1259 33.685L10.3076 33.698L10.4049 33.6785L10.4244 33.6882L10.4211 33.7337L10.3725 33.8278L10.379 33.8991L10.3335 33.9186L10.1259 33.9446L10.0545 33.951Z" fill="white"/>
<path d="M10.6143 33.8893L10.5527 33.8796L10.543 33.8439L10.5689 33.7823L10.7409 33.513L10.7863 33.4383L10.8999 33.3151L11.0037 33.2437L11.1302 33.1755L11.1724 33.1788L11.2113 33.2047L11.2276 33.2437L11.2178 33.3183L11.1724 33.3994L11.0556 33.5616L10.955 33.7401L10.848 33.8472L10.6565 33.8828L10.6143 33.8893Z" fill="#EFF2FF"/>
<path d="M9.98174 33.5324H9.96554L9.92664 33.3312L9.81304 32.598L9.77734 32.4487L10.0823 32.3741L10.2543 32.3384L10.6404 32.2476L10.7118 32.2573L10.7702 32.3157L10.7864 32.3773L10.7669 32.4909L10.7896 32.559L10.8448 32.6109L10.9064 32.6596L10.9259 32.6985L10.8967 32.7764L10.4846 33.2079L10.3906 33.3734L10.3224 33.4383L10.2251 33.4707L10.0596 33.4772L10.0077 33.4967L9.98174 33.5324Z" fill="#EFF2FF"/>
<path d="M4.5791 33.1366L4.4428 33.1268L4.3292 33.0976L4.2416 33.0425L4.0534 32.9062L3.9756 32.8543L3.6868 32.6142L3.6317 32.5915L3.4564 32.6207L3.3851 32.5947L3.252 32.4812L2.8822 32.134L2.7167 31.9555L2.6875 31.9036L2.7135 31.9004L3.0606 32.1437L3.1969 32.2443L3.8166 32.6661L4.0956 32.8218L4.4558 33.0262L4.592 33.0944L4.605 33.1138L4.5791 33.1366Z" fill="white"/>
<path d="M10.0334 32.8641L9.97503 32.8478L9.90682 32.7894L9.89062 32.7343L9.89713 32.6856L9.94583 32.6305L10.0204 32.5948L10.1956 32.5623L10.3027 32.5591L10.3611 32.5786L10.3838 32.6272L10.3643 32.7278L10.3384 32.8024L10.2962 32.8251L10.1794 32.8057L10.0334 32.8641Z" fill="#7A8C9F"/>
<path d="M9.83564 32.2865L9.76424 32.2832L9.73174 32.2444L9.62144 31.761L9.52734 31.3293L9.53384 31.2775L9.58574 31.2808L9.68634 31.3002L9.77074 31.2938L9.80644 31.2743L9.85834 31.2354H9.91674L10.053 31.2677L10.1016 31.3002L10.147 31.3554L10.2282 31.5241L10.3125 31.6213L10.3158 31.6797L10.3093 31.7641L10.3352 31.8226L10.4034 31.8875L10.4455 32.0173L10.5039 32.0854V32.1114L10.4423 32.1405L10.1276 32.2216L9.83564 32.2865Z" fill="#EFF2FF"/>
<path d="M4.01679 31.8453L3.93249 31.8355L3.85139 31.7901L3.79939 31.735L3.75399 31.6279L3.73779 31.5208L3.75079 31.2905L3.80919 30.8784L4.01359 29.8499L4.02659 29.8369L4.03949 29.8629L4.20179 31.0471L4.21469 31.3002L4.20819 31.563L4.17579 31.7025L4.12389 31.7869L4.06549 31.829L4.01679 31.8453Z" fill="#EFF2FF"/>
<path d="M2.5277 31.6926L2.479 31.6764L2.3946 31.5888L2.161 31.2806L1.9534 30.9659L1.8658 30.8328L1.7036 30.5798L1.5121 30.2294L1.4472 30.0607L1.4375 29.9795L1.4699 29.8335L1.5835 29.4896L1.6679 29.269L1.7036 29.1684L1.7392 29.1489L1.7879 29.1619L1.9664 29.2982L2.0799 29.4215L2.2746 29.6648L2.3817 29.84L2.4887 30.0671L2.5731 30.3007L2.6185 30.4889L2.6607 30.768L2.6672 31.0729L2.6445 31.326L2.5796 31.618L2.5439 31.6829L2.5277 31.6926Z" fill="#EFF2FF"/>
<path d="M14.4934 30.8491L14.409 30.8394L14.3311 30.8199L14.2403 30.8102L14.1916 30.768L14.1624 30.7161L14.1592 30.6771L14.1851 30.635L14.2241 30.6187L14.3052 30.5993L14.3766 30.5182L14.4512 30.4435L14.7529 30.2164L14.7854 30.2132L14.7951 30.2164L14.7919 30.2554L14.7107 30.3786L14.6004 30.4954L14.5745 30.5603L14.5842 30.6122L14.6264 30.6447L14.6978 30.6544L14.8892 30.5993L14.9606 30.5506L15.2201 30.2456L15.2364 30.2002L15.2526 30.1321L15.3077 30.0315L15.3694 29.9861L15.4343 29.9698L15.5121 29.9633L15.5446 29.9439L15.5641 29.892V29.7589L15.6095 29.6778L15.736 29.5935L15.7977 29.5416L15.9404 29.4961L16.0637 29.4118L16.1091 29.3858L16.1708 29.3696L16.3298 29.3599L16.4401 29.3242L16.4758 29.3047L16.5309 29.3112L16.5634 29.3631L16.5699 29.4345L16.5244 29.4896L16.4011 29.5578L16.2876 29.6064L16.174 29.6908L15.9534 30.012L15.8431 30.1061L15.7749 30.1418L15.6841 30.145L15.6387 30.1418L15.5673 30.171L15.4602 30.2748L15.3889 30.3754L15.2526 30.583L15.1877 30.7031L15.139 30.7583L15.0644 30.7875L14.9444 30.8102L14.8892 30.7939L14.8113 30.7453H14.7497L14.6751 30.7939L14.6329 30.8199L14.5355 30.8426L14.4934 30.8491Z" fill="#EFF2FF"/>
<path d="M18.6462 30.7064L18.6105 30.6934L18.5976 30.6415L18.604 30.5507L18.6105 30.4404L18.5976 30.3755L18.5262 30.2976L18.4807 30.2522L18.4645 30.2133L18.4678 30.1516L18.5197 30.0413L18.5684 29.9634L18.5878 29.8661L18.5748 29.7785L18.5164 29.6682L18.4483 29.6033L18.4548 29.4995L18.5456 29.2496L18.5684 29.1426L18.5456 29.0971L18.497 29.0517L18.3769 28.9609L18.3283 28.896V28.8473L18.3737 28.7662L18.484 28.5715L18.5619 28.3963L18.5586 28.3185L18.5262 28.2958L18.4905 28.3087L18.4126 28.4418L18.338 28.591L18.2179 28.7532L18.1693 28.7889L18.1271 28.7824L18.0233 28.7208L17.9162 28.7078L17.8675 28.6786L17.8383 28.6137L17.7767 28.325L17.7572 28.1627L17.7507 27.8642L17.7864 27.5917L17.874 27.277L18.0006 26.9006L18.033 26.7579L18.0525 26.4594L18.0784 26.3523L18.1563 26.2193L18.2407 26.1511L18.3055 26.1284L18.3769 26.1382L18.4483 26.1771L18.5067 26.2485L18.5684 26.3653L18.63 26.5664L18.6527 26.7124V27.0628L18.6235 27.4392L18.5976 27.6241L18.5878 27.8188L18.643 28.3185L18.6852 28.5196L18.7565 28.7695L18.8344 29.1848L18.8701 29.5644L18.8766 29.9861L18.8539 30.343L18.8344 30.4144L18.6819 30.674L18.6462 30.7064Z" fill="#EFF2FF"/>
<path d="M13.0865 30.6934L13.0346 30.6805L12.9113 30.5961L12.8237 30.528L12.7751 30.5182L12.6518 30.5604L12.5317 30.5539L12.5025 30.5312L12.4831 30.4501L12.4766 30.2457L12.5025 30.1711L12.5382 30.1516L12.681 30.1613L12.7523 30.1581L12.8529 30.1776L12.9016 30.2165L13.0216 30.4274L13.0736 30.5312L13.119 30.6221V30.6707L13.0865 30.6934Z" fill="#EFF2FF"/>
<path d="M13.3446 30.6156L13.2894 30.6123L13.2472 30.5604L13.0201 30.1581L12.9941 30.0835L13.0071 30.0056L13.0525 29.9277L13.1207 29.8758L13.1921 29.8628L13.3153 29.8693L13.3738 29.8401L13.5133 29.6292L13.5944 29.5481L13.6203 29.5384L13.7631 29.5416L13.7955 29.5254L13.8053 29.4767L13.7663 29.4183L13.6787 29.3664L13.6041 29.347L13.5165 29.3567L13.4224 29.3762L13.3024 29.3729L13.1888 29.321L13.1304 29.3275L13.0525 29.3794L12.952 29.4735L12.8676 29.5287L12.7151 29.5384L12.6924 29.5254L12.6729 29.454L12.634 29.4183L12.6243 29.3989L12.634 29.3372L12.9228 28.7208L13.098 28.2925L13.205 27.9259L13.2569 27.6793L13.3153 27.2835L13.3543 26.521L13.377 25.9208L13.4224 25.6871L13.4711 25.5055L13.5684 25.2978L13.6755 25.1583L13.789 25.0642L13.9221 24.9993L14.0681 24.9636H14.2238L14.3601 24.9896L14.5158 25.0447L14.6943 25.1648L14.824 25.3011L14.9733 25.5249L15.2134 25.9759L15.3367 26.1608L15.4502 26.2906L15.6676 26.4821L15.9077 26.6573L16.3392 26.9038L16.6604 27.1147L16.8129 27.2607L16.9362 27.4359L17.0336 27.6468L17.0595 27.7896L17.0757 28.0848L17.0433 28.3963L17.0173 28.5391L16.9946 28.5618L16.9622 28.565L16.8778 28.5585L16.8227 28.565L16.7383 28.5585L16.5112 28.6137L16.4723 28.6072L16.469 28.565L16.5372 28.4742L16.8356 28.0881L16.9719 27.8902L16.9914 27.8285L16.9817 27.7539L16.9492 27.7344L16.9103 27.7604L16.7351 27.981L16.4171 28.3963L16.3295 28.4774H16.2808L16.1965 28.4093L15.6092 27.8091L14.9441 27.079L14.8695 26.9817L14.4996 26.5242L14.4509 26.4301L14.4574 26.388L14.5288 26.3198L14.7462 26.1316L14.9895 25.911L15.0187 25.8526L14.9993 25.8007L14.9636 25.791L14.9279 25.8104L14.5742 26.1154L14.3958 26.2517L14.3374 26.2647L14.2984 26.2452L14.107 26.0084L13.9513 25.8007L13.8572 25.6677L13.7436 25.4925L13.7112 25.4438L13.682 25.4016L13.6463 25.3984L13.6138 25.4243L13.6009 25.46L13.6074 25.5184L13.669 25.6223L14.1362 26.2549L14.1946 26.3296L14.2141 26.3782L14.1687 26.4366L13.7469 26.7838L13.4614 27.0044L13.4224 27.0628V27.1245L13.4354 27.1407L13.4808 27.1342L13.5717 27.079L13.9318 26.7968L14.1265 26.6378L14.2595 26.5437L14.3082 26.5275L14.3439 26.5405L14.4347 26.6475L14.7981 27.0953L14.8987 27.2088L15.1712 27.5235L15.9759 28.3963L16.0148 28.432L16.1543 28.5748L16.1673 28.6137L16.1575 28.6364L15.8331 28.7143L15.7585 28.7175L15.6676 28.6948L15.5314 28.6916L15.46 28.6591L15.3821 28.604L15.3334 28.5877L15.2426 28.5975L15.0447 28.6721L14.9506 28.7208L14.9052 28.7694L14.7235 29.0063L14.6553 29.055L14.571 29.1004L14.4866 29.1945L14.4542 29.2723L14.4315 29.3535L14.4412 29.4475L14.4736 29.5124L14.5288 29.5579L14.5807 29.5741L14.8403 29.5579L14.8695 29.5708L14.8825 29.6098L14.8111 29.8466L14.8013 29.9796L14.7656 30.0283L14.5256 30.2165L14.4899 30.2295L14.4282 30.2197L14.2887 30.1646L14.1492 30.1321L14.0486 30.1386L13.9772 30.1711L13.9221 30.2489L13.789 30.5053L13.7436 30.5507L13.6885 30.5604L13.5814 30.5182L13.523 30.528L13.3965 30.5961L13.3446 30.6156Z" fill="#EFF2FF"/>
<path d="M4.70151 30.4891L4.61391 30.4858L4.57501 30.4631L4.56201 30.4242L4.58151 30.3885L4.67231 30.3593L5.20121 30.3074L5.77551 30.2101L5.80791 30.1874L5.81441 30.1354L5.74631 29.931L5.55161 29.4379L5.35371 29.0161L5.23041 28.7727L5.10061 28.4775L5.06491 28.4418L5.02921 28.4386L4.95781 28.458L4.92541 28.4418L4.92221 28.4029L4.95461 28.3477L4.99351 28.3023L4.99681 28.2536L4.99031 28.192L5.00981 28.153L5.04871 28.1498L5.12661 28.2212L5.18501 28.2114L5.56461 27.9908L5.86631 27.8318L6.74881 27.316L7.43991 26.9136L7.53071 26.8455L7.54371 26.8033L7.51131 26.7092L7.37821 26.4659L7.13491 26.0895L7.05701 25.963L6.92081 25.7489L6.90131 25.6937L6.90781 25.6515L6.94021 25.6321L6.97591 25.6418L7.05381 25.7359L7.31341 26.109L7.56971 26.534L7.65081 26.6833L7.69951 26.7319L7.75141 26.7255L7.98171 26.5989L8.04661 26.5924L8.07911 26.6281L8.07581 26.68L8.04011 26.7222L7.84221 26.8423L7.80331 26.8844L7.79351 26.9461L7.83901 27.0434L8.13101 27.5885L8.19911 27.7377L8.20881 27.8091L8.18611 27.8578L8.16021 27.8708L8.12771 27.8545L8.05311 27.7377L7.72871 27.0953L7.65401 26.9883L7.61191 26.9818L7.46261 27.0499L7.26141 27.1732L7.11221 27.2543L7.04081 27.303L6.97591 27.3289L6.23621 27.7572L5.23691 28.3185L5.20441 28.3542L5.21091 28.4126L5.46071 28.9187L5.61651 29.2594L5.73981 29.5547L5.93771 30.129V30.1776L5.88251 30.2425L5.85981 30.3236L5.79491 30.3463L5.12011 30.4469L4.70151 30.4891Z" fill="#7A8C9F"/>
<path d="M6.09344 30.4112L6.04804 30.4014L6.03174 30.3722L6.04154 30.3333L6.07074 30.3138L6.13564 30.2976L6.20054 30.3009L6.21674 30.3236L6.21024 30.356L6.13564 30.3949L6.09344 30.4112Z" fill="white"/>
<path d="M9.47899 29.3177L9.44329 29.3048L9.43359 29.2496L9.4563 29.2107L9.57309 29.1588L9.80019 29.0712L10.3972 28.8116L10.991 28.5228L11.2278 28.3931H11.2732L11.2992 28.4255L11.3057 28.4644L11.283 28.5001L11.1305 28.591L10.4134 28.9414L9.90399 29.1685L9.52439 29.308L9.47899 29.3177Z" fill="#7A8C9F"/>
<path d="M5.83397 23.8994L5.78857 23.8734L5.77237 23.8345L5.76587 22.1701L5.78207 22.1279L5.83717 22.1084H6.94037L6.98577 22.1279L7.00847 22.1993L7.00527 22.4361L6.98577 22.4848L6.95007 22.5043H6.27527L6.20387 22.527L6.18437 22.5854L6.18767 22.7249L6.20707 22.7671L6.27527 22.7865H6.79757L6.83977 22.8092L6.85597 22.8547L6.85927 23.1304L6.84297 23.1791L6.80737 23.2018L6.26547 23.2083L6.20707 23.2278L6.18437 23.2797L6.19087 23.4517L6.21357 23.4873L6.25897 23.5003H6.93387L6.99877 23.523L7.01497 23.5457L7.01827 23.841L6.99877 23.8767L6.96307 23.8929L5.83397 23.8994Z" fill="#7A8C9F"/>
<path d="M12.0876 23.8767L11.7697 23.8702L11.7275 23.8507L11.708 23.8053L11.7048 22.5432L11.6853 22.501L11.6431 22.4815L11.27 22.475L11.2311 22.4491L11.2148 22.3939V22.1408L11.2311 22.1117L11.296 22.0922L12.5775 22.0857L12.6522 22.1052L12.6749 22.1311L12.6716 22.4199L12.6424 22.4685L12.584 22.4815L12.2142 22.488L12.172 22.5075L12.1558 22.5497L12.1525 23.8118L12.133 23.854L12.0876 23.8767Z" fill="#7A8C9F"/>
<path d="M13.3297 23.8702L13.0863 23.8669L13.0377 23.8475L13.0182 23.7956L13.0117 22.1603L13.0215 22.1117L13.0507 22.0889L13.3491 22.0922L13.4043 22.1117L13.4238 22.1636V22.6632L13.44 22.7378L13.4789 22.7606L14.0921 22.7638L14.157 22.7443L14.1765 22.6924L14.1797 22.1311L14.1992 22.1052L14.2511 22.0857H14.5302L14.5788 22.1052L14.6015 22.1473L14.608 23.7826L14.5886 23.8377L14.5529 23.8604L14.2349 23.854L14.2057 23.8345L14.1895 23.7728V23.257L14.1733 23.1986L14.1311 23.1759L13.4692 23.1791L13.4432 23.2018L13.4303 23.2699L13.4368 23.802L13.4205 23.8377L13.3751 23.8637L13.3297 23.8702Z" fill="#7A8C9F"/>
<path d="M7.42821 23.8865L7.39251 23.8703L7.38281 23.8509L7.93111 22.1605L7.97011 22.1053L8.00901 22.0891L8.44381 22.0923L8.50221 22.1118L8.53461 22.1605L9.20951 23.8119L9.20301 23.8541L9.16081 23.8736L8.84931 23.8768L8.75851 23.8573L8.72601 23.8152L8.63201 23.5394L8.58651 23.5102H7.97011L7.91491 23.5394L7.82731 23.8119L7.79811 23.8606L7.72351 23.8865H7.42821ZM8.41131 23.0754L8.44051 23.056L8.43081 23.0138L8.24261 22.5109H8.22311L8.06091 23.004L8.04471 23.0527L8.07391 23.0754H8.41131Z" fill="#7A8C9F"/>
<path d="M10.6141 23.8767L10.5622 23.8572L10.2021 23.3446L10.1502 23.3057L9.94248 23.3089L9.92628 23.3251L9.91658 23.3673L9.91978 23.7988L9.90678 23.8475L9.85488 23.8735H9.55638L9.51418 23.854L9.49478 23.8086L9.48828 22.1636L9.51098 22.1117L9.55968 22.0955H10.4065L10.5687 22.1214L10.6823 22.1668L10.7861 22.2382L10.8769 22.3453L10.9386 22.4816L10.9613 22.5886L10.9483 22.7573L10.9224 22.8547L10.8672 22.965L10.7699 23.085L10.6628 23.1694L10.6563 23.2018L11.0489 23.8313L11.0424 23.8605L11.0002 23.8767H10.6141ZM10.3091 22.8839L10.3805 22.8579L10.4422 22.806L10.4714 22.7476L10.4843 22.6535L10.4551 22.5692L10.3773 22.5075L10.267 22.4816L9.97818 22.4783L9.93598 22.4978L9.91978 22.54L9.92298 22.832L9.93928 22.8677L9.99118 22.8871H10.2799L10.3091 22.8839Z" fill="#7A8C9F"/>
<path d="M9.38781 21.6153L9.33911 21.5958L9.32291 21.5472L9.31641 19.9184L9.33911 19.873L9.37481 19.8568L9.65711 19.8535L9.71871 19.8762L9.7382 19.9119L9.74141 20.4343L9.75771 20.4959L9.79981 20.5154H10.3936L10.4423 20.5024L10.465 20.4635V19.9411L10.4715 19.8892L10.4974 19.8632L10.5396 19.8535H10.8284L10.8868 19.8762L10.9062 19.9411L10.9095 21.5374L10.89 21.5958L10.8316 21.6153L10.5234 21.612L10.4844 21.5926L10.4682 21.5504L10.465 20.9988L10.4423 20.9631L10.3709 20.9469H9.81281L9.77061 20.9631L9.74791 21.0086V21.5374L9.72851 21.5958L9.65711 21.6153H9.38781Z" fill="#7A8C9F"/>
<path d="M8.45186 21.6219H8.14036L8.09176 21.5991L8.07876 21.5635L8.07226 20.3078L8.05276 20.2592L7.98796 20.2397H7.59536L7.55966 20.2137L7.54346 20.1424V19.9347L7.56616 19.886L7.61156 19.8666L8.98726 19.8601L9.03916 19.8763L9.06186 19.925L9.05856 20.2137L9.01316 20.2462L8.93856 20.2559L8.56546 20.2494L8.52976 20.2656L8.51356 20.2949L8.51026 21.5602L8.49726 21.5959L8.45186 21.6219Z" fill="#7A8C9F"/>
<path d="M12.6134 21.6055L11.5492 21.6087L11.4908 21.5893L11.4713 21.5309L11.4648 19.9118L11.4843 19.8697L11.5362 19.8502L12.6004 19.8469L12.6653 19.8697L12.6848 19.9118L12.6815 20.1779L12.6653 20.2201L12.6199 20.2428L11.9775 20.246L11.9191 20.2655L11.9061 20.2947L11.8996 20.418L11.9191 20.4796L11.945 20.5023L12.0067 20.5121L12.4934 20.5056L12.5453 20.5251L12.5647 20.5705V20.8657L12.542 20.9047L12.4869 20.9241H11.9742L11.9256 20.9436L11.9093 20.9923L11.9126 21.1415L11.9418 21.174L11.9742 21.1837H12.6523L12.7042 21.2064L12.7205 21.2486V21.5633L12.6848 21.5957L12.6134 21.6055Z" fill="#7A8C9F"/>
<path d="M6.45029 19.5257L6.25889 19.516L6.07719 19.4771L5.95059 19.4252L5.76889 19.3116L5.65209 19.1981L5.55479 19.052L5.48019 18.8671L5.44449 18.6919L5.43799 18.5297L5.46389 18.3512L5.51909 18.1793L5.59369 18.0398L5.68459 17.9197L5.82079 17.8029L5.95389 17.7218L6.14199 17.6602L6.28809 17.6342L6.43409 17.6277L6.68059 17.6537L6.89479 17.7153L6.96939 17.7607L6.99859 17.7997L7.00829 17.8451V18.1598L6.98559 18.1955L6.95319 18.2052L6.73579 18.0949L6.54109 18.0527L6.40159 18.0462L6.25889 18.069L6.13559 18.1241L6.04799 18.1858L5.96679 18.2799L5.91819 18.3934L5.88569 18.5297L5.88899 18.6595L5.92139 18.7925L5.99599 18.9125L6.09009 19.0001L6.19719 19.0618L6.34649 19.1072L6.51519 19.1169L6.67409 19.091L6.80069 19.0358L6.92719 18.9547L6.96619 18.9288L6.99209 18.9352L7.00829 18.9677L7.01159 19.2629L6.99209 19.3311L6.93049 19.3927L6.80389 19.4544L6.59949 19.5095L6.45029 19.5257Z" fill="#7A8C9F"/>
<path d="M10.3599 19.3895L9.90242 19.3862L9.86672 19.3732L9.83752 19.3246L9.31522 17.751L9.30542 17.6731L9.32492 17.6471L9.41572 17.6277L9.65582 17.6342L9.71102 17.6471L9.74342 17.712L10.0971 18.8736L10.123 18.9028H10.1587L10.1717 18.8768L10.5286 17.738L10.5708 17.6536L10.6357 17.6179L10.8855 17.6212L10.9634 17.6439L10.9763 17.6731L10.9569 17.7639L10.4248 19.357L10.3923 19.3797L10.3599 19.3895Z" fill="#7A8C9F"/>
<path d="M11.3897 19.3765L11.3475 19.3635L11.3086 19.3116V17.6796L11.3248 17.6439L11.354 17.6212L11.4059 17.6115L12.4701 17.605L12.5285 17.6277L12.5448 17.6634V17.923L12.522 17.9879L12.4701 18.0073L11.8018 18.0106L11.7726 18.0333L11.7596 18.0755V18.2312L11.7726 18.2766L11.831 18.2961L12.3566 18.2993L12.4215 18.322L12.4409 18.3675L12.4442 18.6562L12.415 18.6789L12.3631 18.6887H11.818L11.7758 18.7016L11.7531 18.7373L11.7563 18.9093L11.779 18.9612L11.818 18.9774L12.5188 18.9807L12.5577 19.0034L12.574 19.0488V19.3149L12.5512 19.357L12.5091 19.3733L11.3897 19.3765Z" fill="#7A8C9F"/>
<path d="M8.23454 19.4643L8.03664 19.4579L7.89064 19.4319L7.73484 19.3638L7.61154 19.2859L7.47534 19.1626L7.36174 18.9939L7.28714 18.8187L7.25464 18.6435V18.3937L7.29684 18.212L7.35854 18.0627L7.48184 17.8875L7.61804 17.7642L7.73814 17.6896L7.88084 17.6344L8.11444 17.5923L8.33514 17.5988L8.51684 17.6409L8.71144 17.7253L8.88014 17.8616L8.98074 17.9881L9.03264 18.0822L9.09434 18.2509L9.12674 18.4326V18.6143L9.09434 18.809L9.03264 18.9679L8.93214 19.1302L8.83474 19.2307L8.71474 19.3183L8.56224 19.393L8.38704 19.4449L8.23454 19.4643ZM8.29944 19.062L8.43894 19.0199L8.52324 18.9647L8.61084 18.8641L8.66604 18.7473L8.69844 18.6013L8.69524 18.4488L8.65954 18.3028L8.57844 18.173L8.47134 18.0725L8.35454 18.0108L8.21184 17.9848L8.09824 17.9913L7.96844 18.0303L7.85814 18.0984L7.77054 18.1957L7.70244 18.3158L7.66994 18.4618L7.67644 18.637L7.71544 18.7603L7.79004 18.8901L7.88734 18.9744L7.98474 19.0296L8.13074 19.0685L8.26694 19.0718L8.29944 19.062Z" fill="#7A8C9F"/>
<path d="M14.4899 19.3603L14.1298 19.357L14.0714 19.3343L13.8183 18.9061L13.7696 18.8444L13.7015 18.8249H13.5393L13.4906 18.8444L13.4711 18.8866L13.4679 19.3084L13.4484 19.3441L13.4127 19.3603H13.1337L13.0753 19.3408L13.0591 19.3019V17.6407L13.0883 17.6147L13.1499 17.605H13.9091L14.1103 17.6277L14.2076 17.6569L14.318 17.725L14.4023 17.8127L14.4607 17.9165L14.5029 18.069L14.5159 18.1825L14.5094 18.3156L14.464 18.4453L14.4088 18.5394L14.3309 18.6173L14.2174 18.7016L14.2109 18.7373L14.5288 19.2694L14.5451 19.3278L14.5256 19.3538L14.4899 19.3603ZM13.8313 18.4194L13.9254 18.3934L13.9967 18.3383L14.0357 18.2734L14.0519 18.1663L14.0259 18.0884L13.9805 18.0398L13.9091 18.0041H13.5166L13.4744 18.0235L13.4582 18.0592L13.4614 18.3448L13.4776 18.3967L13.5198 18.4161H13.8313V18.4194Z" fill="#7A8C9F"/>
<path d="M5.55944 16.3753L5.41344 16.3656L5.27394 16.3201L5.16044 16.2325L5.10854 16.1579L5.06304 16.0606L5.02734 15.8886L5.03064 15.7199L5.07604 15.5025L5.13124 15.3663L5.29014 15.1067L5.45894 14.9185L5.56594 14.8212L5.87424 14.6005L6.23434 14.4091L6.59774 14.2631L7.11034 14.1366L7.38294 14.0976L7.75604 14.0879L8.06104 14.1204L8.31084 14.1723L8.56394 14.2436L8.84614 14.3702L9.04414 14.4837L9.30364 14.6817L9.50804 14.8861L9.61514 15.0353L9.61834 15.0613L9.56644 15.0353L9.37504 14.9023L9.07974 14.753L8.80404 14.6589L8.54764 14.6038L8.23294 14.5649L7.92474 14.5681L7.62304 14.6233L7.36024 14.7044L7.10064 14.8277L6.87024 14.9704L6.72754 15.0937L6.54904 15.2949L6.31544 15.6485L6.09804 16.0314L5.95204 16.1968L5.82874 16.2877L5.68274 16.3493L5.55944 16.3753Z" fill="#EFF2FF"/>
<path d="M14.7218 16.2293L14.5823 16.226L14.459 16.1903L14.2903 16.0833L13.8718 15.7102L13.5733 15.4506L13.424 15.3306L13.2878 15.2202L12.9633 14.9996L12.7622 14.8893L12.4345 14.753L12.1554 14.6914L11.8796 14.6589L11.698 14.6654L11.4741 14.7076L11.1951 14.7985L11.1334 14.8212L11.1172 14.8147L11.1691 14.7595L11.2924 14.6752L11.5812 14.5227L11.8407 14.4156L12.2365 14.3053L12.4799 14.2631L12.7297 14.2339L13.1645 14.2469L13.4824 14.2858L13.8134 14.3572L14.0535 14.448L14.2676 14.5519L14.4688 14.6817L14.7413 14.9088L14.9068 15.0872L15.0236 15.2851L15.0885 15.4409L15.1274 15.5901L15.1307 15.7523L15.1047 15.8919L15.0593 15.9989L14.9749 16.1125L14.8614 16.1839L14.7218 16.2293Z" fill="#EFF2FF"/>
<path d="M11.6576 16.1029L11.6154 16.0964L11.57 16.0348L11.4986 15.905L11.4077 15.7784L11.3104 15.6941L11.158 15.6162L11.0346 15.5838L10.9212 15.5773L10.7849 15.6L10.7556 15.5903L10.7458 15.5481L10.7654 15.5091L10.8498 15.441L10.9762 15.3761L11.0801 15.3502L11.2099 15.3469L11.3559 15.3761L11.4629 15.4443L11.5408 15.5221L11.596 15.613L11.6316 15.733L11.6674 16.0769L11.6576 16.1029Z" fill="#7A8C9F"/>
<path d="M9.62493 14.6882L9.56652 14.646L9.39453 14.4773L9.14153 14.2664L8.88193 14.0847L8.59312 13.9452L8.32063 13.8479L7.97342 13.7635L7.72683 13.7311L7.59712 13.7213L7.26942 13.7246L6.94823 13.7733L6.54913 13.8836L6.16623 14.0263L6.01702 14.0588L5.89052 14.049L5.78012 14.0101L5.70232 13.9485L5.66332 13.8836L5.64062 13.7765L5.65682 13.624L5.71523 13.4845L5.79963 13.3612L5.90993 13.2639L6.06892 13.1568L6.24413 13.0724L6.47453 12.9978L6.75352 12.9394L6.91253 12.9199L7.24673 12.9264L7.58732 12.9881L7.88582 13.0887L8.29462 13.2931L8.61913 13.504L8.89492 13.7116L9.20633 14.0166L9.38482 14.2275L9.56973 14.5195L9.62812 14.646L9.63142 14.672L9.62493 14.6882Z" fill="#EFF2FF"/>
<path d="M10.9468 14.5878L10.9338 14.5781L10.9858 14.4548L11.1837 14.1757L11.5633 13.7669L11.8391 13.5463L12.1765 13.3289L12.5431 13.1342L12.9033 13.0045L13.179 12.9493L13.3153 12.9331L13.6008 12.9396L13.7663 12.972L13.8831 13.0207L13.9967 13.0921L14.0778 13.1732L14.1329 13.2738L14.1556 13.3646L14.1492 13.4684L14.1005 13.5852L14.0194 13.6891L13.8896 13.7604L13.6787 13.8253L13.4646 13.8448L12.5983 13.8967L12.2771 13.9454L12.0597 14.0005L11.7709 14.0979L11.5568 14.1887L11.2453 14.3639L10.976 14.5716L10.9468 14.5878Z" fill="#EFF2FF"/>
<path d="M10.814 14.2794L10.801 14.2729L10.8043 14.1918L10.8919 13.8446L11.0022 13.4845L11.1839 13.0757L11.3883 12.7026L11.5246 12.5112L11.7679 12.2386L11.875 12.138L12.0502 12.0018L12.2286 11.8882L12.4557 11.7974L12.592 11.7649L12.7964 11.7714L12.9132 11.8103L13.0105 11.8882L13.0689 11.9596L13.1046 12.0667L13.1111 12.1835L13.0787 12.284L13.0073 12.3976L12.8775 12.5209L12.6731 12.6507L12.3714 12.8032L12.1053 12.9362L11.9074 13.066L11.5148 13.3612L11.2682 13.5981L11.1125 13.796L10.9341 14.075L10.8367 14.2535L10.814 14.2794Z" fill="#EFF2FF"/>
<path d="M9.66092 14.2698L9.62523 14.2341L9.44362 13.9453L9.30083 13.7571L9.03473 13.4813L8.69082 13.1958L8.30473 12.9525L7.67203 12.6118L7.51962 12.4983L7.42222 12.3912L7.35412 12.2646L7.32812 12.1673L7.33142 12.0408L7.38333 11.9272L7.45473 11.8558L7.54232 11.8039L7.63963 11.778L7.77592 11.7715L7.95762 11.8104L8.19443 11.924L8.41833 12.0635L8.72652 12.3328L8.95692 12.5859L9.20992 12.9298L9.36242 13.1958L9.48252 13.4684L9.58312 13.7896L9.66422 14.1173L9.67393 14.2406L9.66092 14.2698Z" fill="#EFF2FF"/>
<path d="M8.92116 9.55552L8.87256 9.54582L8.79786 9.47442L8.74276 9.39652L8.72656 9.34142L8.72976 9.24082L8.75896 9.11102L8.93416 8.70222L9.16126 8.31612L9.54086 7.76462L9.98216 7.24542L10.1769 7.03782L10.4462 6.76852L10.8777 6.39542L11.4747 5.94112L11.9062 5.67512L12.3539 5.42532L12.7108 5.27282L12.9477 5.22412L13.0353 5.24032L13.1294 5.31822L13.1651 5.37662L13.1586 5.41552L13.1164 5.45122L12.7043 5.63622L12.2955 5.86652L12.0717 6.01252L11.9646 6.08392L11.5331 6.39542L11.4163 6.49592L11.0594 6.78472L10.5824 7.20972L10.1866 7.64782L10.0828 7.76782L9.89776 7.98522L9.55386 8.44912L9.30726 8.82552L9.03146 9.32842L8.95036 9.51982L8.92116 9.55552Z" fill="#EFF2FF"/>
<path d="M8.31984 9.25691L8.24854 9.25361L8.19014 9.20821L7.83974 8.81561L7.88834 8.61451L7.88514 8.53011L7.85264 8.47171L7.67094 8.26411L7.33684 7.89101L6.55164 7.04091L5.71134 6.13241L5.39654 5.77551L5.28954 5.66851L5.22784 5.57441L5.21484 5.49331L5.23764 5.32781L5.32844 5.01311L5.47764 4.64971L5.65614 4.28631L5.83454 3.97481L6.01304 3.70551L6.40564 3.18971L6.64894 2.92361L6.94744 2.63481L7.16164 2.45311L7.47954 2.20981L7.93374 1.92101L8.41394 1.67121L8.79684 1.51221L9.09854 1.40841L9.27374 1.37271L9.44244 1.36621L9.53654 1.39221L9.60474 1.44411L9.92594 1.79451L10.0232 1.90811L10.3477 2.26821L10.5326 2.47591L11.3145 3.32921L11.4768 3.49461L11.5708 3.60491L12.3009 4.38691L12.3658 4.42581L12.4274 4.43551L12.5702 4.40961L12.6545 4.41281L12.7129 4.45181L12.833 4.58151L12.9011 4.66911L12.979 4.76001L12.9887 4.81191L12.9563 4.89301L12.9011 5.03251L12.8492 5.05521L12.6253 5.12661L12.1354 5.34731L11.8337 5.50951L11.1166 5.98641L10.7597 6.26871L10.2958 6.69051L9.89344 7.08961L9.60474 7.43351L9.41974 7.66711L9.13104 8.06621L8.84224 8.53011L8.69304 8.80271L8.60214 9.01031L8.54374 9.18551L8.52424 9.20821L8.45614 9.22121L8.38154 9.23091L8.31984 9.25691Z" fill="#EFF2FF"/>
<path d="M7.57901 9.1727L7.54331 9.15L7.41671 9.0202L7.35511 8.9326L7.07931 8.54L6.88461 8.2318L6.74511 7.9755L6.70301 7.8651L6.69971 7.8457L6.74841 7.8619L6.99821 8.1052L7.40381 8.5692L7.48491 8.699L7.49791 8.7671L7.46871 8.9358L7.49141 9.0137L7.57901 9.1467V9.1727Z" fill="#EFF2FF"/>
<path d="M8.09491 7.8519L7.96511 7.8487L7.81911 7.8097L7.66011 7.7221L7.50111 7.5988L7.30001 7.3847L7.05991 7.0732L6.89771 6.8007L6.81001 6.5865L6.76141 6.4016L6.74521 6.2264L6.76461 6.0707L6.81331 5.8857L6.92361 5.6554L6.91711 5.6002L6.81981 5.4477L6.60241 5.1655L6.49211 5.0065L6.27791 4.7274L6.23901 4.6431L6.25201 4.5717L6.34281 4.416L6.42071 4.3057L6.46941 4.2959L6.50511 4.3154L6.77111 4.6431L8.00401 6.2459L8.35771 6.7163L8.54911 6.9597L8.69191 7.1446L8.70481 7.19L8.70161 7.2452L8.53611 7.5177L8.41281 7.6735L8.31231 7.7578L8.20191 7.8195L8.09491 7.8519Z" fill="#7A8C9F"/>
<path d="M8.03006 7.28101L7.93266 7.27451L7.81586 7.22581L7.70236 7.13501L7.55956 6.98251L7.34546 6.68081L7.26106 6.5218L7.20916 6.366L7.19946 6.31091L7.20266 6.20711L7.23186 6.1195L7.25456 6.09351H7.29676L7.35836 6.16161L8.08516 7.08961L8.13056 7.17391L8.12406 7.20961L8.08516 7.25181L8.03006 7.28101Z" fill="#EFF2FF"/>
<path d="M8.81829 7.05381L8.77609 7.03111L8.36079 6.29131L7.90329 5.49961L7.34529 4.48091L6.92669 3.68921L6.91699 3.63081L6.95269 3.55621L7.07269 3.41341L7.12789 3.36481L7.18299 3.31281L7.23169 3.29991L7.28039 3.32581L7.42639 3.46531L7.51719 3.56271L8.62359 4.71771L8.81179 4.90271L8.83129 4.90591L8.82149 4.86701L8.51979 4.39001L7.70539 3.14741L7.62109 2.99811V2.93651L7.68269 2.85861L7.88709 2.70611L7.97469 2.67041L8.01689 2.67691L8.20179 2.83271L8.31209 2.93651L9.96029 4.51331L10.632 5.15251L10.6709 5.21091L10.6612 5.25961L10.5573 5.34391L10.3627 5.47041L10.3108 5.48341L10.2556 5.45751L10.155 5.35691L9.81109 5.00651L9.64889 4.84751L9.51259 4.69831L9.41199 4.59441L8.86689 4.02661L8.56849 3.69891L8.50359 3.66331L8.52299 3.71521L8.60739 3.86121L8.92859 4.36411L9.31469 4.98701L9.49309 5.25961L9.65539 5.51591L9.86299 5.83711L9.87919 5.89871L9.84999 5.95061L9.60349 6.18421L9.56129 6.20371L9.51579 6.19401L9.43149 6.11611L8.97079 5.62621L8.69819 5.32771L7.84489 4.44521L7.80269 4.41601L7.79629 4.43541L7.84819 4.54581L8.41269 5.49321L9.06489 6.65151L9.08759 6.73261L9.06159 6.79101L8.87019 7.02131L8.81829 7.05381Z" fill="#7A8C9F"/>
<path d="M5.01437 5.32472L4.97227 5.31172L4.88137 5.20472L4.85547 5.13982L4.86197 5.01322L4.88787 4.87702L5.00147 4.54932L5.14417 4.22812L5.35837 3.84522L5.70877 3.32932L5.78987 3.20932L5.96177 3.00812L6.09487 2.84272L6.14997 2.78752L6.45827 2.45982L6.60427 2.31702L6.72757 2.21322L6.88647 2.07372L7.29207 1.77202L7.71387 1.51892L8.12267 1.29832L8.51197 1.12632L8.83647 1.02572L9.04737 0.986816L9.14147 0.990016L9.19657 1.01282L9.30367 1.11982L9.32317 1.16202L9.30687 1.18152L8.97917 1.24642L8.59957 1.37612L8.10317 1.60972L7.75277 1.80122L7.26287 2.12892L6.90277 2.41762L6.64967 2.64472L6.38357 2.92702L6.01377 3.38122L5.77037 3.72192L5.48167 4.18912L5.26747 4.61422L5.14747 4.91912L5.04037 5.29882L5.01437 5.32472Z" fill="#EFF2FF"/>
<path d="M10.9554 4.97432L10.7834 4.94842L10.6341 4.89322L10.4849 4.80242L10.1734 4.52982L10.0664 4.40652L10.0534 4.37082L10.0696 4.33192L10.154 4.27672L10.3551 4.16972L10.407 4.16642L10.4525 4.19242L10.5563 4.29302L10.6536 4.38062L10.7769 4.46172L10.897 4.49092L10.9586 4.47792L11.0073 4.43902L11.0267 4.37082L10.9975 4.28652L10.9002 4.17292L10.7964 4.08532L10.5693 3.94262L10.2772 3.79982L9.76457 3.58242L9.29417 3.35212L9.01837 3.16392L8.86907 3.01792L8.75557 2.86542L8.69387 2.71292L8.66797 2.57342L8.67767 2.44362L8.71007 2.32682L8.78477 2.21322L8.88537 2.12242L9.00537 2.06722L9.17737 2.02832H9.35907L9.50177 2.06072L9.69647 2.14192L9.95597 2.31062L10.1475 2.48582L10.1896 2.55392L10.1702 2.59932L10.0436 2.67072L9.88137 2.73882L9.82297 2.74212L9.75487 2.69992L9.61537 2.57662L9.47907 2.49882L9.35257 2.46632L9.27137 2.47932L9.22277 2.52472L9.20007 2.58312L9.20327 2.65122L9.24217 2.72912L9.34277 2.82972L9.53747 2.95952L9.75807 3.07952L9.86517 3.11852L9.91707 3.13792L9.97227 3.17042L10.4914 3.38772L10.7607 3.52402L11.0332 3.68622L11.2019 3.82252L11.3252 3.95232L11.4355 4.10802L11.4939 4.23132L11.5296 4.38382L11.5329 4.50392L11.5134 4.61092L11.455 4.71482L11.3739 4.81532L11.2603 4.89322L11.1273 4.94842L11.0235 4.96782L10.9554 4.97432Z" fill="#7A8C9F"/>
<path d="M12.9586 4.08517L12.9067 4.04627L12.7997 3.95217L12.7283 3.92297L12.6472 3.92947L12.5855 3.94887L12.5206 3.93917L12.4071 3.83857L12.1702 3.57907L11.7387 3.12477L11.7192 3.07617L11.7809 3.08587L12.0664 3.26107L12.446 3.54007L12.751 3.81267L12.9489 4.03327L12.9684 4.07547L12.9586 4.08517Z" fill="#EFF2FF"/>
<path d="M16.2938 36.9749C16.9232 36.9749 17.4391 37.4875 17.4391 38.1202C17.4391 38.7496 16.9264 39.2655 16.2938 39.2655C15.6611 39.2655 15.1484 38.7528 15.1484 38.1202C15.1484 37.4875 15.6611 36.9749 16.2938 36.9749ZM16.2938 39.0124C16.748 39.0124 17.1081 38.6523 17.1081 38.1202C17.1081 37.5946 16.748 37.2279 16.2938 37.2279C15.833 37.2279 15.4794 37.5913 15.4794 38.1202C15.4794 38.649 15.833 39.0124 16.2938 39.0124ZM15.833 37.481H16.31C16.6344 37.481 16.8194 37.5751 16.8194 37.8606C16.8194 38.091 16.6798 38.1851 16.4819 38.2013L16.8194 38.7528H16.5403L16.2354 38.2143H16.1056V38.7528H15.833V37.481ZM16.3294 38.0034C16.4592 38.0034 16.5468 37.9807 16.5468 37.8347C16.5468 37.7049 16.4073 37.6886 16.3002 37.6886H16.1056V38.0034H16.3294Z" fill="#7A8C9F"/>
<path d="M11.7616 36.0663L11.7 36.0598V36.0436L11.7551 36.0403L11.7746 36.05L11.7616 36.0663Z" fill="white"/>
<path d="M30.8816 7.34912C29.1068 7.34912 27.0368 8.14732 27.0368 10.399C27.0368 11.8655 28.0621 12.43 29.0517 12.9751C29.8628 13.4196 30.6285 13.8414 30.6285 14.7336C30.6285 15.9081 29.5805 16.4338 28.539 16.4338C27.6176 16.4338 26.7545 16.0866 26.0083 15.7524C25.9629 15.9017 25.5573 17.2157 25.5151 17.352C26.5501 17.7153 27.5267 17.9068 28.419 17.9068C29.6973 17.9068 32.6725 17.5791 32.6725 14.5292C32.6725 12.9394 31.5467 12.2873 30.5506 11.7097C29.7947 11.2717 29.0776 10.8564 29.0776 10.0907C29.0776 9.21472 30.0055 8.82212 30.927 8.82212C31.6246 8.82212 32.3935 9.01362 33.0619 9.33152C33.1041 9.18882 33.4739 7.92022 33.5129 7.78712C32.7666 7.49842 31.8841 7.34912 30.8816 7.34912Z" fill="#7A8C9F"/>
<path d="M34.6982 9.52612H36.353L35.6554 12.8031H38.9875L39.6851 9.52612H41.3398L39.6137 17.6342H37.959L38.715 14.0782H35.3828L34.6269 17.6342H32.9722L34.6982 9.52612Z" fill="#7A8C9F" stroke="#7A8C9F" stroke-width="0.45" stroke-miterlimit="3.8637"/>
<path d="M42.7516 9.52612H47.6086L47.3621 10.8045H44.1338L43.7087 12.8031H46.5931L46.3335 14.0814H43.4394L42.956 16.3591H46.2167L45.9345 17.6374H41.019L42.7516 9.52612Z" fill="#7A8C9F" stroke="#7A8C9F" stroke-width="0.45" stroke-miterlimit="3.8637"/>
<path d="M49.0303 9.52613H50.9802C52.5052 9.52613 54.2669 9.50343 54.2669 11.4436C54.2669 12.8355 53.2027 13.5818 51.8563 13.6045V13.6272C52.304 13.6499 52.5895 13.9289 52.6966 14.3702L53.4882 17.6342H51.7492L51.3469 15.7296C51.1587 14.8699 51.2041 14.2664 50.3054 14.2664H49.6792L48.9589 17.6342H47.3042L49.0303 9.52613ZM49.9744 12.988H50.5779C51.4637 12.988 52.5408 12.722 52.5408 11.6513C52.5408 10.8012 51.7946 10.8012 51.123 10.8012H50.4384L49.9744 12.988Z" fill="#7A8C9F" stroke="#7A8C9F" stroke-width="0.45" stroke-miterlimit="3.8637"/>
<path d="M55.2188 9.52612H56.8734L57.1232 15.7394H57.146L59.8876 9.52612H62.1068L62.1424 15.7394H62.1652L65.082 9.52612H66.7983L62.8627 17.6342H60.796L60.7149 11.1516H60.6921L57.7851 17.6342H55.741L55.2188 9.52612Z" fill="#7A8C9F" stroke="#7A8C9F" stroke-width="0.45" stroke-miterlimit="3.8637"/>
<path d="M67.7112 9.52612H69.4373L67.6982 17.6342H65.9722L67.7112 9.52612Z" fill="#7A8C9F" stroke="#7A8C9F" stroke-width="0.45" stroke-miterlimit="3.8637"/>
<path d="M70.9624 9.52612H73.0551L74.8169 15.681H74.8396L76.1861 9.52612H77.7467L75.9622 17.6342H73.8338L72.1077 11.4209H72.085L70.7742 17.6342H69.1909L70.9624 9.52612Z" fill="#7A8C9F" stroke="#7A8C9F" stroke-width="0.45" stroke-miterlimit="3.8637"/>
<path d="M78.855 28.0425C79.484 28.0425 80 28.5551 80 29.1878C80 29.8205 79.488 30.3331 78.855 30.3331C78.222 30.3331 77.7097 29.8205 77.7097 29.1878C77.7097 28.5551 78.222 28.0425 78.855 28.0425ZM78.855 30.0801C79.309 30.0801 79.669 29.7167 79.669 29.1878C79.669 28.6622 79.306 28.2956 78.855 28.2956C78.394 28.2956 78.041 28.659 78.041 29.1878C78.041 29.7167 78.394 30.0801 78.855 30.0801ZM78.394 28.5454H78.871C79.196 28.5454 79.381 28.6395 79.381 28.925C79.381 29.1554 79.241 29.2495 79.043 29.2657L79.381 29.8172H79.102L78.797 29.2787H78.667V29.8172H78.394V28.5454ZM78.887 29.071C79.017 29.071 79.108 29.0483 79.108 28.9023C79.108 28.7725 78.969 28.7563 78.862 28.7563H78.667V29.071H78.887Z" fill="#7A8C9F"/>
<path d="M33.3473 27.9551L33.1948 27.9292C33.1948 27.9292 33.1526 20.178 33.1526 20.0515C33.0326 20.0515 30.6998 20.0515 30.6187 20.0515C30.5862 20.1294 27.3742 27.9519 27.3742 27.9519L27.2217 27.9292C27.2217 27.9292 26.9329 20.1748 26.9297 20.0515C26.8161 20.0515 25.2166 20.0515 25.0933 20.0515C25.103 20.1845 25.6967 30.1614 25.7032 30.2814C25.8168 30.2814 27.9517 30.2814 28.0328 30.2814C28.062 30.2068 31.472 22.0436 31.472 22.0436L31.6245 22.0663C31.6245 22.0663 31.7218 30.1582 31.7218 30.2847C31.8419 30.2847 33.9995 30.2847 34.0773 30.2847C34.113 30.2101 38.6196 20.2332 38.7008 20.0547C38.5223 20.0547 36.8838 20.0547 36.806 20.0547C36.7703 20.1294 33.3473 27.9551 33.3473 27.9551Z" fill="#7A8C9F"/>
<path d="M38.6888 22.115H40.2949L38.6759 30.223H37.0698L38.6888 22.115Z" fill="#7A8C9F" stroke="#7A8C9F" stroke-width="0.45" stroke-miterlimit="3.8637"/>
<path d="M41.7259 22.115H43.2671L41.8914 28.9447H44.9055L44.6427 30.223H40.0972L41.7259 22.115Z" fill="#7A8C9F" stroke="#7A8C9F" stroke-width="0.45" stroke-miterlimit="3.8637"/>
<path d="M47.2259 22.115H48.7671L47.3914 28.9447H50.4055L50.1427 30.223H45.5972L47.2259 22.115Z" fill="#7A8C9F" stroke="#7A8C9F" stroke-width="0.45" stroke-miterlimit="3.8637"/>
<path d="M52.6504 22.115H54.2565L52.6407 30.223H51.0347L52.6504 22.115Z" fill="#7A8C9F" stroke="#7A8C9F" stroke-width="0.45" stroke-miterlimit="3.8637"/>
<path d="M58.0997 22.115H59.8063L61.2047 30.223H59.6636L59.3975 28.3639H56.1303L55.1505 30.223H53.4438L58.0997 22.115ZM56.8117 27.0888H59.1899L58.7064 23.5588H58.661L56.8117 27.0888Z" fill="#7A8C9F" stroke="#7A8C9F" stroke-width="0.45" stroke-miterlimit="3.8637"/>
<path d="M63.6628 22.115H66.2065L66.7223 27.9583H66.745L69.7722 22.115H72.3353L70.6969 30.223H69.0681L70.5184 23.5101H70.4957L67.0176 30.223H65.5413L64.9249 23.5101H64.9022L63.494 30.223H62.0308L63.6628 22.115Z" fill="#7A8C9F" stroke="#7A8C9F" stroke-width="0.45" stroke-miterlimit="3.8637"/>
<path d="M77.4401 23.6722C76.9892 23.4288 76.4051 23.2536 75.8438 23.2536C75.2955 23.2536 74.5558 23.4872 74.5558 24.1816C74.5558 25.4826 77.1741 25.4015 77.1741 27.6564C77.1741 29.6421 75.7011 30.3624 74.0172 30.3624C73.2807 30.3624 72.5215 30.1774 71.8271 29.9114L72.223 28.5292C72.8167 28.818 73.4429 29.0873 74.1048 29.0873C74.8445 29.0873 75.5681 28.6914 75.5681 27.8219C75.5681 26.3586 72.9497 26.5922 72.9497 24.4281C72.9497 22.7215 74.3352 21.9785 75.8114 21.9785C76.483 21.9785 77.1773 22.0726 77.8035 22.3387L77.4401 23.6722Z" fill="#7A8C9F" stroke="#7A8C9F" stroke-width="0.45" stroke-miterlimit="3.8637"/>
</svg>
