<svg width="97" height="21" viewBox="0 0 97 21" fill="none" xmlns="http://www.w3.org/2000/svg">
<path fill-rule="evenodd" clip-rule="evenodd" d="M24.7965 5.55758H29.0319V17.4601H32.5514V5.55758H36.7873V2.54448H24.7965V5.55758ZM33.5659 17.4601H37.2645L38.3185 14.4475H42.6329L43.6479 17.4601H47.287L42.1562 2.545H38.3082L33.5659 17.4601V17.4601ZM41.6169 11.7367H39.0482L40.3392 8.14682L41.6169 11.7367ZM47.5856 17.4601H50.9856V12.0907H53.4322C53.9484 12.0907 54.5478 11.9968 54.8541 12.4166C55.1605 12.8363 55.1317 13.567 55.121 14.3223C55.1091 15.0776 55.1127 15.8566 55.2841 16.4123C55.4545 16.968 55.7613 17.4601 56.2062 17.4601H59.2778C58.9251 17.0893 58.675 16.633 58.5522 16.1362C58.4311 15.6364 58.4481 15.092 58.4701 14.4886C58.4922 13.8857 58.5184 13.2242 58.4481 12.6819C58.3788 12.1384 58.2146 11.7146 57.9457 11.379C57.6736 11.0431 57.3076 10.7959 56.8943 10.6688C57.5429 10.2034 58.0868 9.5841 58.4178 8.92729C58.7478 8.271 58.8637 7.57776 58.9079 6.8912C58.952 6.20463 58.9227 5.52525 58.7062 4.87973C58.4886 4.23422 58.0838 3.62206 57.5388 3.20232C56.9883 2.77988 56.3147 2.54905 55.6207 2.545H47.5851V17.4601H47.5856V17.4601ZM54.9347 5.84544C55.3436 6.11586 55.593 6.61206 55.5869 7.11441C55.5807 7.37099 55.5144 7.62254 55.3933 7.84882C55.2721 8.0751 55.0996 8.26979 54.8895 8.41724C54.4626 8.71075 53.8894 8.64815 53.3563 8.64815H50.9831V5.70074H53.4866C53.9864 5.70074 54.5247 5.57502 54.9347 5.84544V5.84544ZM60.6889 5.18453C60.1778 5.93986 59.8012 6.82654 59.5965 7.96056C59.3922 9.09457 59.3589 10.4764 59.5431 11.6823C59.7263 12.8886 60.1276 13.9185 60.6145 14.7169C61.1015 15.5153 61.6746 16.0813 62.2991 16.5647C62.9236 17.0481 63.5968 17.4483 64.3568 17.6731C65.1227 17.8945 65.9271 17.9498 66.7161 17.8352C67.4751 17.7223 68.1483 17.4468 68.6732 17.2082C69.1971 16.969 69.5733 16.7669 69.9258 16.5298L70.5231 17.4596H72.7311L72.7259 9.09714H66.4021V12.0148H69.3675C69.4829 12.5182 69.4137 13.0693 69.1581 13.528C68.9026 13.9862 68.4598 14.3521 67.8322 14.6107C67.2046 14.8688 66.3929 15.0192 65.6021 14.7795C64.8124 14.5399 64.0448 13.9103 63.5388 13.1893C63.0339 12.4694 62.7902 11.6576 62.6829 10.7592C62.5767 9.86118 62.607 8.87598 62.822 8.017C63.037 7.15802 63.4372 6.42425 63.9396 5.89573C64.4425 5.36721 65.048 5.04445 65.8105 4.90642C66.573 4.76839 67.492 4.81611 68.1047 5.15785C68.7179 5.49959 69.0247 6.13485 69.2012 6.53868C69.3778 6.94251 69.425 7.11441 69.4306 7.29092H72.6074C72.5602 6.63104 72.3729 5.98604 71.9942 5.24919C71.6145 4.51233 71.0449 3.68466 70.2352 3.10123C69.4255 2.51781 68.3761 2.17965 67.4037 2.05137C66.5089 1.92903 65.5986 1.98925 64.7278 2.2284C63.9222 2.45161 63.2053 2.81644 62.5249 3.31007C61.8445 3.80524 61.1995 4.42921 60.6889 5.18453V5.18453ZM84.4833 17.4601V14.4475H77.4739V10.987L83.4981 10.9747L83.4991 8.24278H77.4739V5.55809H84.4833V2.545L73.9672 2.54705L73.9841 17.4601H84.4833V17.4601ZM84.9908 5.55758H89.2272V17.4601H92.7467V5.55758H96.9821V2.54448H84.9908V5.55758V5.55758ZM94.4447 16.791H94.6381V16.7535C94.6099 16.754 94.5709 16.7448 94.554 16.7073L94.4067 16.4631C94.5468 16.4185 94.6032 16.2383 94.458 16.1424C94.3949 16.1085 94.3405 16.1034 94.2594 16.1013H93.9018V16.1347C93.9418 16.1249 94.0142 16.1547 93.9988 16.2065C93.9957 16.3795 94.007 16.5416 93.9905 16.7253C93.9603 16.7643 93.9454 16.7494 93.9054 16.7535V16.791H94.2553V16.7535C94.2173 16.7628 94.1429 16.734 94.1583 16.6817V16.4631H94.2553L94.4447 16.791ZM94.1578 16.4287V16.147C94.243 16.1429 94.3754 16.1598 94.3754 16.2609C94.3826 16.3015 94.3754 16.4185 94.2753 16.4261C94.2399 16.4318 94.1968 16.4282 94.1578 16.4287V16.4287ZM94.242 17.1025C94.3651 17.1025 94.4985 17.0681 94.6258 16.9773C94.9383 16.7186 94.9845 16.3959 94.7741 16.0649C94.5145 15.7493 94.1907 15.7026 93.8551 15.9156C93.5405 16.1737 93.4944 16.4965 93.7058 16.8279C93.8561 17.0281 94.0526 17.1004 94.242 17.1025V17.1025ZM94.242 17.0306C94.1337 17.0306 94.0147 16.9998 93.9013 16.9193C93.6216 16.6884 93.5795 16.4015 93.7689 16.1029C93.9982 15.8243 94.2871 15.7837 94.5827 15.972C94.8624 16.2019 94.9044 16.4908 94.7161 16.7859C94.5827 16.9639 94.4072 17.0291 94.242 17.0306V17.0306Z" fill="#7A8C9F"/>
<path fill-rule="evenodd" clip-rule="evenodd" d="M12.9802 7.35562C12.4538 7.05185 11.8457 6.88867 11.2377 6.88867C10.6296 6.88867 10.0215 7.05185 9.49506 7.35562C8.96571 7.66249 8.52578 8.10242 8.2189 8.63177C7.91408 9.16202 7.75311 9.76272 7.75195 10.3743C7.75195 10.9829 7.91513 11.591 8.2189 12.1174C8.52319 12.6439 8.96807 13.0893 9.49506 13.3931C10.022 13.6969 10.6296 13.86 11.2377 13.86C11.8457 13.86 12.4538 13.6974 12.9802 13.3931C13.5067 13.0888 13.9521 12.6439 14.2564 12.1174C14.5613 11.587 14.7223 10.9861 14.7233 10.3743C14.7233 9.76629 14.5607 9.15824 14.2564 8.63177C13.9495 8.10242 13.5096 7.66249 12.9802 7.35562V7.35562Z" fill="#7A8C9F"/>
<path fill-rule="evenodd" clip-rule="evenodd" d="M20.0758 5.26752C19.1834 3.72146 17.8765 2.41452 16.3309 1.52218C14.7854 0.629848 12.9997 0.151611 11.2145 0.151611C9.42933 0.151611 7.64466 0.629848 6.0986 1.52218C4.54491 2.42266 3.25374 3.71383 2.35326 5.26752C1.46042 6.81358 0.982178 8.59876 0.982178 10.3839C0.982178 12.1691 1.46042 13.9543 2.35326 15.5004C3.25344 17.0543 4.54467 18.3455 6.0986 19.2457C7.65505 20.1413 9.41878 20.614 11.2145 20.6168C12.9997 20.6168 14.7849 20.1386 16.3309 19.2457C17.877 18.3534 19.1834 17.0464 20.0758 15.5004C20.9681 13.9543 21.4463 12.1691 21.4463 10.3839C21.4463 8.59876 20.9681 6.81307 20.0758 5.26752ZM17.0775 13.7675C16.4841 14.792 15.6328 15.6433 14.6084 16.2367C13.5819 16.8269 12.419 17.1384 11.235 17.1403C10.0584 17.1403 8.88182 16.8253 7.86223 16.2367C6.84315 15.6482 5.98161 14.7866 5.39305 13.7675C4.80449 12.7484 4.48942 11.5713 4.48942 10.3947C4.48942 9.2176 4.80449 8.04048 5.39305 7.0214C5.98161 6.00232 6.84315 5.14026 7.86223 4.55222C8.88841 3.96191 10.0512 3.65038 11.235 3.64859C12.4122 3.64859 13.5888 3.96366 14.6084 4.55222C15.6327 5.1458 16.484 5.99704 17.0775 7.0214C17.6681 8.0477 17.9798 9.21065 17.9817 10.3947C17.9795 11.5786 17.6678 12.7413 17.0775 13.7675V13.7675Z" fill="#7A8C9F"/>
</svg>
