<svg width="92" height="13" viewBox="0 0 92 13" fill="none" xmlns="http://www.w3.org/2000/svg">
<path d="M63.2125 0.5151L60.881 0.5212V12.4909H71.5732C72.7427 11.9944 73.3691 11.1361 73.6112 10.1339H63.2064L63.2125 0.5151ZM80.6602 2.907H89.579C90.818 2.6617 91.741 1.5672 92 0.5091H78.2379C78.4951 1.5672 79.4316 2.6617 80.6602 2.907ZM51.7758 2.8737C53.015 2.5134 54.0589 1.5672 54.3131 0.5182H41.2258V7.5907H51.9377V10.0734L43.5361 10.0809C42.2183 10.4473 41.1047 11.3313 40.5465 12.5L41.2258 12.4879H54.2405V5.2398H43.5361V2.8737H51.7758ZM78.598 12.4879H80.9174V7.6694H89.361V12.4879H91.679V5.2609L78.598 5.2488V12.4879ZM23.2001 2.8994H32.1176C33.3583 2.6526 34.2797 1.5582 34.5384 0.5H20.7778C21.035 1.5582 21.97 2.6526 23.2001 2.8994ZM0 0.5273C0.2678 1.5748 1.1741 2.642 2.4162 2.9115H6.1699L6.3606 2.9872V12.4637H8.7057V2.9872L8.9175 2.9115H12.6758C13.93 2.5876 14.8166 1.5748 15.0814 0.5273V0.504499H0V0.5273ZM23.2001 12.4894H32.1176C33.3583 12.2411 34.2797 11.1497 34.5384 10.09H20.7778C21.035 11.1497 21.97 12.2411 23.2001 12.4894ZM23.2001 7.6301H32.1176C33.3583 7.3848 34.2797 6.2903 34.5384 5.2322H20.7778C21.035 6.2903 21.97 7.3848 23.2001 7.6301Z" fill="#7A8C9F"/>
</svg>
