<svg width="95" height="30" viewBox="0 0 95 30" fill="none" xmlns="http://www.w3.org/2000/svg">
<path fill-rule="evenodd" clip-rule="evenodd" d="M0.517325 11.9599C-4.01676 22.9709 27.0693 31.4518 28.3361 18.6982C29.0312 11.7164 25.2889 3.6008 15.5834 2.7447C7.03663 1.9952 3.20923 5.4233 0.517325 11.9599Z" fill="#EFF2FF"/>
<path fill-rule="evenodd" clip-rule="evenodd" d="M13.363 2.70691C6.99439 2.70691 3.43739 5.4653 0.606492 11.922C-0.223908 13.8168 0.0657923 15.7496 1.34029 17.614C4.15959 21.7383 11.7177 24.8507 18.5923 24.8507C24.3429 24.8507 28.0274 22.7314 28.2707 18.6907C28.5256 14.4598 27.506 10.3849 25.0304 7.44381C22.7749 4.75761 19.5462 3.3879 15.715 2.8705C14.9503 2.7677 14.0659 2.70691 13.363 2.70691ZM18.5923 25.155C11.6791 25.155 3.86219 22.0161 1.20509 17.7509C-0.0424072 15.7534 -0.374508 13.9157 0.459692 11.941C3.30609 5.19901 7.35739 2.27311 13.7994 2.41011C14.5023 2.42531 15.3249 2.4672 16.0973 2.5356C20.0599 2.8857 22.8637 4.63971 25.1308 7.36391C27.5832 10.3088 28.6067 14.4294 28.3981 18.7059C28.1973 22.8189 24.4163 25.155 18.5923 25.155Z" fill="#7A8C9F"/>
<path fill-rule="evenodd" clip-rule="evenodd" d="M37.6053 23.3248L37.5088 23.2601C35.9678 22.2785 34.5775 20.7337 33.8784 19.2347C33.1987 17.766 32.9168 15.875 32.8743 12.4812V12.3062H34.7126L34.7165 12.4774C34.7976 17.3551 35.319 18.9227 37.6092 21.0381C39.8994 19.0178 40.4981 17.2143 40.4981 12.4812V12.3062H42.3828L42.3789 12.485C42.3132 16.0615 42.0468 17.8345 41.3516 19.2613C40.6487 20.749 39.3201 22.21 37.7058 23.2639L37.6053 23.3248Z" fill="#7A8C9F"/>
<path fill-rule="evenodd" clip-rule="evenodd" d="M48.8749 23.0584C45.6461 23.0584 43.1165 20.65 43.1165 17.5757C43.1165 14.589 45.6036 12.1577 48.6586 12.1577C50.7866 12.1577 52.5207 13.1888 53.5364 15.0646L53.6098 15.1939L46.5923 20.6005C47.3068 21.1142 47.9209 21.293 48.9173 21.293C50.0103 21.293 50.802 21.0723 52.2928 20.357L52.4859 20.2657L52.9957 22.0311L52.8567 22.0958C51.3273 22.7769 50.1764 23.0584 48.8749 23.0584ZM48.6817 13.7976C46.6039 13.7976 44.9741 15.4679 44.9741 17.5948C44.9741 18.3063 45.0745 18.6905 45.4414 19.2993L51.1265 14.882C50.4467 14.1134 49.7245 13.7976 48.6817 13.7976Z" fill="#7A8C9F"/>
<path fill-rule="evenodd" clip-rule="evenodd" d="M56.2605 22.8682H54.4453V17.8687C54.4453 15.8712 54.6693 14.9657 55.4031 14.0031C56.2682 12.8616 57.7049 12.1577 59.1493 12.1577C59.2807 12.1577 59.4583 12.1577 59.7209 12.1806L59.887 12.1958V14.0107L59.524 13.9764C59.3734 13.9612 59.2459 13.9498 59.1725 13.9498C58.2881 13.9498 57.4153 14.3911 56.8939 15.1026C56.4227 15.7494 56.2644 16.4495 56.2644 17.8725V22.8682H56.2605Z" fill="#7A8C9F"/>
<path fill-rule="evenodd" clip-rule="evenodd" d="M65.2772 23.0585C62.1798 23.0585 59.7544 20.6653 59.7544 17.6177C59.7544 14.6081 62.23 12.1541 65.2772 12.1541C66.9881 12.1541 68.6681 12.9835 69.6684 14.319C70.5065 15.449 70.8193 16.6703 70.8193 18.82V22.8645H68.981V21.6165L68.7067 21.9019C67.5945 22.7237 66.598 23.0585 65.2772 23.0585ZM65.3004 13.9233C63.2805 13.9233 61.6352 15.5707 61.6352 17.5949C61.6352 19.6304 63.2573 21.2893 65.254 21.2893C66.4088 21.2893 67.4014 20.8327 68.4789 19.8169L68.981 19.2994V18.8428C68.981 17.066 68.8303 16.2975 68.3437 15.5555C67.7219 14.5777 66.4976 13.9233 65.3004 13.9233Z" fill="#7A8C9F"/>
<path d="M74.5964 8.41382H72.7581V22.8682H74.5964V8.41382Z" fill="#7A8C9F"/>
<path d="M78.4626 8.41382H76.6243V22.8682H78.4626V8.41382Z" fill="#7A8C9F"/>
<path d="M82.4289 12.3025H80.5906V22.8683H82.4289V12.3025Z" fill="#7A8C9F"/>
<path fill-rule="evenodd" clip-rule="evenodd" d="M81.5214 10.6473C80.8687 10.6473 80.3357 10.1223 80.3357 9.47552C80.3357 8.82862 80.8571 8.32642 81.5214 8.32642C82.1547 8.32642 82.6877 8.85152 82.6877 9.47552C82.6839 10.1223 82.1625 10.6473 81.5214 10.6473Z" fill="#7A8C9F"/>
<path fill-rule="evenodd" clip-rule="evenodd" d="M89.452 23.0585C86.355 23.0585 83.9297 20.6653 83.9297 17.6177C83.9297 14.6081 86.405 12.1541 89.452 12.1541C91.163 12.1541 92.843 12.9835 93.844 14.319C94.682 15.449 94.995 16.6703 94.995 18.82V22.8645H93.156V21.6432L92.882 21.9019C91.77 22.7237 90.773 23.0585 89.452 23.0585ZM89.476 13.9233C87.456 13.9233 85.8144 15.5707 85.8144 17.5949C85.8144 19.6304 87.436 21.2893 89.433 21.2893C90.588 21.2893 91.581 20.8327 92.658 19.8169L93.16 19.3261V18.8428C93.16 17.066 93.009 16.2975 92.523 15.5555C91.897 14.5777 90.669 13.9233 89.476 13.9233Z" fill="#7A8C9F"/>
<path fill-rule="evenodd" clip-rule="evenodd" d="M25.6829 25.2957C24.6363 26.4219 21.9637 27.8297 21.9637 27.8297C20.8398 28.4993 18.9551 29.1271 18.9551 29.1271C17.5184 29.6065 16.0662 29.2869 16.0662 29.2869C13.7181 28.8836 12.2119 26.9584 12.2119 26.9584C11.0687 25.6305 11.1884 24.9532 11.1884 24.9532C11.2425 24.5119 11.9647 24.4891 11.9647 24.4891C12.1153 24.4016 12.7564 24.5043 12.7564 24.5043C13.0499 24.5195 15.5101 24.8505 15.5101 24.8505C15.8229 24.9761 18.4067 25.0636 18.4067 25.0636C19.9168 25.1891 22.8211 24.6641 22.8211 24.6641C23.9527 24.4929 25.2658 23.8461 25.2658 23.8461C25.6983 23.5949 26.297 23.4123 26.297 23.4123C27.3281 22.7845 27.3204 23.0356 27.3204 23.0356C27.2972 23.8308 25.6829 25.2957 25.6829 25.2957ZM28.761 15.4756C25.9455 9.45262 19.5769 7.96492 13.6177 8.91232C4.12849 10.4228 8.93679 33.3732 19.8859 28.9292C25.5284 26.6388 32.0206 22.4497 28.761 15.4756Z" fill="#7A8C9F"/>
<path fill-rule="evenodd" clip-rule="evenodd" d="M26.6088 12.3976C26.6088 12.3976 26.1685 11.6519 25.1952 10.967C25.1952 10.967 23.4612 9.4946 20.7577 8.9315C20.7577 8.9315 18.4752 8.4901 17.6603 8.688C17.6603 8.688 17.1428 8.6956 17.0617 9.057C17.0617 9.057 17.0076 9.3081 17.0539 9.4109L17.0848 9.7191C17.0848 9.7191 17.2779 10.2479 17.3165 10.286C17.3165 10.286 18.2666 12.0324 19.7922 12.896C19.7922 12.896 21.4838 14.0984 24.025 13.8777C24.025 13.8777 25.1334 13.7749 25.7591 13.4858C25.7552 13.4858 27.0413 13.1167 26.6088 12.3976Z" fill="#7A8C9F"/>
<path fill-rule="evenodd" clip-rule="evenodd" d="M28.6037 3.06428C26.2362 0.157485 21.9416 -0.299115 19.0141 2.05608C16.0828 4.40738 15.6309 8.67638 17.9945 11.5908C20.362 14.5015 24.6528 14.9543 27.5841 12.6029C30.5154 10.244 30.9712 5.97878 28.6037 3.06428Z" fill="#EFF2FF"/>
<path fill-rule="evenodd" clip-rule="evenodd" d="M28.6028 3.0644L28.6414 3.034C27.282 1.3675 25.2968 0.5 23.2924 0.5C21.7785 0.5 20.2529 0.998401 18.9823 2.0181C17.3023 3.365 16.4294 5.3397 16.4294 7.3296C16.4294 8.8363 16.9277 10.3544 17.955 11.6176C19.3106 13.2879 21.2957 14.1515 23.3001 14.1515C24.8179 14.1515 26.3435 13.6569 27.6141 12.6372C29.2902 11.2865 30.1631 9.3119 30.1631 7.3182C30.1631 5.8115 29.6649 4.2934 28.6337 3.0302L28.6028 3.0644L28.5642 3.0949C29.576 4.339 30.0704 5.8381 30.0704 7.322C30.0704 9.2852 29.2091 11.2333 27.5562 12.5649C26.301 13.5694 24.7986 14.0602 23.304 14.0602C21.3305 14.0602 19.3724 13.2079 18.0361 11.5605C17.0242 10.3125 16.5299 8.8172 16.5299 7.3296C16.5299 5.3663 17.3911 3.4221 19.0479 2.0904C20.2993 1.0821 21.8016 0.595099 23.2963 0.591299C25.2698 0.591299 27.2279 1.4474 28.568 3.0911L28.6028 3.0644Z" fill="#7A8C9F"/>
<path fill-rule="evenodd" clip-rule="evenodd" d="M28.063 10.8299C27.4412 10.9098 26.5954 9.34978 26.5954 9.34978C26.132 8.47848 25.1819 7.31428 25.1819 7.31428C23.7452 5.49938 21.5554 4.30089 21.5554 4.30089C21.2348 4.11069 20.192 3.42959 20.192 3.42959C19.9062 3.23179 19.7054 2.80938 19.7054 2.80938C19.5548 1.53478 21.5747 1.04778 21.5747 1.04778C24.618 0.0737841 27.1709 1.95328 27.1709 1.95328C29.4843 3.58178 29.8048 5.87988 29.8048 5.87988C30.2296 8.08278 29.5731 9.23188 29.5731 9.23188C28.8547 11.0201 28.063 10.8299 28.063 10.8299ZM28.6037 3.06428C26.2362 0.157485 21.9416 -0.299115 19.0141 2.05608C16.0828 4.40738 15.6309 8.67638 17.9945 11.5908C20.362 14.5015 24.6528 14.9543 27.5841 12.6029C30.5154 10.244 30.9712 5.97878 28.6037 3.06428Z" fill="#7A8C9F"/>
<path fill-rule="evenodd" clip-rule="evenodd" d="M18.5134 8.8363C18.5134 8.8363 17.1346 8.7145 17.181 9.3157C17.181 9.3157 17.1501 9.8636 17.3895 10.2783C17.3895 10.2783 18.2238 12.0057 19.842 12.9074C19.842 12.9074 22.279 14.6119 25.5386 13.4553C25.5386 13.4553 26.9328 13.0177 26.2608 12.2834C26.2608 12.2834 25.5 11.1344 23.8238 10.2631C23.8199 10.2631 21.5181 8.8896 18.5134 8.8363Z" fill="#EFF2FF"/>
</svg>
