<svg width="80" height="28" viewBox="0 0 80 28" fill="none" xmlns="http://www.w3.org/2000/svg">
<path d="M18.8733 3.38574L14.7581 18.4242H12.3664L9.45786 7.50378L6.50696 18.4242H4.11526L0 3.38574H2.37031L5.30101 14.3082L8.25112 3.38574H10.5993L13.5731 14.3082L16.5038 3.38574H18.8733Z" fill="#7A8C9F"/>
<path d="M19.9695 3.4302L22.3398 3.23535V6.91854L22.2966 8.29834H22.3834C23.3555 7.90473 24.394 7.70093 25.4428 7.69795C27.3608 7.69795 28.6527 8.55973 28.6527 11.8564V18.4243H26.2828V12.0481C26.2828 10.0679 25.3137 9.80805 24.2146 9.80805C23.5774 9.82414 22.9459 9.93314 22.3402 10.1316V18.4243H19.9695V3.4302Z" fill="#7A8C9F"/>
<path d="M31.9054 3.58032C33.1332 3.58032 33.3276 4.2932 33.3276 5.08845C33.3276 5.8837 33.0686 6.61796 31.9054 6.61796C30.7423 6.61796 30.5046 5.88409 30.5046 5.08845C30.5046 4.2928 30.7205 3.58032 31.9054 3.58032ZM30.7205 7.84608H33.088V18.4243H30.7205V7.84608Z" fill="#7A8C9F"/>
<path d="M35.0935 7.84587H36.7094L37.0329 8.70449H37.1838C38.0009 8.02983 39.0329 7.67053 40.0923 7.69181C40.2576 7.68862 40.423 7.69577 40.5874 7.7132V10.0399C40.1464 9.96428 39.7004 9.92126 39.2531 9.91123C38.6325 9.91836 38.0215 10.0657 37.4658 10.3421V18.4241H35.0935V7.84587Z" fill="#7A8C9F"/>
<path d="M41.5991 18.4243V3.4302L43.9694 3.23535V18.4243H41.5991Z" fill="#7A8C9F"/>
<path d="M60.8154 7.69482C64.1762 7.69482 65.4697 9.67503 65.4697 13.1883C65.4697 16.4846 64.2629 18.6398 60.7726 18.6398C57.2823 18.6398 56.0542 16.485 56.0542 13.1883C56.0546 9.67741 57.4546 7.69482 60.8154 7.69482ZM63.0562 13.1883C63.0562 11.1871 62.7326 9.5479 60.8384 9.5479C58.9211 9.5479 58.4467 11.1202 58.4467 13.1883C58.4467 15.1055 58.8344 16.7654 60.7307 16.7654C62.6269 16.7654 63.0582 15.1923 63.0582 13.1891L63.0562 13.1883Z" fill="#7A8C9F"/>
<path d="M71.4455 7.69482C74.8063 7.69482 76.0998 9.67503 76.0998 13.1883C76.0998 16.4846 74.8931 18.6398 71.4028 18.6398C67.9125 18.6398 66.6843 16.485 66.6843 13.1883C66.6804 9.67741 68.0792 7.69482 71.4455 7.69482ZM73.6863 13.1883C73.6863 11.1871 73.3628 9.5479 71.4685 9.5479C69.5513 9.5479 69.0768 11.1202 69.0768 13.1883C69.0768 15.1055 69.4645 16.7654 71.3608 16.7654C73.257 16.7654 73.6844 15.1923 73.6844 13.1891L73.6863 13.1883Z" fill="#7A8C9F"/>
<path d="M77.6304 18.4241V3.43002L79.9999 3.23438V18.4241H77.6304Z" fill="#7A8C9F"/>
<path d="M45.9078 7.84566H47.6971L47.8912 8.6215C48.8771 8.07335 49.9748 7.7567 51.1011 7.69556C53.2552 7.69556 54.8275 9.26863 54.8275 13.0382C54.8275 16.7447 53.1685 18.5752 50.4112 18.5752C49.695 18.5614 48.9811 18.4893 48.2766 18.3598V23.2065L45.9062 23.4655L45.9078 7.84566ZM48.2773 16.4635C48.9443 16.4841 49.3114 16.5063 50.0005 16.5063C51.4683 16.5063 52.4354 15.7304 52.4354 12.6492C52.4354 10.5379 51.5736 9.98072 50.0227 9.98072C49.4284 9.98428 48.8388 10.0861 48.2777 10.2821L48.2773 16.4635Z" fill="#7A8C9F"/>
<path d="M57.6401 1.3462C55.8679 -0.707666 50.2441 1.09987 43.9688 5.44087V6.53514C49.4975 2.6068 54.3673 0.792538 55.7629 2.41037C57.5055 4.43018 53.1712 11.0318 46.0813 17.153C38.9913 23.2742 31.8289 26.5867 30.0852 24.5681C29.1806 23.5194 29.9184 21.2326 31.8277 18.4243H30.7188C28.3553 21.9491 27.4713 24.9111 28.6844 26.3158C30.8951 28.881 39.1711 25.3732 47.1629 18.4742C55.1546 11.5752 59.8524 3.90978 57.6401 1.3462Z" fill="#7A8C9F"/>
</svg>
