<svg xmlns="http://www.w3.org/2000/svg" xmlns:xlink="http://www.w3.org/1999/xlink" viewBox="0 0 445.21 340.32"><defs><style>.cls-1{fill:none;clip-rule:evenodd;}.cls-2{fill:url(#New_Gradient_Swatch_copy_2);}.cls-3{fill:#d0d7ff;}.cls-4{fill:#e4e9fe;}.cls-5{fill:#f0f4ff;}.cls-11,.cls-6{fill:#fff;}.cls-7{fill:#28315e;}.cls-8{fill:#344392;}.cls-9{fill:#e8d9c3;}.cls-10{fill:url(#New_Gradient_Swatch_copy);}.cls-11{stroke:#e5e5e5;stroke-miterlimit:10;}.cls-12{fill:#546fff;}.cls-13{fill:#020202;}.cls-14{fill:#5674fa;}.cls-111,.cls-112,.cls-113,.cls-114,.cls-15{fill-rule:evenodd;}.cls-16{clip-path:url(#clip-path);}.cls-17{fill:#29ece7;}.cls-18{fill:#29ece6;}.cls-19{fill:#29ece5;}.cls-20{fill:#29ece4;}.cls-21{fill:#29ece3;}.cls-22{fill:#29ece2;}.cls-23{fill:#29ece1;}.cls-24{fill:#29ece0;}.cls-25{fill:#29ecdf;}.cls-26{fill:#29ecde;}.cls-27{fill:#29ecdd;}.cls-28{fill:#29ecdc;}.cls-29{fill:#29ebdb;}.cls-30{fill:#29ebda;}.cls-31{fill:#29ebd9;}.cls-32{fill:#29ebd8;}.cls-33{fill:#28ebd7;}.cls-34{fill:#28ebd6;}.cls-35{fill:#28ebd5;}.cls-36{fill:#28ebd4;}.cls-37{fill:#28ebd3;}.cls-38{fill:#28ebd2;}.cls-39{fill:#28ebd1;}.cls-40{fill:#28ebd0;}.cls-41{fill:#28ebcf;}.cls-42{fill:#28ebce;}.cls-43{fill:#28ebcd;}.cls-44{fill:#28ebcc;}.cls-45{fill:#28ebcb;}.cls-46{fill:#28ebca;}.cls-47{fill:#28ebc9;}.cls-48{fill:#28ebc8;}.cls-49{fill:#28ebc7;}.cls-50{fill:#28ebc6;}.cls-51{fill:#28ebc5;}.cls-52{fill:#28eac4;}.cls-53{fill:#28eac3;}.cls-54{fill:#28eac2;}.cls-55{fill:#28eac1;}.cls-56{fill:#28eac0;}.cls-57{fill:#28eabf;}.cls-58{fill:#28eabe;}.cls-59{fill:#28eabd;}.cls-60{fill:#28eabc;}.cls-61{fill:#28eabb;}.cls-62{fill:#28eaba;}.cls-63{fill:#28eab9;}.cls-64{fill:#27eab7;}.cls-65{fill:#27eab6;}.cls-66{fill:#27eab5;}.cls-67{fill:#27eab4;}.cls-68{fill:#27eab3;}.cls-69{fill:#27eab2;}.cls-70{fill:#27eab1;}.cls-71{fill:#27eab0;}.cls-72{fill:#27eaaf;}.cls-73{fill:#27eaae;}.cls-74{fill:#27eaad;}.cls-75{fill:#27eaac;}.cls-76{fill:#27e9ab;}.cls-77{fill:#27e9aa;}.cls-78{fill:#27e9a9;}.cls-79{fill:#27e9a8;}.cls-80{fill:#27e9a7;}.cls-81{fill:#27e9a6;}.cls-82{fill:#27e9a5;}.cls-83{fill:#27e9a4;}.cls-84{fill:#27e9a3;}.cls-85{fill:#27e9a2;}.cls-86{fill:#27e9a1;}.cls-87{fill:#27e9a0;}.cls-88{fill:#27e99f;}.cls-89{fill:#27e99e;}.cls-90{fill:#27e99d;}.cls-91{fill:#27e99c;}.cls-92{fill:#27e99b;}.cls-93{fill:#27e99a;}.cls-94{fill:#27e999;}.cls-95{fill:#26e998;}.cls-96{fill:#26e997;}.cls-97{fill:#26e996;}.cls-98{fill:#26e995;}.cls-99{fill:#26e894;}.cls-100{fill:#26e893;}.cls-101{fill:#26e892;}.cls-102{fill:#26e891;}.cls-103{fill:#26e890;}.cls-104{fill:#26e88f;}.cls-105{fill:#26e88e;}.cls-106{fill:#26e88d;}.cls-107{fill:#26e88c;}.cls-108{fill:#26e88b;}.cls-109{fill:#26e88a;}.cls-110,.cls-111{fill:#26e889;}.cls-112{fill:#26e888;}.cls-113{fill:#26e886;}.cls-114,.cls-115{fill:#26e885;}.cls-116{fill:#eea175;}</style><linearGradient id="New_Gradient_Swatch_copy_2" x1="387.55" y1="59" x2="26.06" y2="314.19" gradientUnits="userSpaceOnUse"><stop offset="0" stop-color="#dadeff"/><stop offset="1" stop-color="#6e96fc"/></linearGradient><linearGradient id="New_Gradient_Swatch_copy" x1="124.2" y1="244.62" x2="281.41" y2="244.62" gradientUnits="userSpaceOnUse"><stop offset="0" stop-color="#9088a6"/><stop offset="1" stop-color="#0e1936"/></linearGradient><clipPath id="clip-path"><path class="cls-1" d="M292.85,221.73a3.08,3.08,0,1,0,3.07,3.08A3.08,3.08,0,0,0,292.85,221.73Zm0,7a3.89,3.89,0,1,1,3.88-3.89,3.9,3.9,0,0,1-3.88,3.89Z"/></clipPath></defs><g id="Layer_2" data-name="Layer 2"><g id="Layer_1-2" data-name="Layer 1"><rect class="cls-2" x="27.44" y="48.77" width="358.73" height="275.64" rx="12.12"/><rect class="cls-3" y="35.59" width="206.25" height="278.97" rx="6.96"/><rect class="cls-4" x="11.23" y="52.57" width="181.64" height="244.95"/><rect class="cls-5" x="14.75" y="49.04" width="181.64" height="244.95"/><rect class="cls-6" x="12.41" y="45.52" width="181.64" height="244.95"/><rect class="cls-7" x="37.86" y="19.54" width="130.53" height="36.25" rx="7.25"/><circle class="cls-8" cx="103.12" cy="19.54" r="19.54"/><rect class="cls-3" x="34.15" y="75.12" width="63.32" height="2.8" rx="1.19"/><rect class="cls-3" x="34.15" y="118.4" width="42.35" height="2.8" rx="1.19"/><rect class="cls-4" x="34.15" y="83.61" width="37.49" height="2.8" rx="1.19"/><rect class="cls-4" x="34.15" y="90.19" width="33.72" height="2.8" rx="1.19"/><rect class="cls-4" x="34.15" y="96.76" width="37.49" height="2.8" rx="1.19"/><rect class="cls-4" x="34.15" y="126.38" width="37.49" height="2.8" rx="1.19"/><rect class="cls-4" x="34.15" y="133.17" width="37.49" height="2.8" rx="1.19"/><rect class="cls-4" x="134.74" y="108.81" width="37.49" height="2.8" rx="1.19"/><rect class="cls-4" x="134.74" y="115.61" width="37.49" height="2.8" rx="1.19"/><polygon class="cls-4" points="165.38 74.56 151.7 74.56 144.86 86.41 151.7 98.26 165.38 98.26 172.22 86.41 165.38 74.56"/><rect class="cls-4" x="34.15" y="159.7" width="138.07" height="14.17" rx="1.81"/><rect class="cls-4" x="34.15" y="188.36" width="138.07" height="14.17" rx="1.81"/><rect class="cls-4" x="34.15" y="217.03" width="138.07" height="14.17" rx="1.81"/><rect class="cls-6" x="41.24" y="165.38" width="42.35" height="2.8" rx="1.19"/><rect class="cls-6" x="101.49" y="165.38" width="22.61" height="2.8" rx="1.19"/><rect class="cls-6" x="140.71" y="165.38" width="22.61" height="2.8" rx="1.19"/><rect class="cls-6" x="41.24" y="194.05" width="42.35" height="2.8" rx="1.19"/><rect class="cls-6" x="101.49" y="194.05" width="22.61" height="2.8" rx="1.19"/><rect class="cls-6" x="140.71" y="194.05" width="22.61" height="2.8" rx="1.19"/><rect class="cls-6" x="41.24" y="222.71" width="42.35" height="2.8" rx="1.19"/><rect class="cls-6" x="101.49" y="222.71" width="22.61" height="2.8" rx="1.19"/><rect class="cls-6" x="140.71" y="222.71" width="22.61" height="2.8" rx="1.19"/><rect class="cls-4" x="41.24" y="208.38" width="42.35" height="2.8" rx="1.19"/><rect class="cls-4" x="101.49" y="208.38" width="22.61" height="2.8" rx="1.19"/><rect class="cls-4" x="140.71" y="208.38" width="22.61" height="2.8" rx="1.19"/><rect class="cls-4" x="41.24" y="179.51" width="42.35" height="2.8" rx="1.19"/><rect class="cls-4" x="101.49" y="179.51" width="22.61" height="2.8" rx="1.19"/><rect class="cls-4" x="140.71" y="179.51" width="22.61" height="2.8" rx="1.19"/><rect class="cls-9" x="186.57" y="238.73" width="105.63" height="50.03"/><rect class="cls-9" x="133.75" y="282.3" width="158.45" height="58.02"/><rect class="cls-9" x="239.38" y="195.16" width="52.82" height="53.15"/><path class="cls-10" d="M125.37,303.4a1.17,1.17,0,0,1-1.17-1.18V270.59a1.17,1.17,0,0,1,1.17-1.17h50v-40.6a1.17,1.17,0,0,1,1.18-1.17h51.84V187a1.18,1.18,0,0,1,1.18-1.18h50.66a1.18,1.18,0,1,1,0,2.35H230.74v40.63a1.18,1.18,0,0,1-1.17,1.18H177.72v40.59a1.18,1.18,0,0,1-1.17,1.18h-50v30.45A1.17,1.17,0,0,1,125.37,303.4Z"/><rect class="cls-11" x="267.71" y="124.03" width="177" height="147.16" rx="5.02"/><rect class="cls-4" x="283.6" y="179.29" width="146.02" height="16.6" rx="6.82"/><rect class="cls-12" x="283.6" y="179.29" width="138.72" height="16.6" rx="6.82"/><rect class="cls-4" x="283.6" y="236.58" width="146.02" height="16.6" rx="6.82"/><path class="cls-13" d="M300.26,169.45h-1.08l-1.59-2.67-.39-.76h0l0,.8v2.63h-.85v-4.53h1.08l1.58,2.65.39.77h0l0-.8v-2.62h.85Z"/><path class="cls-13" d="M308.54,166.27a1.22,1.22,0,0,1,.34.92v2.26h-.94v-2c0-.52-.21-.78-.61-.78a.73.73,0,0,0-.56.23,1,1,0,0,0-.23.71v1.82h-.94V166h.84l0,.62a1.11,1.11,0,0,1,.47-.51,1.35,1.35,0,0,1,.7-.17A1.24,1.24,0,0,1,308.54,166.27Z"/><path class="cls-13" d="M312.78,166.42a2.06,2.06,0,0,1,0,2.62,2,2,0,0,1-2.58,0,2.06,2.06,0,0,1,0-2.62,2,2,0,0,1,2.58,0Zm-1.9.5a1.67,1.67,0,0,0,0,1.62.82.82,0,0,0,1.22,0,1.67,1.67,0,0,0,0-1.62.82.82,0,0,0-1.22,0Z"/><path class="cls-13" d="M317.06,166.27a1.19,1.19,0,0,1,.34.92v2.26h-.94v-2c0-.52-.2-.78-.61-.78a.75.75,0,0,0-.56.23,1,1,0,0,0-.23.71v1.82h-.94V166H315l0,.62a1.11,1.11,0,0,1,.47-.51,1.32,1.32,0,0,1,.7-.17A1.2,1.2,0,0,1,317.06,166.27Z"/><path class="cls-13" d="M321.62,168.09h-2.43a.79.79,0,0,0,.86.72.9.9,0,0,0,.48-.11.55.55,0,0,0,.27-.31l.77.28a1.3,1.3,0,0,1-.55.63,2,2,0,0,1-1,.21,1.75,1.75,0,0,1-1.32-.47,1.78,1.78,0,0,1-.47-1.31,1.81,1.81,0,0,1,.45-1.31A1.68,1.68,0,0,1,320,166a1.6,1.6,0,0,1,1.23.46,1.86,1.86,0,0,1,.42,1.31C321.64,167.84,321.63,168,321.62,168.09Zm-2.18-1.25a1,1,0,0,0-.26.59h1.6a1,1,0,0,0-.26-.59.77.77,0,0,0-.54-.2A.75.75,0,0,0,319.44,166.84Z"/><path class="cls-13" d="M324.79,169.23a1.13,1.13,0,0,1-.41.21,1.83,1.83,0,0,1-.53.07c-.76,0-1.14-.34-1.14-1v-1.77h-.63V166h.63v-.78l.94-.26v1h1.11v.7h-1.11v1.62a.42.42,0,0,0,.47.47.78.78,0,0,0,.53-.19Z"/><path class="cls-13" d="M325.19,168.86l.55-.57a.81.81,0,0,0,.39.42,1.56,1.56,0,0,0,.64.12,1.17,1.17,0,0,0,.47-.08.25.25,0,0,0,.16-.23.23.23,0,0,0-.15-.2,2.4,2.4,0,0,0-.54-.16,2.6,2.6,0,0,1-1.1-.41.84.84,0,0,1-.32-.7.92.92,0,0,1,.18-.54,1.15,1.15,0,0,1,.52-.41,2.17,2.17,0,0,1,.84-.15,2,2,0,0,1,.93.17,1.5,1.5,0,0,1,.6.55l-.58.5a1,1,0,0,0-.38-.41,1.13,1.13,0,0,0-.56-.13.82.82,0,0,0-.44.1.26.26,0,0,0-.17.23.26.26,0,0,0,.16.24,1.79,1.79,0,0,0,.59.18,2.62,2.62,0,0,1,1,.39.83.83,0,0,1,.32.68.9.9,0,0,1-.41.77,1.93,1.93,0,0,1-1.16.29A1.81,1.81,0,0,1,325.19,168.86Z"/><path class="cls-14" d="M294.57,162.91a1.19,1.19,0,1,0-1.95.91l-.5,1.51a1.17,1.17,0,0,0-.41.1l-2-2a1.14,1.14,0,0,0,.11-.49,1.19,1.19,0,1,0-1.9,1l-.21.73a.42.42,0,0,0,.28.52.41.41,0,0,0,.51-.28l.22-.74a1.07,1.07,0,0,0,.4-.1l2,2a1.13,1.13,0,0,0-.1.49,1.18,1.18,0,1,0,2.36,0,1.17,1.17,0,0,0-.46-.94l.48-1.47A1.19,1.19,0,0,0,294.57,162.91Z"/><path class="cls-14" d="M291.74,169.13l.26-.75a.4.4,0,0,0,0-.32.42.42,0,0,0-.24-.21.4.4,0,0,0-.52.26l-.27.77a1.24,1.24,0,0,0-.43.11l-2-2a1.25,1.25,0,0,0,.1-.48,1.19,1.19,0,1,0-2.37,0,1.2,1.2,0,0,0,.42.9l-.49,1.47a1.19,1.19,0,1,0,.79.24l.48-1.43a1.17,1.17,0,0,0,.49-.11l2,2a1.29,1.29,0,0,0-.1.48,1.19,1.19,0,1,0,1.91-.93Z"/><path class="cls-13" d="M302.89,168.78c-.5,0-.8-.37-.8-1.06s.3-1.06.8-1.06.79.38.79,1v.07C303.68,168.41,303.38,168.78,302.89,168.78Zm.79-2.77v.56a1.14,1.14,0,0,0-1.06-.63c-.92,0-1.47.67-1.47,1.79s.55,1.77,1.47,1.77a1.19,1.19,0,0,0,1.12-.7l.05.63h.83V166Z"/><path class="cls-15" d="M286.54,224.59c.68,0,1.09-.22,1.09-1.05v-.74c0-.7-.25-1.06-.89-1.06h-.84v2.85Zm.22-3.63c1.21,0,1.72.62,1.72,1.76v.63c0,.85-.3,1.38-1,1.58.7.21,1,.79,1,1.61v1.2a2,2,0,0,0,.15.93h-.87a2,2,0,0,1-.14-.94v-1.21c0-.87-.41-1.15-1.12-1.15h-.61v3.3h-.85V221Z"/><g class="cls-16"><rect class="cls-17" x="288.96" y="220.92" width="1.49" height="7.77"/><rect class="cls-17" x="290.46" y="220.92" width="0.06" height="7.77"/><rect class="cls-18" x="290.52" y="220.92" width="0.06" height="7.77"/><rect class="cls-19" x="290.59" y="220.92" width="0.06" height="7.77"/><rect class="cls-20" x="290.65" y="220.92" width="0.06" height="7.77"/><rect class="cls-21" x="290.71" y="220.92" width="0.06" height="7.77"/><rect class="cls-22" x="290.78" y="220.92" width="0.06" height="7.77"/><rect class="cls-23" x="290.84" y="220.92" width="0.06" height="7.77"/><rect class="cls-24" x="290.91" y="220.92" width="0.06" height="7.77"/><rect class="cls-25" x="290.97" y="220.92" width="0.06" height="7.77"/><rect class="cls-26" x="291.04" y="220.92" width="0.06" height="7.77"/><rect class="cls-27" x="291.1" y="220.92" width="0.06" height="7.77"/><rect class="cls-28" x="291.16" y="220.92" width="0.06" height="7.77"/><rect class="cls-29" x="291.23" y="220.92" width="0.06" height="7.77"/><rect class="cls-30" x="291.29" y="220.92" width="0.06" height="7.77"/><rect class="cls-31" x="291.36" y="220.92" width="0.06" height="7.77"/><rect class="cls-32" x="291.42" y="220.92" width="0.06" height="7.77"/><rect class="cls-33" x="291.48" y="220.92" width="0.06" height="7.77"/><rect class="cls-34" x="291.55" y="220.92" width="0.06" height="7.77"/><rect class="cls-35" x="291.61" y="220.92" width="0.06" height="7.77"/><rect class="cls-36" x="291.68" y="220.92" width="0.06" height="7.77"/><rect class="cls-37" x="291.74" y="220.92" width="0.06" height="7.77"/><rect class="cls-38" x="291.81" y="220.92" width="0.06" height="7.77"/><rect class="cls-39" x="291.87" y="220.92" width="0.06" height="7.77"/><rect class="cls-40" x="291.93" y="220.92" width="0.06" height="7.77"/><rect class="cls-41" x="292" y="220.92" width="0.06" height="7.77"/><rect class="cls-42" x="292.06" y="220.92" width="0.06" height="7.77"/><rect class="cls-43" x="292.13" y="220.92" width="0.06" height="7.77"/><rect class="cls-44" x="292.19" y="220.92" width="0.06" height="7.77"/><rect class="cls-45" x="292.25" y="220.92" width="0.06" height="7.77"/><rect class="cls-46" x="292.32" y="220.92" width="0.06" height="7.77"/><rect class="cls-47" x="292.38" y="220.92" width="0.06" height="7.77"/><rect class="cls-48" x="292.45" y="220.92" width="0.06" height="7.77"/><rect class="cls-49" x="292.51" y="220.92" width="0.06" height="7.77"/><rect class="cls-50" x="292.58" y="220.92" width="0.06" height="7.77"/><rect class="cls-51" x="292.64" y="220.92" width="0.06" height="7.77"/><rect class="cls-52" x="292.7" y="220.92" width="0.06" height="7.77"/><rect class="cls-53" x="292.77" y="220.92" width="0.06" height="7.77"/><rect class="cls-54" x="292.83" y="220.92" width="0.06" height="7.77"/><rect class="cls-55" x="292.9" y="220.92" width="0.06" height="7.77"/><rect class="cls-56" x="292.96" y="220.92" width="0.06" height="7.77"/><rect class="cls-57" x="293.02" y="220.92" width="0.06" height="7.77"/><rect class="cls-58" x="293.09" y="220.92" width="0.06" height="7.77"/><rect class="cls-59" x="293.15" y="220.92" width="0.06" height="7.77"/><rect class="cls-60" x="293.22" y="220.92" width="0.06" height="7.77"/><rect class="cls-61" x="293.28" y="220.92" width="0.06" height="7.77"/><rect class="cls-62" x="293.35" y="220.92" width="0.06" height="7.77"/><rect class="cls-63" x="293.41" y="220.92" width="0.06" height="7.77"/><rect class="cls-64" x="293.47" y="220.92" width="0.06" height="7.77"/><rect class="cls-65" x="293.54" y="220.92" width="0.06" height="7.77"/><rect class="cls-66" x="293.6" y="220.92" width="0.06" height="7.77"/><rect class="cls-67" x="293.67" y="220.92" width="0.06" height="7.77"/><rect class="cls-68" x="293.73" y="220.92" width="0.06" height="7.77"/><rect class="cls-69" x="293.79" y="220.92" width="0.06" height="7.77"/><rect class="cls-70" x="293.86" y="220.92" width="0.06" height="7.77"/><rect class="cls-71" x="293.92" y="220.92" width="0.06" height="7.77"/><rect class="cls-72" x="293.99" y="220.92" width="0.06" height="7.77"/><rect class="cls-73" x="294.05" y="220.92" width="0.06" height="7.77"/><rect class="cls-74" x="294.11" y="220.92" width="0.06" height="7.77"/><rect class="cls-75" x="294.18" y="220.92" width="0.06" height="7.77"/><rect class="cls-76" x="294.24" y="220.92" width="0.06" height="7.77"/><rect class="cls-77" x="294.31" y="220.92" width="0.06" height="7.77"/><rect class="cls-78" x="294.37" y="220.92" width="0.06" height="7.77"/><rect class="cls-79" x="294.44" y="220.92" width="0.06" height="7.77"/><rect class="cls-80" x="294.5" y="220.92" width="0.06" height="7.77"/><rect class="cls-81" x="294.56" y="220.92" width="0.06" height="7.77"/><rect class="cls-82" x="294.63" y="220.92" width="0.06" height="7.77"/><rect class="cls-83" x="294.69" y="220.92" width="0.06" height="7.77"/><rect class="cls-84" x="294.76" y="220.92" width="0.06" height="7.77"/><rect class="cls-85" x="294.82" y="220.92" width="0.06" height="7.77"/><rect class="cls-86" x="294.88" y="220.92" width="0.06" height="7.77"/><rect class="cls-87" x="294.95" y="220.92" width="0.06" height="7.77"/><rect class="cls-88" x="295.01" y="220.92" width="0.06" height="7.77"/><rect class="cls-89" x="295.08" y="220.92" width="0.06" height="7.77"/><rect class="cls-90" x="295.14" y="220.92" width="0.06" height="7.77"/><rect class="cls-91" x="295.21" y="220.92" width="0.06" height="7.77"/><rect class="cls-92" x="295.27" y="220.92" width="0.06" height="7.77"/><rect class="cls-93" x="295.33" y="220.92" width="0.06" height="7.77"/><rect class="cls-94" x="295.4" y="220.92" width="0.06" height="7.77"/><rect class="cls-95" x="295.46" y="220.92" width="0.06" height="7.77"/><rect class="cls-96" x="295.53" y="220.92" width="0.06" height="7.77"/><rect class="cls-97" x="295.59" y="220.92" width="0.06" height="7.77"/><rect class="cls-98" x="295.65" y="220.92" width="0.06" height="7.77"/><rect class="cls-99" x="295.72" y="220.92" width="0.06" height="7.77"/><rect class="cls-100" x="295.78" y="220.92" width="0.06" height="7.77"/><rect class="cls-101" x="295.85" y="220.92" width="0.06" height="7.77"/><rect class="cls-102" x="295.91" y="220.92" width="0.06" height="7.77"/><rect class="cls-103" x="295.98" y="220.92" width="0.06" height="7.77"/><rect class="cls-104" x="296.04" y="220.92" width="0.06" height="7.77"/><rect class="cls-105" x="296.1" y="220.92" width="0.06" height="7.77"/><rect class="cls-106" x="296.17" y="220.92" width="0.06" height="7.77"/><rect class="cls-107" x="296.23" y="220.92" width="0.06" height="7.77"/><rect class="cls-108" x="296.3" y="220.92" width="0.06" height="7.77"/><rect class="cls-109" x="296.36" y="220.92" width="0.06" height="7.77"/><rect class="cls-110" x="296.42" y="220.92" width="0.06" height="7.77"/><path class="cls-111" d="M296.49,228.7v0Z"/><path class="cls-112" d="M296.49,228.7v0Z"/><path class="cls-113" d="M296.49,228.7v0Z"/><path class="cls-114" d="M296.49,228.7v0Z"/><rect class="cls-115" x="296.49" y="220.92" width="0.24" height="7.77"/><rect class="cls-17" x="289.77" y="221.73" width="0.69" height="6.16"/><rect class="cls-17" x="290.46" y="221.73" width="0.06" height="6.16"/><rect class="cls-18" x="290.52" y="221.73" width="0.06" height="6.16"/><rect class="cls-19" x="290.59" y="221.73" width="0.06" height="6.16"/><rect class="cls-20" x="290.65" y="221.73" width="0.06" height="6.16"/><rect class="cls-21" x="290.71" y="221.73" width="0.06" height="6.16"/><rect class="cls-22" x="290.78" y="221.73" width="0.06" height="6.16"/><rect class="cls-23" x="290.84" y="221.73" width="0.06" height="6.16"/><rect class="cls-24" x="290.91" y="221.73" width="0.06" height="6.16"/><rect class="cls-25" x="290.97" y="221.73" width="0.06" height="6.16"/><rect class="cls-26" x="291.04" y="221.73" width="0.06" height="6.16"/><rect class="cls-27" x="291.1" y="221.73" width="0.06" height="6.16"/><rect class="cls-28" x="291.16" y="221.73" width="0.06" height="6.16"/><rect class="cls-29" x="291.23" y="221.73" width="0.06" height="6.16"/><rect class="cls-30" x="291.29" y="221.73" width="0.06" height="6.16"/><rect class="cls-31" x="291.36" y="221.73" width="0.06" height="6.16"/><rect class="cls-32" x="291.42" y="221.73" width="0.06" height="6.16"/><rect class="cls-33" x="291.48" y="221.73" width="0.06" height="6.16"/><rect class="cls-34" x="291.55" y="221.73" width="0.06" height="6.16"/><rect class="cls-35" x="291.61" y="221.73" width="0.06" height="6.16"/><rect class="cls-36" x="291.68" y="221.73" width="0.06" height="6.16"/><rect class="cls-37" x="291.74" y="221.73" width="0.06" height="6.16"/><rect class="cls-38" x="291.81" y="221.73" width="0.06" height="6.16"/><rect class="cls-39" x="291.87" y="221.73" width="0.06" height="6.16"/><rect class="cls-40" x="291.93" y="221.73" width="0.06" height="6.16"/><rect class="cls-41" x="292" y="221.73" width="0.06" height="6.16"/><rect class="cls-42" x="292.06" y="221.73" width="0.06" height="6.16"/><rect class="cls-43" x="292.13" y="221.73" width="0.06" height="6.16"/><rect class="cls-44" x="292.19" y="221.73" width="0.06" height="6.16"/><rect class="cls-45" x="292.25" y="221.73" width="0.06" height="6.16"/><rect class="cls-46" x="292.32" y="221.73" width="0.06" height="6.16"/><rect class="cls-47" x="292.38" y="221.73" width="0.06" height="6.16"/><rect class="cls-48" x="292.45" y="221.73" width="0.06" height="6.16"/><rect class="cls-49" x="292.51" y="221.73" width="0.06" height="6.16"/><rect class="cls-50" x="292.58" y="221.73" width="0.06" height="6.16"/><rect class="cls-51" x="292.64" y="221.73" width="0.06" height="6.16"/><rect class="cls-52" x="292.7" y="221.73" width="0.06" height="6.16"/><rect class="cls-53" x="292.77" y="221.73" width="0.06" height="6.16"/><rect class="cls-54" x="292.83" y="221.73" width="0.06" height="6.16"/><rect class="cls-55" x="292.9" y="221.73" width="0.06" height="6.16"/><rect class="cls-56" x="292.96" y="221.73" width="0.06" height="6.16"/><rect class="cls-57" x="293.02" y="221.73" width="0.06" height="6.16"/><rect class="cls-58" x="293.09" y="221.73" width="0.06" height="6.16"/><rect class="cls-59" x="293.15" y="221.73" width="0.06" height="6.16"/><rect class="cls-60" x="293.22" y="221.73" width="0.06" height="6.16"/><rect class="cls-61" x="293.28" y="221.73" width="0.06" height="6.16"/><rect class="cls-62" x="293.35" y="221.73" width="0.06" height="6.16"/><rect class="cls-63" x="293.41" y="221.73" width="0.06" height="6.16"/><rect class="cls-64" x="293.47" y="221.73" width="0.06" height="6.16"/><rect class="cls-65" x="293.54" y="221.73" width="0.06" height="6.16"/><rect class="cls-66" x="293.6" y="221.73" width="0.06" height="6.16"/><rect class="cls-67" x="293.67" y="221.73" width="0.06" height="6.16"/><rect class="cls-68" x="293.73" y="221.73" width="0.06" height="6.16"/><rect class="cls-69" x="293.79" y="221.73" width="0.06" height="6.16"/><rect class="cls-70" x="293.86" y="221.73" width="0.06" height="6.16"/><rect class="cls-71" x="293.92" y="221.73" width="0.06" height="6.16"/><rect class="cls-72" x="293.99" y="221.73" width="0.06" height="6.16"/><rect class="cls-73" x="294.05" y="221.73" width="0.06" height="6.16"/><rect class="cls-74" x="294.11" y="221.73" width="0.06" height="6.16"/><rect class="cls-75" x="294.18" y="221.73" width="0.06" height="6.16"/><rect class="cls-76" x="294.24" y="221.73" width="0.06" height="6.16"/><rect class="cls-77" x="294.31" y="221.73" width="0.06" height="6.16"/><rect class="cls-78" x="294.37" y="221.73" width="0.06" height="6.16"/><rect class="cls-79" x="294.44" y="221.73" width="0.06" height="6.16"/><rect class="cls-80" x="294.5" y="221.73" width="0.06" height="6.16"/><rect class="cls-81" x="294.56" y="221.73" width="0.06" height="6.16"/><rect class="cls-82" x="294.63" y="221.73" width="0.06" height="6.16"/><rect class="cls-83" x="294.69" y="221.73" width="0.06" height="6.16"/><rect class="cls-84" x="294.76" y="221.73" width="0.06" height="6.16"/><rect class="cls-85" x="294.82" y="221.73" width="0.06" height="6.16"/><rect class="cls-86" x="294.88" y="221.73" width="0.06" height="6.16"/><rect class="cls-87" x="294.95" y="221.73" width="0.06" height="6.16"/><rect class="cls-88" x="295.01" y="221.73" width="0.06" height="6.16"/><rect class="cls-89" x="295.08" y="221.73" width="0.06" height="6.16"/><rect class="cls-90" x="295.14" y="221.73" width="0.06" height="6.16"/><rect class="cls-91" x="295.21" y="221.73" width="0.06" height="6.16"/><rect class="cls-92" x="295.27" y="221.73" width="0.06" height="6.16"/><rect class="cls-93" x="295.33" y="221.73" width="0.06" height="6.16"/><rect class="cls-94" x="295.4" y="221.73" width="0.06" height="6.16"/><rect class="cls-95" x="295.46" y="221.73" width="0.06" height="6.16"/><rect class="cls-96" x="295.53" y="221.73" width="0.06" height="6.16"/><rect class="cls-97" x="295.59" y="221.73" width="0.06" height="6.16"/><rect class="cls-98" x="295.65" y="221.73" width="0.06" height="6.16"/><rect class="cls-99" x="295.72" y="221.73" width="0.06" height="6.16"/><rect class="cls-100" x="295.78" y="221.73" width="0.06" height="6.16"/><rect class="cls-101" x="295.85" y="221.73" width="0.06" height="6.16"/><rect class="cls-102" x="295.91" y="221.73" width="0.01" height="6.16"/></g><path class="cls-15" d="M298.85,220.9h0c1.16,0,1.7.76,1.7,1.93V223h-.81v-.26c0-.69-.26-1.1-.88-1.1s-.88.41-.88,1.09c0,1.73,2.59,1.89,2.59,4.06,0,1.17-.57,1.93-1.74,1.93s-1.73-.76-1.73-1.93v-.44h.8v.49c0,.69.29,1.1.91,1.1s.9-.41.9-1.1c0-1.72-2.58-1.88-2.58-4C297.15,221.64,297.7,220.9,298.85,220.9Zm4.09,0h0c1.16,0,1.71.76,1.71,1.93V223h-.82v-.26c0-.69-.26-1.1-.88-1.1s-.88.41-.88,1.09c0,1.73,2.59,1.89,2.59,4.06,0,1.17-.56,1.93-1.74,1.93s-1.73-.76-1.73-1.93v-.44H302v.49c0,.69.28,1.1.9,1.1s.9-.41.9-1.1c0-1.72-2.57-1.88-2.57-4C301.25,221.64,301.79,220.9,302.94,220.9Zm4.16,7.87h0c1.18,0,1.71-.78,1.71-2V221H308v5.89c0,.69-.27,1.11-.89,1.11s-.9-.42-.9-1.11V221h-.85v5.84c0,1.17.54,2,1.71,2Z"/><g id="b"><path class="cls-15" d="M312.52,228.67h-.83l-1.27-6.13v6.14h-.75V221h1.2l1.26,6.15,1.22-6.15h1.2v7.7h-.81v-6.2Z"/></g><rect class="cls-116" x="283.6" y="236.58" width="130.99" height="16.6" rx="6.82"/><path class="cls-12" d="M409.9,163.71a3.14,3.14,0,0,1,1.1.19,2.42,2.42,0,0,1,.95.61,2.92,2.92,0,0,1,.66,1.12,5.08,5.08,0,0,1,.25,1.72,6.13,6.13,0,0,1-.21,1.68,3.89,3.89,0,0,1-.61,1.26,2.57,2.57,0,0,1-1,.79,2.82,2.82,0,0,1-1.24.27,2.92,2.92,0,0,1-1.32-.29,2.44,2.44,0,0,1-1.33-1.91h1.55a1.07,1.07,0,0,0,.38.63,1.12,1.12,0,0,0,.72.22,1.21,1.21,0,0,0,1.1-.63,3.49,3.49,0,0,0,.38-1.73h-.05a1.88,1.88,0,0,1-.45.56,2,2,0,0,1-.65.36,2.44,2.44,0,0,1-.77.13,2.27,2.27,0,0,1-1.17-.31,2.23,2.23,0,0,1-.82-.85,2.5,2.5,0,0,1-.29-1.24,2.56,2.56,0,0,1,.34-1.33,2.48,2.48,0,0,1,1-.92A2.93,2.93,0,0,1,409.9,163.71Zm0,1.23a1.29,1.29,0,0,0-.65.17,1.28,1.28,0,0,0-.61,1.14,1.29,1.29,0,0,0,.16.66,1.24,1.24,0,0,0,.44.47,1.26,1.26,0,0,0,.65.17,1.21,1.21,0,0,0,.5-.1,1.38,1.38,0,0,0,.4-.28,1.51,1.51,0,0,0,.27-.42,1.45,1.45,0,0,0,.1-.51,1.31,1.31,0,0,0-.17-.65,1.2,1.2,0,0,0-.44-.48A1.31,1.31,0,0,0,409.91,164.94Z"/><path class="cls-12" d="M416.66,171.35a3.32,3.32,0,0,1-1.37-.28,2.37,2.37,0,0,1-1-.78,2,2,0,0,1-.37-1.14h1.52a.93.93,0,0,0,.37.7,1.23,1.23,0,0,0,.8.27,1.29,1.29,0,0,0,.65-.17,1.17,1.17,0,0,0,.45-.46,1.45,1.45,0,0,0,.16-.68,1.41,1.41,0,0,0-.17-.69,1.24,1.24,0,0,0-.45-.46,1.36,1.36,0,0,0-.67-.17,1.6,1.6,0,0,0-.63.14,1.08,1.08,0,0,0-.47.36l-1.4-.25.35-3.91H419v1.28h-3.24l-.19,1.86h0a1.58,1.58,0,0,1,.59-.46,2.1,2.1,0,0,1,.88-.18,2.29,2.29,0,0,1,1.2.32,2.36,2.36,0,0,1,.83.86,2.61,2.61,0,0,1,.3,1.26,2.54,2.54,0,0,1-.35,1.33,2.46,2.46,0,0,1-1,.92A3.07,3.07,0,0,1,416.66,171.35Z"/><path class="cls-12" d="M420.77,165.61v-.39a1.87,1.87,0,0,1,.2-.82,1.44,1.44,0,0,1,.55-.6,1.65,1.65,0,0,1,.88-.23,1.67,1.67,0,0,1,.9.23,1.38,1.38,0,0,1,.55.6,1.74,1.74,0,0,1,.19.82v.39a1.71,1.71,0,0,1-.19.82,1.44,1.44,0,0,1-.55.6,1.69,1.69,0,0,1-.9.22,1.66,1.66,0,0,1-.89-.22,1.51,1.51,0,0,1-.55-.6A2,2,0,0,1,420.77,165.61Zm.36,5.64,5.1-7.42h.94l-5.1,7.42Zm.71-6v.39a1,1,0,0,0,.12.49.46.46,0,0,0,.44.23.47.47,0,0,0,.46-.23,1,1,0,0,0,.12-.49v-.39a1.14,1.14,0,0,0-.11-.49.49.49,0,0,0-.47-.23.46.46,0,0,0-.44.23A1.07,1.07,0,0,0,421.84,165.22Zm2.74,4.64v-.4a1.9,1.9,0,0,1,.19-.82,1.47,1.47,0,0,1,.56-.6,1.62,1.62,0,0,1,.88-.22,1.67,1.67,0,0,1,.9.22,1.44,1.44,0,0,1,.55.6,1.9,1.9,0,0,1,.19.82v.4a1.9,1.9,0,0,1-.19.82,1.47,1.47,0,0,1-.56.6,1.91,1.91,0,0,1-1.78,0,1.44,1.44,0,0,1-.55-.6A1.9,1.9,0,0,1,424.58,169.86Zm1.05-.4v.4a1.15,1.15,0,0,0,.13.48.47.47,0,0,0,.45.23.51.51,0,0,0,.46-.22.93.93,0,0,0,.11-.49v-.4a.93.93,0,0,0-.11-.49.47.47,0,0,0-.46-.23.49.49,0,0,0-.45.23A1.19,1.19,0,0,0,425.63,169.46Z"/><path class="cls-7" d="M287,147.46h-1.68l2.56-7.41h2l2.56,7.41h-1.68l-1.86-5.72h-.06Zm-.11-2.91h4v1.22h-4Z"/><path class="cls-7" d="M295.54,147.57a2.86,2.86,0,0,1-1.47-.36,2.41,2.41,0,0,1-.94-1,3.57,3.57,0,0,1,0-3,2.5,2.5,0,0,1,.95-1,2.81,2.81,0,0,1,1.45-.36,3,3,0,0,1,1.28.26,2.16,2.16,0,0,1,.86.75A2.06,2.06,0,0,1,298,144h-1.45a1.1,1.1,0,0,0-.33-.67.93.93,0,0,0-.68-.26,1.05,1.05,0,0,0-.63.2,1.22,1.22,0,0,0-.41.56,2.33,2.33,0,0,0-.15.89,2.44,2.44,0,0,0,.15.91,1.17,1.17,0,0,0,.41.57,1.1,1.1,0,0,0,1.1.08.89.89,0,0,0,.36-.31,1.28,1.28,0,0,0,.18-.51H298a2.34,2.34,0,0,1-.34,1.13,2.14,2.14,0,0,1-.85.75A2.92,2.92,0,0,1,295.54,147.57Z"/><path class="cls-7" d="M301.53,147.57a2.86,2.86,0,0,1-1.47-.36,2.41,2.41,0,0,1-.94-1,3.57,3.57,0,0,1,0-3,2.5,2.5,0,0,1,.95-1,2.79,2.79,0,0,1,1.45-.36,3,3,0,0,1,1.28.26A2.13,2.13,0,0,1,304,144h-1.45a1.1,1.1,0,0,0-.33-.67.93.93,0,0,0-.68-.26,1.05,1.05,0,0,0-.63.2,1.22,1.22,0,0,0-.41.56,2.33,2.33,0,0,0-.15.89,2.44,2.44,0,0,0,.15.91,1.17,1.17,0,0,0,.41.57,1.1,1.1,0,0,0,1.1.08.87.87,0,0,0,.35-.31,1.15,1.15,0,0,0,.19-.51H304a2.34,2.34,0,0,1-.34,1.13,2.1,2.1,0,0,1-.86.75A2.84,2.84,0,0,1,301.53,147.57Z"/><path class="cls-7" d="M308.57,145.1v-3.2h1.54v5.56h-1.48v-1h-.05a1.69,1.69,0,0,1-.63.79,1.81,1.81,0,0,1-1.06.3,1.86,1.86,0,0,1-1-.26,1.64,1.64,0,0,1-.66-.72,2.41,2.41,0,0,1-.24-1.12V141.9h1.54v3.27a1.15,1.15,0,0,0,.26.78.91.91,0,0,0,.7.28,1,1,0,0,0,.52-.13,1,1,0,0,0,.4-.38A1.21,1.21,0,0,0,308.57,145.1Z"/><path class="cls-7" d="M311.35,147.46V141.9h1.49v1h.06a1.45,1.45,0,0,1,.51-.78,1.33,1.33,0,0,1,.83-.27l.25,0,.23,0v1.36a1.54,1.54,0,0,0-.3-.05l-.35,0a1.23,1.23,0,0,0-.61.15,1.08,1.08,0,0,0-.42.4,1.23,1.23,0,0,0-.15.61v3.14Z"/><path class="cls-7" d="M316.94,147.57a2.24,2.24,0,0,1-.95-.19,1.52,1.52,0,0,1-.65-.55,1.66,1.66,0,0,1-.24-.92,1.55,1.55,0,0,1,.17-.78,1.33,1.33,0,0,1,.46-.51,2.71,2.71,0,0,1,.67-.29,4.82,4.82,0,0,1,.79-.13l.78-.1a1.09,1.09,0,0,0,.43-.13.3.3,0,0,0,.13-.27v0a.7.7,0,0,0-.21-.54.94.94,0,0,0-.61-.18,1.13,1.13,0,0,0-.67.18.83.83,0,0,0-.32.46l-1.43-.12a2,2,0,0,1,.43-.88,2,2,0,0,1,.82-.57,3.26,3.26,0,0,1,1.17-.2,3.68,3.68,0,0,1,.89.11,2.28,2.28,0,0,1,.76.33,1.64,1.64,0,0,1,.52.59,1.75,1.75,0,0,1,.2.85v3.75h-1.47v-.77h0a1.47,1.47,0,0,1-.36.46,1.78,1.78,0,0,1-.54.31A2.29,2.29,0,0,1,316.94,147.57Zm.45-1.07a1.32,1.32,0,0,0,.6-.13,1.13,1.13,0,0,0,.41-.37,1,1,0,0,0,.14-.52v-.6a.42.42,0,0,1-.19.09l-.28.07-.32.05-.28,0a1.88,1.88,0,0,0-.47.13.8.8,0,0,0-.32.24.57.57,0,0,0-.11.36.56.56,0,0,0,.23.48A1,1,0,0,0,317.39,146.5Z"/><path class="cls-7" d="M323.79,147.57a2.86,2.86,0,0,1-1.47-.36,2.41,2.41,0,0,1-.94-1,3.57,3.57,0,0,1,0-3,2.54,2.54,0,0,1,.94-1,2.85,2.85,0,0,1,1.46-.36,2.94,2.94,0,0,1,1.27.26,2.13,2.13,0,0,1,.87.75,2.15,2.15,0,0,1,.35,1.12h-1.45a1.15,1.15,0,0,0-.33-.67.93.93,0,0,0-.68-.26,1.05,1.05,0,0,0-.63.2,1.1,1.1,0,0,0-.41.56,2.33,2.33,0,0,0-.15.89,2.68,2.68,0,0,0,.14.91,1.25,1.25,0,0,0,.42.57,1.1,1.1,0,0,0,1.1.08.87.87,0,0,0,.35-.31,1.15,1.15,0,0,0,.19-.51h1.45a2.34,2.34,0,0,1-.34,1.13,2.16,2.16,0,0,1-.86.75A2.84,2.84,0,0,1,323.79,147.57Z"/><path class="cls-7" d="M328.22,149.54a3.12,3.12,0,0,1-.55,0,1.81,1.81,0,0,1-.42-.11l.34-1.15a1.44,1.44,0,0,0,.69.06.66.66,0,0,0,.45-.43l.09-.24-2-5.72h1.62L329.6,146h0l1.17-4.09h1.63l-2.16,6.15a2.9,2.9,0,0,1-.42.78,2,2,0,0,1-.68.52A2.37,2.37,0,0,1,328.22,149.54Z"/><path class="cls-116" d="M409.9,221.13a3.14,3.14,0,0,1,1.1.19,2.42,2.42,0,0,1,.95.61,2.92,2.92,0,0,1,.66,1.12,5.08,5.08,0,0,1,.25,1.72,6.13,6.13,0,0,1-.21,1.68,3.89,3.89,0,0,1-.61,1.26,2.67,2.67,0,0,1-1,.79,2.82,2.82,0,0,1-1.24.27,2.92,2.92,0,0,1-1.32-.29,2.49,2.49,0,0,1-.91-.79,2.42,2.42,0,0,1-.42-1.12h1.55a1.07,1.07,0,0,0,.38.63,1.12,1.12,0,0,0,.72.22,1.21,1.21,0,0,0,1.1-.63,3.49,3.49,0,0,0,.38-1.73h-.05a1.88,1.88,0,0,1-.45.56,2.41,2.41,0,0,1-.65.36,2.44,2.44,0,0,1-.77.13,2.27,2.27,0,0,1-1.17-.31,2.23,2.23,0,0,1-.82-.85,2.5,2.5,0,0,1-.29-1.24,2.59,2.59,0,0,1,.34-1.34,2.46,2.46,0,0,1,1-.91A2.83,2.83,0,0,1,409.9,221.13Zm0,1.23a1.29,1.29,0,0,0-.65.17,1.27,1.27,0,0,0-.45.47,1.35,1.35,0,0,0-.16.67,1.29,1.29,0,0,0,.16.66,1.24,1.24,0,0,0,.44.47,1.26,1.26,0,0,0,.65.17,1.21,1.21,0,0,0,.5-.1,1.38,1.38,0,0,0,.4-.28,1.51,1.51,0,0,0,.27-.42,1.45,1.45,0,0,0,.1-.51A1.29,1.29,0,0,0,411,223a1.2,1.2,0,0,0-.44-.48A1.31,1.31,0,0,0,409.91,222.36Z"/><path class="cls-116" d="M416.86,228.83a2.82,2.82,0,0,1-1.61-.46,2.93,2.93,0,0,1-1-1.32,5.43,5.43,0,0,1-.36-2.09,5.31,5.31,0,0,1,.36-2.06,2.83,2.83,0,0,1,5.27,0,5.31,5.31,0,0,1,.36,2.06,5.43,5.43,0,0,1-.36,2.09,2.83,2.83,0,0,1-1,1.32A2.74,2.74,0,0,1,416.86,228.83Zm0-1.3a1.13,1.13,0,0,0,1-.64,3.8,3.8,0,0,0,.38-1.93,5,5,0,0,0-.17-1.4,1.83,1.83,0,0,0-.49-.84,1.05,1.05,0,0,0-.73-.29,1.16,1.16,0,0,0-1,.64,3.77,3.77,0,0,0-.38,1.89,5.23,5.23,0,0,0,.17,1.43,1.87,1.87,0,0,0,.49.85A1.06,1.06,0,0,0,416.86,227.53Z"/><path class="cls-116" d="M421.22,223v-.39a1.74,1.74,0,0,1,.19-.82,1.51,1.51,0,0,1,.55-.6,1.68,1.68,0,0,1,.89-.23,1.72,1.72,0,0,1,.9.23,1.51,1.51,0,0,1,.55.6,1.86,1.86,0,0,1,.18.82V223a1.74,1.74,0,0,1-.19.82,1.44,1.44,0,0,1-.55.6,1.66,1.66,0,0,1-.89.22,1.69,1.69,0,0,1-.9-.22,1.48,1.48,0,0,1-.54-.6A1.74,1.74,0,0,1,421.22,223Zm.35,5.64,5.1-7.42h.94l-5.09,7.42Zm.71-6V223a1,1,0,0,0,.12.49.48.48,0,0,0,.45.23.47.47,0,0,0,.45-.23,1,1,0,0,0,.12-.49v-.39a1,1,0,0,0-.11-.49.48.48,0,0,0-.46-.23.47.47,0,0,0-.45.23A1.07,1.07,0,0,0,422.28,222.64Zm2.74,4.63v-.39a1.77,1.77,0,0,1,.2-.82,1.44,1.44,0,0,1,.55-.6,1.62,1.62,0,0,1,.88-.22,1.67,1.67,0,0,1,.9.22,1.44,1.44,0,0,1,.55.6,1.77,1.77,0,0,1,.19.82v.39a1.78,1.78,0,0,1-.19.83,1.58,1.58,0,0,1-.55.6,1.72,1.72,0,0,1-.9.22,1.66,1.66,0,0,1-.89-.22,1.58,1.58,0,0,1-.55-.6A1.91,1.91,0,0,1,425,227.27Zm1.06-.39v.39a1,1,0,0,0,.12.49.47.47,0,0,0,.45.23.48.48,0,0,0,.46-.23,1,1,0,0,0,.12-.49v-.39a1,1,0,0,0-.12-.49.47.47,0,0,0-.46-.23.49.49,0,0,0-.45.23A1,1,0,0,0,426.08,226.88Z"/><line class="cls-4" x1="283.6" y1="209.08" x2="429.62" y2="209.08"/><path class="cls-4" d="M429.62,210.3h-146a1.22,1.22,0,1,1,0-2.43h146a1.22,1.22,0,0,1,0,2.43Z"/><circle class="cls-7" cx="267.88" cy="186.95" r="3.65"/><circle class="cls-6" cx="267.88" cy="186.95" r="1.77"/></g></g></svg>