<svg xmlns="http://www.w3.org/2000/svg" xmlns:xlink="http://www.w3.org/1999/xlink" viewBox="0 0 461.15 303.62"><defs><style>.cls-1{fill:none;stroke:#d0d7ff;}.cls-1,.cls-14{stroke-miterlimit:10;}.cls-2{fill:url(#New_Gradient_Swatch_copy_2);}.cls-3{fill:#e4e9fe;}.cls-4{fill:#d0d7ff;}.cls-13,.cls-14,.cls-5{fill:#fff;}.cls-6{fill:#cb86eb;}.cls-7{clip-path:url(#clip-path);}.cls-8{fill:#28315e;}.cls-9{fill:#344392;}.cls-10{fill:#546fff;}.cls-11{fill:#75d1ee;}.cls-12{fill:#eea175;}.cls-13{font-size:10.12px;}.cls-14{stroke:#e4e9fe;}.cls-15{fill:#e8d9c3;}.cls-16{fill:#ede7df;}</style><linearGradient id="New_Gradient_Swatch_copy_2" x1="379.03" y1="38.2" x2="17.54" y2="293.4" gradientUnits="userSpaceOnUse"><stop offset="0" stop-color="#dadeff"/><stop offset="1" stop-color="#6e96fc"/></linearGradient><clipPath id="clip-path"><rect class="cls-1" x="86.54" y="0.5" width="357.98" height="281.69" rx="12.12"/></clipPath></defs><g id="Layer_2" data-name="Layer 2"><g id="Layer_1-2" data-name="Layer 1"><rect class="cls-2" x="18.92" y="27.98" width="358.73" height="275.64" rx="12.12"/><path class="cls-3" d="M54.45,179.42l-.13.36L51,181.19l-.34-.15c-9.69-4.27-10-4-10.68-3.27l-5.55,5.69a1.57,1.57,0,0,0-.4,1c0,.32,0,1.29,3.81,9.7l.15.34L36.55,198l-.35.14c-9.79,3.95-9.79,4.36-9.79,5.34v8.05c0,1,0,1.42,9.81,5.09l.36.14,1.4,3.45-.13.33c-2.4,5.7-3.62,9-3.62,9.89a1.51,1.51,0,0,0,.39,1l5.57,5.7c.71.73,1,1,10.49-3.47l.35-.16,3.36,1.41.14.35c3.87,10,4.25,10,5.26,10h7.88c1,0,1.43,0,5-10l.13-.36,3.35-1.42.34.16c9.69,4.27,10,4,10.67,3.27l5.57-5.69a1.56,1.56,0,0,0,.39-1c0-.32,0-1.29-3.81-9.71l-.15-.33,1.4-3.48.35-.13c9.79-4,9.79-4.36,9.79-5.35v-8c0-1,0-1.42-9.82-5.1l-.36-.13-1.39-3.46.13-.33c2.41-5.69,3.62-9,3.62-9.87a1.51,1.51,0,0,0-.39-1l-5.58-5.71c-.72-.72-1-1-10.48,3.48l-.36.17-3.35-1.41-.13-.34c-3.89-10-4.27-10-5.28-10H59.46C58.45,169.37,58,169.37,54.45,179.42Zm21.9,27.89a12.78,12.78,0,1,1-12.78-13A12.93,12.93,0,0,1,76.35,207.31Z"/><path class="cls-4" d="M23.51,207.93H8.33a.62.62,0,0,1-.62-.62.62.62,0,0,1,.62-.62H23.51a.62.62,0,0,1,.62.62A.62.62,0,0,1,23.51,207.93Z"/><path class="cls-4" d="M33.55,194.28H18.37a.62.62,0,1,1,0-1.24H33.55a.62.62,0,0,1,0,1.24Z"/><path class="cls-4" d="M67.66,158.44H52.48a.62.62,0,0,1-.62-.62.62.62,0,0,1,.62-.62H67.66a.61.61,0,0,1,.62.62A.62.62,0,0,1,67.66,158.44Z"/><path class="cls-4" d="M92.43,158.44H77.25a.62.62,0,0,1-.62-.62.62.62,0,0,1,.62-.62H92.43a.61.61,0,0,1,.62.62A.62.62,0,0,1,92.43,158.44Z"/><path class="cls-4" d="M18.37,194.28H3.19a.62.62,0,1,1,0-1.24H18.37a.62.62,0,0,1,0,1.24Z"/><path class="cls-4" d="M35.1,177.18a.63.63,0,0,1-.42-.17L23.27,166.39H15.92a.62.62,0,0,1-.62-.62.62.62,0,0,1,.62-.62h7.59a.59.59,0,0,1,.42.17l11.59,10.79a.62.62,0,0,1,0,.87A.62.62,0,0,1,35.1,177.18Z"/><path class="cls-4" d="M20,181.56H8.33a.62.62,0,1,1,0-1.24H19.71l9.15-9.58a.61.61,0,0,1,.87,0,.62.62,0,0,1,0,.88l-9.33,9.77A.62.62,0,0,1,20,181.56Z"/><path class="cls-4" d="M18.37,205.63a.62.62,0,0,1-.62-.62v-8.78a.62.62,0,0,1,.62-.62.62.62,0,0,1,.62.62V205A.62.62,0,0,1,18.37,205.63Z"/><path class="cls-4" d="M18.37,227.94a.61.61,0,0,1-.62-.62v-18a.61.61,0,0,1,.62-.62.62.62,0,0,1,.62.62v18A.62.62,0,0,1,18.37,227.94Z"/><line class="cls-5" x1="47.62" y1="174.69" x2="47.62" y2="143.25"/><path class="cls-4" d="M47.62,175.31a.62.62,0,0,1-.62-.62V143.25a.62.62,0,1,1,1.24,0v31.44A.62.62,0,0,1,47.62,175.31Z"/><line class="cls-5" x1="32.32" y1="168.6" x2="43.53" y2="160.39"/><path class="cls-4" d="M32.32,169.22A.62.62,0,0,1,32,168.1l11.2-8.21A.61.61,0,0,1,44,160a.63.63,0,0,1-.13.87L32.69,169.1A.63.63,0,0,1,32.32,169.22Z"/><line class="cls-5" x1="29.3" y1="229.89" x2="18.82" y2="229.89"/><path class="cls-4" d="M29.3,230.51H18.82a.61.61,0,0,1-.62-.62.62.62,0,0,1,.62-.62H29.3a.62.62,0,0,1,.62.62A.61.61,0,0,1,29.3,230.51Z"/><path class="cls-4" d="M60.68,265.79a.62.62,0,0,1-.62-.62V247.12a.62.62,0,0,1,.62-.62.61.61,0,0,1,.62.62v18.05A.61.61,0,0,1,60.68,265.79Z"/><path class="cls-4" d="M47.06,252.59a.62.62,0,0,1-.62-.62V238.38a.62.62,0,1,1,1.24,0V252A.62.62,0,0,1,47.06,252.59Z"/><line class="cls-5" x1="71.62" y1="267.74" x2="61.13" y2="267.74"/><path class="cls-4" d="M71.62,268.36H61.13a.62.62,0,0,1-.62-.62.62.62,0,0,1,.62-.62H71.62a.62.62,0,0,1,.62.62A.62.62,0,0,1,71.62,268.36Z"/><line class="cls-5" x1="91.31" y1="267.74" x2="80.82" y2="267.74"/><path class="cls-4" d="M91.31,268.36H80.82a.62.62,0,0,1-.62-.62.62.62,0,0,1,.62-.62H91.31a.62.62,0,0,1,.62.62A.62.62,0,0,1,91.31,268.36Z"/><line class="cls-5" x1="84.84" y1="254.81" x2="47.51" y2="254.81"/><path class="cls-4" d="M84.84,255.43H47.51a.62.62,0,1,1,0-1.24H84.84a.62.62,0,0,1,0,1.24Z"/><line class="cls-5" x1="32.32" y1="242.94" x2="18.37" y2="229.89"/><path class="cls-4" d="M32.32,243.56a.58.58,0,0,1-.42-.17L18,230.35a.62.62,0,0,1,.84-.91l14,13.05a.62.62,0,0,1,0,.87A.65.65,0,0,1,32.32,243.56Z"/><circle class="cls-6" cx="8.33" cy="207.31" r="2.57"/><path class="cls-4" d="M8.33,210.5a3.19,3.19,0,1,1,3.19-3.19A3.2,3.2,0,0,1,8.33,210.5Zm0-5.14a1.95,1.95,0,1,0,1.95,1.95A1.95,1.95,0,0,0,8.33,205.36Z"/><circle class="cls-6" cx="18.37" cy="193.66" r="2.57"/><path class="cls-4" d="M18.37,196.85a3.19,3.19,0,1,1,3.19-3.19A3.19,3.19,0,0,1,18.37,196.85Zm0-5.14a2,2,0,1,0,1.95,1.95A2,2,0,0,0,18.37,191.71Z"/><circle class="cls-6" cx="3.19" cy="193.66" r="2.57"/><path class="cls-4" d="M3.19,196.85a3.19,3.19,0,1,1,3.19-3.19A3.19,3.19,0,0,1,3.19,196.85Zm0-5.14a2,2,0,1,0,1.95,1.95A2,2,0,0,0,3.19,191.71Z"/><circle class="cls-6" cx="13.35" cy="165.77" r="2.57"/><path class="cls-4" d="M13.35,169a3.19,3.19,0,1,1,3.19-3.19A3.19,3.19,0,0,1,13.35,169Zm0-5.14a1.95,1.95,0,1,0,2,2A2,2,0,0,0,13.35,163.82Z"/><circle class="cls-6" cx="8.33" cy="180.94" r="2.57"/><path class="cls-4" d="M8.33,184.13a3.19,3.19,0,1,1,3.19-3.19A3.19,3.19,0,0,1,8.33,184.13Zm0-5.14a1.95,1.95,0,1,0,1.95,1.95A1.95,1.95,0,0,0,8.33,179Z"/><circle class="cls-6" cx="28.98" cy="171.17" r="2.57"/><path class="cls-4" d="M29,174.36a3.19,3.19,0,1,1,3.19-3.19A3.21,3.21,0,0,1,29,174.36Zm0-5.14a2,2,0,1,0,1.95,1.95A2,2,0,0,0,29,169.22Z"/><circle class="cls-6" cx="47.62" cy="157.82" r="2.57"/><path class="cls-4" d="M47.62,161a3.19,3.19,0,1,1,3.19-3.19A3.19,3.19,0,0,1,47.62,161Zm0-5.14a1.95,1.95,0,1,0,2,1.95A2,2,0,0,0,47.62,155.87Z"/><circle class="cls-6" cx="72.72" cy="157.82" r="2.57"/><path class="cls-4" d="M72.72,161a3.19,3.19,0,1,1,3.19-3.19A3.2,3.2,0,0,1,72.72,161Zm0-5.14a1.95,1.95,0,1,0,2,1.95A2,2,0,0,0,72.72,155.87Z"/><circle class="cls-6" cx="60.69" cy="267.74" r="2.57"/><path class="cls-4" d="M60.69,270.93a3.19,3.19,0,1,1,3.19-3.19A3.19,3.19,0,0,1,60.69,270.93Zm0-5.14a1.95,1.95,0,1,0,2,1.95A2,2,0,0,0,60.69,265.79Z"/><circle class="cls-6" cx="75.91" cy="267.74" r="2.57"/><path class="cls-4" d="M75.91,270.93a3.19,3.19,0,1,1,3.19-3.19A3.19,3.19,0,0,1,75.91,270.93Zm0-5.14a1.95,1.95,0,1,0,2,1.95A2,2,0,0,0,75.91,265.79Z"/><circle class="cls-6" cx="47.06" cy="254.81" r="2.57"/><path class="cls-4" d="M47.06,258a3.19,3.19,0,1,1,3.19-3.19A3.19,3.19,0,0,1,47.06,258Zm0-5.14A1.95,1.95,0,1,0,49,254.81,2,2,0,0,0,47.06,252.86Z"/><circle class="cls-6" cx="60.68" cy="254.81" r="2.57"/><path class="cls-4" d="M60.68,258a3.19,3.19,0,1,1,3.19-3.19A3.2,3.2,0,0,1,60.68,258Zm0-5.14a1.95,1.95,0,1,0,2,1.95A2,2,0,0,0,60.68,252.86Z"/><circle class="cls-6" cx="18.37" cy="229.89" r="2.57"/><path class="cls-4" d="M18.37,233.08a3.19,3.19,0,1,1,3.19-3.19A3.19,3.19,0,0,1,18.37,233.08Zm0-5.14a1.95,1.95,0,1,0,1.95,1.95A2,2,0,0,0,18.37,227.94Z"/><circle class="cls-6" cx="32.32" cy="242.94" r="2.57"/><path class="cls-4" d="M32.32,246.13a3.19,3.19,0,1,1,3.19-3.19A3.2,3.2,0,0,1,32.32,246.13Zm0-5.14a1.95,1.95,0,1,0,2,1.95A2,2,0,0,0,32.32,241Z"/><line class="cls-5" x1="35.29" y1="245.82" x2="43.35" y2="251.97"/><path class="cls-4" d="M43.35,252.59a.58.58,0,0,1-.37-.13l-8.07-6.15a.62.62,0,1,1,.75-1l8.07,6.15a.62.62,0,0,1-.38,1.11Z"/><g class="cls-7"><rect class="cls-3" x="86.54" y="0.5" width="357.98" height="281.69" rx="12.12"/><rect class="cls-5" x="115.89" y="0.5" width="206.57" height="281.69"/><rect class="cls-8" x="86.25" y="0.5" width="29.34" height="281.69"/><circle class="cls-9" cx="100.92" cy="22.8" r="7.04"/><circle class="cls-9" cx="100.92" cy="48.62" r="7.04"/><circle class="cls-9" cx="100.92" cy="74.44" r="7.04"/><circle class="cls-9" cx="100.92" cy="232.89" r="7.04"/><circle class="cls-9" cx="100.92" cy="256.37" r="7.04"/><rect class="cls-4" x="145.46" y="44.85" width="104.06" height="6.45" rx="2.75"/><rect class="cls-3" x="128.6" y="12.47" width="33.72" height="2.8" rx="1.19"/><rect class="cls-3" x="167.46" y="12.47" width="33.72" height="2.8" rx="1.19"/><rect class="cls-3" x="145.46" y="62.19" width="88.03" height="2.8" rx="1.19"/><rect class="cls-3" x="145.46" y="70.55" width="88.03" height="2.8" rx="1.19"/><rect class="cls-10" x="154.12" y="100.15" width="33.72" height="2.8" rx="1.19"/><rect class="cls-10" x="154.12" y="130.5" width="33.72" height="2.8" rx="1.19"/><rect class="cls-10" x="154.12" y="160.1" width="33.72" height="2.8" rx="1.19"/><rect class="cls-3" x="206.32" y="12.47" width="33.72" height="2.8" rx="1.19"/><path class="cls-4" d="M271.55,113.18H147.49a3.21,3.21,0,0,1-3.21-3.21V94.64a3.21,3.21,0,0,1,3.21-3.21H271.55a3.21,3.21,0,0,1,3.21,3.21V110A3.21,3.21,0,0,1,271.55,113.18ZM147.49,93.78a.86.86,0,0,0-.86.86V110a.87.87,0,0,0,.86.86H271.55a.86.86,0,0,0,.86-.86V94.64a.85.85,0,0,0-.86-.86Z"/><path class="cls-4" d="M271.55,142.77H147.49a3.21,3.21,0,0,1-3.21-3.2V124.24a3.21,3.21,0,0,1,3.21-3.21H271.55a3.21,3.21,0,0,1,3.21,3.21v15.33A3.21,3.21,0,0,1,271.55,142.77ZM147.49,123.38a.86.86,0,0,0-.86.86v15.33a.87.87,0,0,0,.86.86H271.55a.86.86,0,0,0,.86-.86V124.24a.85.85,0,0,0-.86-.86Z"/><path class="cls-4" d="M271.55,172.37H147.49a3.21,3.21,0,0,1-3.21-3.21V153.83a3.21,3.21,0,0,1,3.21-3.2H271.55a3.21,3.21,0,0,1,3.21,3.2v15.33A3.21,3.21,0,0,1,271.55,172.37ZM147.49,153a.87.87,0,0,0-.86.86v15.33a.86.86,0,0,0,.86.86H271.55a.85.85,0,0,0,.86-.86V153.83a.86.86,0,0,0-.86-.86Z"/><rect class="cls-4" x="144.43" y="181.4" width="130.34" height="19.4" rx="1.73"/><rect class="cls-10" x="144.35" y="227.68" width="130.34" height="23.53" rx="1.73"/><path class="cls-11" d="M262.44,104.36,260.66,102l.94-.71,1.11,1.46,3.61-2.4a4,4,0,1,0,.51,1.93,4.45,4.45,0,0,0-.08-.81Z"/><path class="cls-11" d="M262.44,134l-1.78-2.35.94-.7,1.11,1.46,3.61-2.4a4,4,0,1,0,.51,1.93,4.28,4.28,0,0,0-.08-.81Z"/><path class="cls-11" d="M262.44,163.56l-1.78-2.35.94-.71,1.11,1.47,3.61-2.41a4,4,0,1,0,.51,1.94,4.28,4.28,0,0,0-.08-.81Z"/><rect class="cls-5" x="186.22" y="189.7" width="56.81" height="2.8" rx="1.19"/><polygon class="cls-5" points="180.39 190.62 178.68 190.62 178.68 188.91 177.73 188.91 177.73 190.62 176.02 190.62 176.02 191.57 177.73 191.57 177.73 193.28 178.68 193.28 178.68 191.57 180.39 191.57 180.39 190.62"/><polygon class="cls-12" points="284.79 101.07 283.08 101.07 282.13 101.07 280.42 101.07 280.42 102.02 282.13 102.02 283.08 102.02 284.79 102.02 284.79 101.07"/><polygon class="cls-12" points="284.79 131.43 283.08 131.43 282.13 131.43 280.42 131.43 280.42 132.38 282.13 132.38 283.08 132.38 284.79 132.38 284.79 131.43"/><polygon class="cls-12" points="284.79 161.03 283.08 161.03 282.13 161.03 280.42 161.03 280.42 161.97 282.13 161.97 283.08 161.97 284.79 161.97 284.79 161.03"/><text class="cls-13" transform="translate(168.16 242.2)">Start Training</text><polygon class="cls-5" points="247.17 243.54 246.3 242.75 249.3 239.44 246.3 236.14 247.17 235.35 250.88 239.44 247.17 243.54"/><rect class="cls-5" x="243.33" y="238.86" width="6.76" height="1.17"/></g><rect class="cls-1" x="86.54" y="0.5" width="357.98" height="281.69" rx="12.12"/><rect class="cls-14" x="312.25" y="38.95" width="138.89" height="157.88" rx="5.26"/><path class="cls-10" d="M457.7,204.53H305.52V31.92H457.7Zm-149.42-2.76H454.94V34.69H308.28Z"/><rect class="cls-10" x="302.24" y="27.8" width="9.67" height="9.67"/><rect class="cls-10" x="302.24" y="198.32" width="9.67" height="9.67"/><rect class="cls-10" x="376.78" y="27.8" width="9.67" height="9.67"/><rect class="cls-10" x="376.78" y="198.32" width="9.67" height="9.67"/><rect class="cls-10" x="451.49" y="27.8" width="9.67" height="9.67"/><rect class="cls-10" x="302.24" y="113.39" width="9.67" height="9.67"/><rect class="cls-10" x="451.49" y="113.39" width="9.67" height="9.67"/><rect class="cls-10" x="451.49" y="198.32" width="9.67" height="9.67"/><rect class="cls-15" x="331.48" y="109.53" width="100.44" height="26.54" rx="9.61"/><rect class="cls-12" x="356.06" y="102.34" width="51.26" height="6.62" rx="2.4" transform="translate(487.35 -276.04) rotate(90)"/><rect class="cls-16" x="342.54" y="88.77" width="78.3" height="78.3" rx="11.83"/><rect class="cls-9" x="359.06" y="136.08" width="45.27" height="13.91" rx="5.03"/><rect class="cls-5" x="362.3" y="138.71" width="38.8" height="8.64" rx="3.13"/><circle class="cls-12" cx="381.7" cy="75.88" r="7.17"/><path class="cls-5" d="M381.7,83.74a7.86,7.86,0,1,1,7.85-7.86A7.87,7.87,0,0,1,381.7,83.74Zm0-14.34a6.48,6.48,0,1,0,6.47,6.48A6.48,6.48,0,0,0,381.7,69.4Z"/><rect class="cls-5" x="362.91" y="109.93" width="7.61" height="13.49" rx="2.76"/><rect class="cls-5" x="391.62" y="109.93" width="7.61" height="13.49" rx="2.76"/><rect class="cls-10" x="364.14" y="115.29" width="5.15" height="5.15" rx="1.86"/><rect class="cls-10" x="392.85" y="115.29" width="5.15" height="5.15" rx="1.86"/></g></g></svg>