<svg xmlns="http://www.w3.org/2000/svg" xmlns:xlink="http://www.w3.org/1999/xlink" viewBox="0 0 523.22 344.46"><defs><style>.cls-1{fill:none;}.cls-2{clip-path:url(#clip-path);}.cls-3{fill:url(#New_Gradient_Swatch);}.cls-4{fill:url(#New_Gradient_Swatch_copy);}.cls-5{fill:#344392;}.cls-6{fill:url(#linear-gradient);}.cls-7{fill:#28315e;}.cls-13,.cls-8{fill:#d0d7ff;}.cls-8{opacity:0.5;}.cls-9{fill:#fff;}.cls-10{clip-path:url(#clip-path-2);}.cls-11{fill:#e4e9fe;}.cls-12{fill:#546fff;}.cls-14{fill:#9c75ee;}.cls-15{fill:#cb86eb;}.cls-16{fill:#75d1ee;}</style><clipPath id="clip-path"><rect class="cls-1" width="517.78" height="328" rx="13.66"/></clipPath><linearGradient id="New_Gradient_Swatch" y1="164" x2="517.78" y2="164" gradientUnits="userSpaceOnUse"><stop offset="0" stop-color="#adbaff"/><stop offset="1" stop-color="#7098ff"/></linearGradient><linearGradient id="New_Gradient_Swatch_copy" x1="356.54" y1="194.89" x2="0" y2="194.89" gradientUnits="userSpaceOnUse"><stop offset="0" stop-color="#9088a6"/><stop offset="1" stop-color="#0e1936"/></linearGradient><linearGradient id="linear-gradient" x1="22.04" y1="294.16" x2="111.42" y2="294.16" gradientUnits="userSpaceOnUse"><stop offset="0" stop-color="#29ece7"/><stop offset="1" stop-color="#26e889"/><stop offset="1" stop-color="#26e885"/></linearGradient><clipPath id="clip-path-2"><rect class="cls-1" x="84.93" y="25.02" width="430.07" height="302.98" rx="14.3"/></clipPath></defs><g id="Layer_2" data-name="Layer 2"><g id="Layer_1-2" data-name="Layer 1"><g class="cls-2"><rect class="cls-3" width="517.78" height="328"/><path class="cls-4" d="M14.23,61.79H342.32A14.23,14.23,0,0,1,356.54,76V313.77A14.23,14.23,0,0,1,342.32,328H.14a.14.14,0,0,1-.14-.14V76A14.23,14.23,0,0,1,14.23,61.79Z"/><rect class="cls-5" x="22.04" y="91" width="89.38" height="5.92" rx="2.96"/><rect class="cls-5" x="22.04" y="140.81" width="89.38" height="5.92" rx="2.96"/><rect class="cls-5" x="22.04" y="199.99" width="89.38" height="5.92" rx="2.96"/><rect class="cls-6" x="22.04" y="282.77" width="89.38" height="22.77" rx="11.39"/><rect class="cls-7" x="22.04" y="106.43" width="33.55" height="2.7" rx="1.35"/><rect class="cls-7" x="22.04" y="114.02" width="33.55" height="2.7" rx="1.35"/><rect class="cls-7" x="22.04" y="122.5" width="33.55" height="2.7" rx="1.35"/><rect class="cls-8" x="66.73" y="106.43" width="33.55" height="2.7" rx="1.35"/><rect class="cls-8" x="66.73" y="114.02" width="33.55" height="2.7" rx="1.35"/><rect class="cls-8" x="66.73" y="122.5" width="33.55" height="2.7" rx="1.35"/><rect class="cls-7" x="22.04" y="157.75" width="33.55" height="2.7" rx="1.35"/><rect class="cls-7" x="22.04" y="165.33" width="33.55" height="2.7" rx="1.35"/><rect class="cls-7" x="22.04" y="173.81" width="33.55" height="2.7" rx="1.35"/><rect class="cls-8" x="66.73" y="157.75" width="33.55" height="2.7" rx="1.35"/><rect class="cls-8" x="66.73" y="173.81" width="33.55" height="2.7" rx="1.35"/><rect class="cls-7" x="22.04" y="182.16" width="33.55" height="2.7" rx="1.35"/><rect class="cls-7" x="22.04" y="216.21" width="33.55" height="2.7" rx="1.35"/><rect class="cls-7" x="22.04" y="223.8" width="33.55" height="2.7" rx="1.35"/><rect class="cls-7" x="22.04" y="232.27" width="33.55" height="2.7" rx="1.35"/><rect class="cls-8" x="66.73" y="223.8" width="33.55" height="2.7" rx="1.35"/><rect class="cls-9" x="47.31" y="292.81" width="51.37" height="2.7" rx="1.35"/><rect class="cls-7" x="22.04" y="240.62" width="33.55" height="2.7" rx="1.35"/><g class="cls-10"><rect class="cls-11" x="84.93" y="25.02" width="430.07" height="302.98" rx="14.3"/><rect class="cls-9" x="370.17" y="25.02" width="144.83" height="313"/><rect class="cls-9" x="142.35" y="40.29" width="201.6" height="272.43"/><rect class="cls-12" x="243.15" y="66.67" width="72.76" height="5.92" rx="2.96"/><rect class="cls-13" x="391.52" y="48.95" width="72.76" height="5.92" rx="2.96"/><rect class="cls-14" x="170.39" y="278.68" width="72.76" height="5.92" rx="2.96"/><rect class="cls-13" x="170.39" y="143.77" width="72.76" height="5.92" rx="2.96"/><rect class="cls-15" x="256.18" y="213.57" width="25.67" height="5.92" rx="2.96"/><rect class="cls-16" x="294.04" y="213.57" width="25.67" height="5.92" rx="2.96"/><rect class="cls-5" x="84.93" y="25.02" width="31.2" height="313"/><rect class="cls-11" x="167.83" y="66.67" width="57.7" height="47.35" rx="6.95"/><rect class="cls-11" x="243.15" y="80.39" width="47.47" height="2.6" rx="1.3"/><rect class="cls-11" x="404.16" y="78.09" width="47.47" height="2.6" rx="1.3"/><rect class="cls-11" x="404.16" y="117.27" width="66.18" height="2.6" rx="1.3"/><rect class="cls-11" x="404.16" y="98.04" width="69.01" height="2.6" rx="1.3"/><rect class="cls-11" x="404.16" y="136.86" width="59.58" height="2.6" rx="1.3"/><rect class="cls-11" x="243.15" y="90.34" width="60.07" height="2.6" rx="1.3"/><rect class="cls-11" x="170.39" y="256.93" width="60.07" height="2.6" rx="1.3"/><rect class="cls-11" x="170.39" y="267.81" width="60.07" height="2.6" rx="1.3"/><rect class="cls-11" x="170.39" y="167.53" width="47.47" height="2.6" rx="1.3"/><rect class="cls-11" x="170.39" y="177.49" width="42.3" height="2.6" rx="1.3"/><rect class="cls-11" x="256.5" y="167.53" width="14.51" height="2.6" rx="1.3"/><rect class="cls-11" x="256.5" y="177.49" width="18.36" height="2.6" rx="1.3"/><rect class="cls-11" x="294.04" y="167.53" width="20.89" height="2.6" rx="1.3"/><rect class="cls-11" x="170.39" y="187.45" width="49.93" height="2.6" rx="1.3"/><rect class="cls-11" x="256.5" y="187.45" width="14.51" height="2.6" rx="1.3"/><rect class="cls-11" x="294.04" y="187.45" width="20.89" height="2.6" rx="1.3"/><rect class="cls-11" x="294.04" y="177.49" width="15.33" height="2.6" rx="1.3"/><rect class="cls-11" x="170.39" y="197.4" width="47.21" height="2.6" rx="1.3"/><rect class="cls-11" x="256.5" y="197.4" width="18.36" height="2.6" rx="1.3"/><rect class="cls-11" x="294.04" y="197.4" width="26.43" height="2.6" rx="1.3"/><circle class="cls-12" cx="100.53" cy="44.46" r="7.91"/><circle class="cls-12" cx="100.53" cy="69.63" r="7.91"/><circle class="cls-12" cx="100.53" cy="95.78" r="7.91"/><circle class="cls-12" cx="100.53" cy="300.75" r="7.91"/><circle class="cls-12" cx="100.53" cy="277.02" r="7.91"/><rect class="cls-12" x="391.26" y="72.67" width="2.84" height="13.44" rx="1.42"/><rect class="cls-15" x="391.26" y="92.26" width="2.84" height="13.44" rx="1.42"/><rect class="cls-16" x="391.26" y="111.85" width="2.84" height="13.44" rx="1.42"/><rect class="cls-14" x="391.26" y="131.44" width="2.84" height="13.44" rx="1.42"/></g><path class="cls-11" d="M483.35,291.35l-.41-.14-1.62-3.87.18-.39c4.9-11.11,4.56-11.44,3.75-12.25l-6.54-6.38a1.74,1.74,0,0,0-1.14-.45c-.37,0-1.48,0-11.13,4.37l-.39.18-4-1.61-.16-.39c-4.54-11.24-5-11.24-6.13-11.24h-9.23c-1.13,0-1.64,0-5.85,11.26l-.16.41-4,1.61-.38-.15c-6.53-2.76-10.35-4.16-11.34-4.16a1.78,1.78,0,0,0-1.14.45L417.18,275c-.83.82-1.18,1.16,4,12l.19.41-1.62,3.85-.4.16c-11.5,4.44-11.5,4.88-11.5,6v9c0,1.16,0,1.64,11.52,5.77l.42.15,1.62,3.84-.18.39c-4.9,11.12-4.59,11.42-3.75,12.25l6.52,6.38a1.79,1.79,0,0,0,1.15.46c.37,0,1.48,0,11.14-4.37l.39-.19,4,1.62.15.39c4.55,11.24,5,11.24,6.14,11.24h9.24c1.15,0,1.64,0,5.85-11.27l.15-.41,4-1.6.38.15c6.53,2.77,10.34,4.16,11.33,4.16A1.78,1.78,0,0,0,479,335l6.55-6.4c.82-.83,1.17-1.16-4-12l-.19-.41,1.62-3.84.38-.15c11.52-4.47,11.52-4.9,11.52-6.06v-9C494.88,296,494.88,295.47,483.35,291.35Zm-32,25.14a14.67,14.67,0,1,1,14.95-14.67A14.83,14.83,0,0,1,451.36,316.49Z"/><path class="cls-5" d="M480.72,290.65l-.42-.15-1.61-3.86.17-.39c4.9-11.12,4.56-11.45,3.75-12.25l-6.53-6.38a1.78,1.78,0,0,0-1.14-.45c-.37,0-1.49,0-11.14,4.37l-.38.18-4-1.61-.16-.39c-4.54-11.24-5-11.24-6.13-11.24h-9.23c-1.12,0-1.64,0-5.85,11.26l-.15.41-4,1.61-.37-.16c-6.54-2.75-10.35-4.15-11.35-4.15a1.73,1.73,0,0,0-1.14.45l-6.54,6.39c-.83.82-1.17,1.16,4,12l.19.41-1.62,3.85-.4.15c-11.5,4.45-11.5,4.88-11.5,6v9c0,1.17,0,1.65,11.53,5.78l.41.14,1.62,3.85-.17.39c-4.9,11.12-4.59,11.42-3.76,12.25l6.53,6.38a1.74,1.74,0,0,0,1.15.45c.36,0,1.47,0,11.13-4.37l.39-.18,4,1.61.16.4c4.54,11.24,5,11.24,6.14,11.24h9.23c1.16,0,1.64,0,5.85-11.27l.16-.41,4-1.6.37.15c6.53,2.76,10.34,4.16,11.33,4.16a1.76,1.76,0,0,0,1.15-.45l6.55-6.41c.83-.82,1.17-1.15-4-12l-.19-.41,1.62-3.84.38-.15c11.52-4.47,11.52-4.91,11.52-6.07v-9C492.24,295.25,492.24,294.77,480.72,290.65Zm-32,25.14a14.67,14.67,0,1,1,14.95-14.67A14.84,14.84,0,0,1,448.72,315.79Z"/><path class="cls-16" d="M448.72,256.15a1,1,0,0,1-1-1V237.73a1,1,0,0,1,2,0v17.42A1,1,0,0,1,448.72,256.15Z"/><circle class="cls-9" cx="448.72" cy="237.73" r="2.95"/><path class="cls-16" d="M448.72,241.68a3.95,3.95,0,1,1,3.95-4A4,4,0,0,1,448.72,241.68Zm0-5.89a1.95,1.95,0,1,0,1.95,1.94A1.94,1.94,0,0,0,448.72,235.79Z"/><path class="cls-16" d="M464.37,267.67a1,1,0,0,1-1-1V249.25a1,1,0,0,1,2,0v17.42A1,1,0,0,1,464.37,267.67Z"/><path class="cls-16" d="M505.5,306.82a1,1,0,0,1-1-1V288.4a1,1,0,0,1,2,0v17.42A1,1,0,0,1,505.5,306.82Z"/><path class="cls-16" d="M505.5,335.24a1,1,0,0,1-1-1V316.82a1,1,0,1,1,2,0v17.42A1,1,0,0,1,505.5,335.24Z"/><path class="cls-16" d="M464.37,250.26a1,1,0,0,1-1-1V231.84a1,1,0,0,1,2,0v17.42A1,1,0,0,1,464.37,250.26Z"/><circle class="cls-9" cx="464.37" cy="249.25" r="2.95"/><path class="cls-16" d="M464.37,253.2a3.95,3.95,0,1,1,3.95-3.95A3.95,3.95,0,0,1,464.37,253.2Zm0-5.9a1.95,1.95,0,1,0,1.95,1.95A2,2,0,0,0,464.37,247.3Z"/><circle class="cls-9" cx="464.37" cy="231.84" r="2.95"/><path class="cls-16" d="M464.37,235.79a4,4,0,1,1,3.95-3.95A4,4,0,0,1,464.37,235.79Zm0-5.9a1.95,1.95,0,1,0,1.95,2A1.94,1.94,0,0,0,464.37,229.89Z"/><circle class="cls-9" cx="496.38" cy="243.5" r="2.95"/><path class="cls-16" d="M496.38,247.44a3.95,3.95,0,1,1,3.94-3.94A3.95,3.95,0,0,1,496.38,247.44Zm0-5.89a1.95,1.95,0,1,0,1.94,1.95A1.95,1.95,0,0,0,496.38,241.55Z"/><polyline class="cls-9" points="484 268.45 496.38 255.15 496.38 246.44"/><path class="cls-16" d="M484,269.45a1,1,0,0,1-.68-.27,1,1,0,0,1-.05-1.41l12.11-13v-8.32a1,1,0,1,1,2,0v8.71a1,1,0,0,1-.27.68l-12.38,13.3A1,1,0,0,1,484,269.45Z"/><path class="cls-16" d="M490.19,262.8a1,1,0,0,1-.69-.28l-11.22-10.7a1,1,0,0,1-.31-.73V237.73a1,1,0,0,1,2,0v12.94l10.91,10.41a1,1,0,0,1,0,1.41A1,1,0,0,1,490.19,262.8Z"/><circle class="cls-9" cx="478.97" cy="237.73" r="2.95"/><path class="cls-16" d="M479,241.68a3.95,3.95,0,1,1,3.95-4A4,4,0,0,1,479,241.68Zm0-5.89a1.95,1.95,0,1,0,1.95,1.94A2,2,0,0,0,479,235.79Z"/><path class="cls-16" d="M461.43,250.25H451.35a1,1,0,0,1,0-2h10.08a1,1,0,1,1,0,2Z"/><path class="cls-16" d="M446.47,250.25H425.75a1,1,0,0,1,0-2h20.72a1,1,0,0,1,0,2Z"/><circle class="cls-9" cx="490.19" cy="261.43" r="2.95"/><path class="cls-16" d="M490.19,265.38a3.95,3.95,0,1,1,3.95-3.95A4,4,0,0,1,490.19,265.38Zm0-5.89a1.95,1.95,0,1,0,1.95,1.94A1.94,1.94,0,0,0,490.19,259.49Z"/><line class="cls-9" x1="486.15" y1="282.82" x2="522.22" y2="282.82"/><path class="cls-16" d="M522.22,283.82H486.15a1,1,0,0,1,0-2h36.07a1,1,0,0,1,0,2Z"/><circle class="cls-9" cx="505.5" cy="282.82" r="2.95"/><path class="cls-16" d="M505.5,286.77a3.95,3.95,0,1,1,3.95-3.95A3.95,3.95,0,0,1,505.5,286.77Zm0-5.9a1.95,1.95,0,1,0,1.95,1.95A1.94,1.94,0,0,0,505.5,280.87Z"/><circle class="cls-9" cx="505.5" cy="311.62" r="2.95"/><path class="cls-16" d="M505.5,315.57a3.95,3.95,0,1,1,3.95-3.95A3.95,3.95,0,0,1,505.5,315.57Zm0-5.89a1.95,1.95,0,1,0,1.95,1.94A1.94,1.94,0,0,0,505.5,309.68Z"/><line class="cls-9" x1="493.14" y1="265.27" x2="502.56" y2="278.12"/><path class="cls-16" d="M502.56,279.12a1,1,0,0,1-.81-.4l-9.42-12.86a1,1,0,1,1,1.61-1.18l9.42,12.85a1,1,0,0,1-.8,1.59Z"/><line class="cls-9" x1="422.8" y1="261.8" x2="422.8" y2="249.77"/><path class="cls-16" d="M422.8,262.8a1,1,0,0,1-1-1v-12a1,1,0,0,1,2,0v12A1,1,0,0,1,422.8,262.8Z"/><path class="cls-16" d="M403,298.81H382.32a1,1,0,0,1,0-2H403a1,1,0,0,1,0,2Z"/><path class="cls-16" d="M413.07,283.18h-15.6a1,1,0,0,1,0-2h15.6a1,1,0,0,1,0,2Z"/><line class="cls-9" x1="379.37" y1="310.36" x2="379.37" y2="298.32"/><path class="cls-16" d="M379.37,311.36a1,1,0,0,1-1-1v-12a1,1,0,0,1,2,0v12A1,1,0,0,1,379.37,311.36Z"/><line class="cls-9" x1="379.37" y1="332.95" x2="379.37" y2="320.92"/><path class="cls-16" d="M379.37,334a1,1,0,0,1-1-1v-12a1,1,0,1,1,2,0v12A1,1,0,0,1,379.37,334Z"/><circle class="cls-9" cx="379.37" cy="297.81" r="2.95"/><path class="cls-16" d="M379.37,301.76a3.95,3.95,0,1,1,3.95-3.95A4,4,0,0,1,379.37,301.76Zm0-5.9a1.95,1.95,0,1,0,1.95,1.95A2,2,0,0,0,379.37,295.86Z"/><circle class="cls-9" cx="379.37" cy="315.27" r="2.95"/><path class="cls-16" d="M379.37,319.22a3.95,3.95,0,1,1,3.95-4A4,4,0,0,1,379.37,319.22Zm0-5.89a1.95,1.95,0,1,0,1.95,1.94A2,2,0,0,0,379.37,313.33Z"/><line class="cls-9" x1="394.21" y1="325.53" x2="394.21" y2="282.69"/><path class="cls-16" d="M394.21,326.53a1,1,0,0,1-1-1V282.69a1,1,0,0,1,2,0v42.84A1,1,0,0,1,394.21,326.53Z"/><circle class="cls-9" cx="394.21" cy="282.18" r="2.95"/><path class="cls-16" d="M394.21,286.13a3.95,3.95,0,1,1,4-3.95A4,4,0,0,1,394.21,286.13Zm0-5.9a1.95,1.95,0,1,0,2,1.95A1.95,1.95,0,0,0,394.21,280.23Z"/><circle class="cls-9" cx="394.21" cy="297.81" r="2.95"/><path class="cls-16" d="M394.21,301.76a3.95,3.95,0,1,1,4-3.95A4,4,0,0,1,394.21,301.76Zm0-5.9a1.95,1.95,0,1,0,2,1.95A1.95,1.95,0,0,0,394.21,295.86Z"/><line class="cls-9" x1="407.83" y1="265.27" x2="422.8" y2="249.26"/><path class="cls-16" d="M407.83,266.27a1,1,0,0,1-.68-.27,1,1,0,0,1,0-1.42l15-16a1,1,0,0,1,1.46,1.37l-15,16A1,1,0,0,1,407.83,266.27Z"/><circle class="cls-9" cx="422.8" cy="249.26" r="2.95"/><path class="cls-16" d="M422.8,253.2a3.95,3.95,0,1,1,3.95-3.94A3.95,3.95,0,0,1,422.8,253.2Zm0-5.89a1.95,1.95,0,1,0,1.95,1.95A2,2,0,0,0,422.8,247.31Z"/><circle class="cls-9" cx="407.83" cy="265.27" r="2.95"/><path class="cls-16" d="M407.83,269.22a4,4,0,1,1,3.95-4A4,4,0,0,1,407.83,269.22Zm0-5.9a1.95,1.95,0,1,0,1.95,1.95A1.95,1.95,0,0,0,407.83,263.32Z"/><line class="cls-9" x1="404.53" y1="268.67" x2="397.47" y2="277.92"/><path class="cls-16" d="M397.47,278.92a1,1,0,0,1-.61-.2,1,1,0,0,1-.19-1.4l7.06-9.26a1,1,0,0,1,1.59,1.21l-7.06,9.26A1,1,0,0,1,397.47,278.92Z"/></g></g></g></svg>