<svg xmlns="http://www.w3.org/2000/svg" xmlns:xlink="http://www.w3.org/1999/xlink" viewBox="0 0 462.78 324.26"><defs><style>.cls-1{fill:none;}.cls-1,.cls-4{stroke:#e5e5e5;}.cls-1,.cls-4,.cls-5{stroke-miterlimit:10;}.cls-2{fill:url(#New_Gradient_Swatch_copy_2);}.cls-3{fill:#e4e9fe;}.cls-4,.cls-8{fill:#fff;}.cls-5,.cls-6{fill:#d0d7ff;}.cls-5{stroke:#e4e9fe;}.cls-7{clip-path:url(#clip-path);}.cls-9{fill:#28315e;}.cls-10{fill:#344392;}.cls-11{fill:#9c75ee;}.cls-12{fill:#75d1ee;}.cls-13{fill:#eea175;}.cls-14{fill:#546fff;}.cls-15{fill:#e8d9c3;}</style><linearGradient id="New_Gradient_Swatch_copy_2" x1="388.78" y1="10.22" x2="27.3" y2="265.42" gradientUnits="userSpaceOnUse"><stop offset="0" stop-color="#dadeff"/><stop offset="1" stop-color="#6e96fc"/></linearGradient><clipPath id="clip-path"><rect class="cls-1" x="104.3" y="16.68" width="357.98" height="281.69" rx="12.12"/></clipPath></defs><g id="Layer_2" data-name="Layer 2"><g id="Layer_1-2" data-name="Layer 1"><rect class="cls-2" x="28.67" width="358.73" height="275.64" rx="12.12"/><rect class="cls-3" x="8.72" y="50.9" width="133.54" height="190.27"/><rect class="cls-4" x="0.5" y="42.68" width="133.54" height="190.27"/><line class="cls-5" x1="8.16" y1="75.19" x2="125.23" y2="75.19"/><line class="cls-5" x1="8.16" y1="128.56" x2="125.23" y2="128.56"/><line class="cls-5" x1="8.16" y1="141.15" x2="125.23" y2="141.15"/><line class="cls-5" x1="8.16" y1="166.06" x2="125.23" y2="166.06"/><line class="cls-5" x1="8.16" y1="177.73" x2="125.23" y2="177.73"/><rect class="cls-6" x="12.89" y="65.86" width="49.49" height="4.79" rx="2.04"/><rect class="cls-6" x="83.55" y="88.61" width="35.86" height="4.79" rx="2.04"/><rect class="cls-6" x="12.57" y="194.4" width="29.16" height="4.79" rx="2.04"/><rect class="cls-3" x="8.69" y="133.71" width="25.08" height="2.08" rx="0.89"/><rect class="cls-3" x="61.65" y="133.71" width="25.08" height="2.08" rx="0.89"/><rect class="cls-3" x="99.81" y="133.71" width="25.08" height="2.08" rx="0.89"/><rect class="cls-3" x="8.69" y="149.01" width="25.08" height="2.08" rx="0.89"/><rect class="cls-3" x="61.65" y="149.01" width="25.08" height="2.08" rx="0.89"/><rect class="cls-3" x="99.81" y="149.01" width="25.08" height="2.08" rx="0.89"/><rect class="cls-3" x="8.69" y="157.37" width="25.08" height="2.08" rx="0.89"/><rect class="cls-3" x="61.65" y="157.37" width="25.08" height="2.08" rx="0.89"/><rect class="cls-3" x="99.81" y="157.37" width="25.08" height="2.08" rx="0.89"/><rect class="cls-3" x="8.69" y="170.85" width="25.08" height="2.08" rx="0.89"/><rect class="cls-3" x="61.65" y="170.85" width="25.08" height="2.08" rx="0.89"/><rect class="cls-3" x="99.81" y="170.85" width="25.08" height="2.08" rx="0.89"/><g class="cls-7"><rect class="cls-8" x="104.3" y="16.68" width="357.98" height="281.69" rx="12.12"/><rect class="cls-3" x="133.64" y="16.68" width="206.57" height="281.69"/><rect class="cls-9" x="104.01" y="16.68" width="29.34" height="281.69"/><rect class="cls-8" x="146.55" y="30.76" width="179.58" height="255.87"/><line class="cls-6" x1="156.86" y1="74.47" x2="314.28" y2="74.47"/><rect class="cls-3" x="156.86" y="73.89" width="157.42" height="1.17"/><line class="cls-6" x1="156.86" y1="146.25" x2="314.28" y2="146.25"/><rect class="cls-3" x="156.86" y="145.66" width="157.42" height="1.17"/><line class="cls-6" x1="156.86" y1="163.18" x2="314.28" y2="163.18"/><rect class="cls-3" x="156.86" y="162.59" width="157.42" height="1.17"/><line class="cls-6" x1="156.86" y1="196.67" x2="314.28" y2="196.67"/><rect class="cls-3" x="156.86" y="196.08" width="157.42" height="1.17"/><line class="cls-6" x1="156.86" y1="212.36" x2="314.28" y2="212.36"/><rect class="cls-3" x="156.86" y="211.78" width="157.42" height="1.17"/><rect class="cls-6" x="163.21" y="61.92" width="66.55" height="6.45" rx="2.75"/><rect class="cls-6" x="258.24" y="92.52" width="48.22" height="6.45" rx="2.75"/><rect class="cls-6" x="162.79" y="234.78" width="39.21" height="6.45" rx="2.75"/><rect class="cls-3" x="157.56" y="153.16" width="33.72" height="2.8" rx="1.19"/><rect class="cls-3" x="228.78" y="153.16" width="33.72" height="2.8" rx="1.19"/><rect class="cls-3" x="280.09" y="153.16" width="33.72" height="2.8" rx="1.19"/><rect class="cls-3" x="157.56" y="173.74" width="33.72" height="2.8" rx="1.19"/><rect class="cls-3" x="228.78" y="173.74" width="33.72" height="2.8" rx="1.19"/><rect class="cls-3" x="280.09" y="173.74" width="33.72" height="2.8" rx="1.19"/><rect class="cls-3" x="157.56" y="184.98" width="33.72" height="2.8" rx="1.19"/><rect class="cls-3" x="228.78" y="184.98" width="33.72" height="2.8" rx="1.19"/><rect class="cls-3" x="280.09" y="184.98" width="33.72" height="2.8" rx="1.19"/><rect class="cls-3" x="157.56" y="203.12" width="33.72" height="2.8" rx="1.19"/><rect class="cls-3" x="228.78" y="203.12" width="33.72" height="2.8" rx="1.19"/><rect class="cls-3" x="280.09" y="203.12" width="33.72" height="2.8" rx="1.19"/><circle class="cls-10" cx="118.68" cy="38.98" r="7.04"/><circle class="cls-10" cx="118.68" cy="64.8" r="7.04"/><circle class="cls-10" cx="118.68" cy="90.62" r="7.04"/><circle class="cls-10" cx="118.68" cy="249.07" r="7.04"/><circle class="cls-10" cx="118.68" cy="272.55" r="7.04"/><path class="cls-11" d="M237.52,77.48H156.27V55h81.25Zm-80.07-1.17h78.89V56.21H157.45Z"/><rect class="cls-11" x="154.61" y="53.25" width="4.51" height="4.51"/><rect class="cls-11" x="154.61" y="74.64" width="4.51" height="4.51"/><rect class="cls-11" x="194.64" y="53.25" width="4.51" height="4.51"/><rect class="cls-11" x="194.64" y="74.64" width="4.51" height="4.51"/><rect class="cls-11" x="234.68" y="53.25" width="4.51" height="4.51"/><rect class="cls-11" x="154.61" y="63.86" width="4.51" height="4.51"/><rect class="cls-11" x="234.68" y="63.86" width="4.51" height="4.51"/><rect class="cls-11" x="234.68" y="74.64" width="4.51" height="4.51"/><path class="cls-12" d="M312.61,107H252.09V84.58h60.52Zm-59.35-1.17h58.18V85.76H253.26Z"/><rect class="cls-12" x="250.42" y="82.8" width="4.51" height="4.51"/><rect class="cls-12" x="250.42" y="104.19" width="4.51" height="4.51"/><rect class="cls-12" x="280.09" y="82.8" width="4.51" height="4.51"/><rect class="cls-12" x="280.09" y="104.19" width="4.51" height="4.51"/><rect class="cls-12" x="309.77" y="82.8" width="4.51" height="4.51"/><rect class="cls-12" x="250.42" y="93.49" width="4.51" height="4.51"/><rect class="cls-12" x="309.77" y="93.49" width="4.51" height="4.51"/><rect class="cls-12" x="309.77" y="104.19" width="4.51" height="4.51"/><path class="cls-13" d="M207.81,249.28H157V226.83h50.84Zm-49.66-1.17h48.48V228H158.15Z"/><rect class="cls-13" x="180.13" y="225.05" width="4.51" height="4.51"/><rect class="cls-13" x="155.3" y="225.05" width="4.51" height="4.51"/><rect class="cls-13" x="155.3" y="246.44" width="4.51" height="4.51"/><rect class="cls-13" x="180.13" y="246.44" width="4.51" height="4.51"/><rect class="cls-13" x="204.97" y="225.05" width="4.51" height="4.51"/><rect class="cls-13" x="155.3" y="235.74" width="4.51" height="4.51"/><rect class="cls-13" x="204.97" y="235.74" width="4.51" height="4.51"/><rect class="cls-13" x="204.97" y="246.44" width="4.51" height="4.51"/><rect class="cls-14" x="363.2" y="58.7" width="66.55" height="6.45" rx="2.75"/><rect class="cls-14" x="363.11" y="90.27" width="48.22" height="6.45" rx="2.75"/><rect class="cls-14" x="363.11" y="123.07" width="39.21" height="6.45" rx="2.75"/><rect class="cls-11" x="351.1" y="50.9" width="4.51" height="21.22"/><rect class="cls-12" x="351.1" y="82.79" width="4.51" height="21.22"/><rect class="cls-13" x="351.1" y="115.68" width="4.51" height="21.22"/><path class="cls-13" d="M285.54,178.72a.59.59,0,0,1-.36-1.06l.47-.35a.59.59,0,1,1,.71.93l-.47.36A.57.57,0,0,1,285.54,178.72Z"/><path class="cls-13" d="M287.89,176.92a.6.6,0,0,1-.47-.23.59.59,0,0,1,.11-.82l.94-.72a.59.59,0,1,1,.72.93l-.95.72A.57.57,0,0,1,287.89,176.92Zm2.83-2.16a.59.59,0,0,1-.36-1l.94-.72a.59.59,0,0,1,.71.93l-.94.72A.59.59,0,0,1,290.72,174.76Zm2.82-2.16a.59.59,0,0,1-.36-1l.95-.72a.59.59,0,0,1,.71.93l-.94.72A.6.6,0,0,1,293.54,172.6Zm2.83-2.16a.6.6,0,0,1-.47-.23.58.58,0,0,1,.11-.82l.94-.72a.59.59,0,0,1,.83.11.6.6,0,0,1-.11.82l-.95.72A.57.57,0,0,1,296.37,170.44Zm2.82-2.16a.59.59,0,0,1-.35-1.05l.94-.72a.59.59,0,0,1,.71.93l-.94.72A.6.6,0,0,1,299.19,168.28Zm2.83-2.16a.6.6,0,0,1-.47-.23.59.59,0,0,1,.11-.82l.94-.72a.59.59,0,1,1,.72.93l-.94.72A.62.62,0,0,1,302,166.12Zm2.83-2.16a.59.59,0,0,1-.36-1.05l.94-.73a.59.59,0,0,1,.71.94l-.94.72A.57.57,0,0,1,304.85,164Zm2.82-2.16a.58.58,0,0,1-.46-.23.59.59,0,0,1,.11-.83l.94-.72a.6.6,0,0,1,.82.11.59.59,0,0,1-.11.83l-.94.72A.6.6,0,0,1,307.67,161.8Zm2.83-2.16a.59.59,0,0,1-.36-1.06l.94-.72a.59.59,0,1,1,.72.94l-.95.72A.57.57,0,0,1,310.5,159.64Zm2.82-2.16a.58.58,0,0,1-.46-.23.59.59,0,0,1,.11-.83l.94-.72a.59.59,0,0,1,.71.94l-.94.72A.6.6,0,0,1,313.32,157.48Zm2.83-2.16a.6.6,0,0,1-.47-.23.61.61,0,0,1,.11-.83l.94-.72a.6.6,0,0,1,.83.11.59.59,0,0,1-.11.82l-.94.73A.6.6,0,0,1,316.15,155.32Zm2.83-2.16a.59.59,0,0,1-.36-1.06l.94-.72a.59.59,0,0,1,.71.94l-.94.72A.57.57,0,0,1,319,153.16ZM321.8,151a.58.58,0,0,1-.46-.23.59.59,0,0,1,.11-.83l.94-.72a.59.59,0,0,1,.82.11.58.58,0,0,1-.11.82l-.94.72A.55.55,0,0,1,321.8,151Zm2.83-2.17a.57.57,0,0,1-.47-.23.59.59,0,0,1,.11-.82l.94-.72a.59.59,0,1,1,.72.93l-.94.72A.56.56,0,0,1,324.63,148.83Zm2.82-2.16a.55.55,0,0,1-.46-.23.58.58,0,0,1,.11-.82l.94-.72a.59.59,0,0,1,.82.11.58.58,0,0,1-.11.82l-.94.72A.6.6,0,0,1,327.45,146.67Zm2.83-2.16a.57.57,0,0,1-.47-.23.6.6,0,0,1,.11-.82l.95-.72a.59.59,0,0,1,.82.11.58.58,0,0,1-.11.82l-.94.72A.6.6,0,0,1,330.28,144.51Zm2.83-2.16a.6.6,0,0,1-.47-.23.58.58,0,0,1,.11-.82l.94-.72a.59.59,0,0,1,.71.93l-.94.72A.57.57,0,0,1,333.11,142.35Zm2.82-2.16a.59.59,0,0,1-.35-1.05l.94-.72a.59.59,0,0,1,.82.11.58.58,0,0,1-.11.82l-.94.72A.6.6,0,0,1,335.93,140.19Zm2.83-2.16a.6.6,0,0,1-.47-.23.59.59,0,0,1,.11-.82l.94-.72a.59.59,0,1,1,.72.93l-.94.72A.62.62,0,0,1,338.76,138Zm2.83-2.16a.59.59,0,0,1-.36-1.05l.94-.72a.59.59,0,0,1,.71.93l-.94.72A.57.57,0,0,1,341.59,135.87Zm2.82-2.16a.59.59,0,0,1-.36-1.05l.95-.72a.59.59,0,0,1,.71.93l-.94.72A.6.6,0,0,1,344.41,133.71Zm2.83-2.16a.6.6,0,0,1-.47-.23.58.58,0,0,1,.11-.82l.94-.72a.59.59,0,0,1,.83.11.6.6,0,0,1-.11.82l-1,.72A.57.57,0,0,1,347.24,131.55Zm2.82-2.16a.59.59,0,0,1-.35-1l.94-.72a.59.59,0,0,1,.71.93l-.94.72A.6.6,0,0,1,350.06,129.39Z"/><path class="cls-13" d="M352.89,127.23a.59.59,0,0,1-.36-1l.47-.36a.59.59,0,0,1,.82.11.58.58,0,0,1-.11.82l-.46.36A.62.62,0,0,1,352.89,127.23Z"/><path class="cls-13" d="M207.22,238.59a.58.58,0,0,1-.47-.24.59.59,0,0,1,.11-.82l.47-.35a.59.59,0,0,1,.71.93l-.46.35A.57.57,0,0,1,207.22,238.59Z"/><path class="cls-13" d="M209.55,236.8a.59.59,0,0,1-.36-1.05l.94-.71a.59.59,0,1,1,.71.93l-.93.71A.6.6,0,0,1,209.55,236.8Zm2.8-2.14a.6.6,0,0,1-.47-.23.59.59,0,0,1,.11-.82l.94-.71a.59.59,0,0,1,.71.93l-.93.71A.62.62,0,0,1,212.35,234.66Zm2.8-2.14a.57.57,0,0,1-.47-.23.59.59,0,0,1,.11-.82l.93-.71a.59.59,0,0,1,.83.11.6.6,0,0,1-.11.82l-.94.71A.52.52,0,0,1,215.15,232.52Zm2.8-2.13a.59.59,0,0,1-.36-1.06l.93-.71a.59.59,0,0,1,.83.11.6.6,0,0,1-.11.82l-.94.72A.57.57,0,0,1,218,230.39Zm2.79-2.14a.58.58,0,0,1-.46-.23.59.59,0,0,1,.11-.83l.93-.71a.59.59,0,1,1,.71.93l-.93.72A.6.6,0,0,1,220.74,228.25Zm2.8-2.14a.58.58,0,0,1-.46-.23.59.59,0,0,1,.11-.83l.93-.71a.59.59,0,0,1,.82.11.58.58,0,0,1-.11.82l-.93.72A.6.6,0,0,1,223.54,226.11Zm2.8-2.14a.59.59,0,0,1-.36-1.05l.94-.72a.59.59,0,0,1,.71.94l-.93.71A.6.6,0,0,1,226.34,224Zm2.8-2.14a.6.6,0,0,1-.47-.23.59.59,0,0,1,.11-.82l.94-.72a.59.59,0,0,1,.71.94l-.93.71A.62.62,0,0,1,229.14,221.83Zm2.8-2.14a.6.6,0,0,1-.47-.23.58.58,0,0,1,.11-.82l.93-.72a.61.61,0,0,1,.83.11.6.6,0,0,1-.11.83l-.94.71A.57.57,0,0,1,231.94,219.69Zm2.8-2.14a.6.6,0,0,1-.47-.23.58.58,0,0,1,.11-.82l.93-.72a.59.59,0,1,1,.72.94l-.94.71A.57.57,0,0,1,234.74,217.55Zm2.79-2.14a.59.59,0,0,1-.35-1l.93-.71a.59.59,0,1,1,.71.93l-.93.71A.6.6,0,0,1,237.53,215.41Zm2.8-2.14a.59.59,0,0,1-.35-1.05l.93-.71a.59.59,0,1,1,.71.93l-.93.71A.6.6,0,0,1,240.33,213.27Zm2.8-2.14a.59.59,0,0,1-.36-1l.94-.71a.59.59,0,0,1,.71.93l-.93.71A.6.6,0,0,1,243.13,211.13Zm2.8-2.14a.57.57,0,0,1-.47-.23.6.6,0,0,1,.11-.82l.93-.71a.59.59,0,1,1,.72.93l-.93.71A.62.62,0,0,1,245.93,209Z"/><path class="cls-13" d="M248.73,206.86a.59.59,0,0,1-.36-1.06l.47-.35a.59.59,0,0,1,.71.93l-.47.36A.57.57,0,0,1,248.73,206.86Z"/><path class="cls-6" d="M388.21,281.6H359.36a8.85,8.85,0,1,1,0-17.69h28.85a8.85,8.85,0,1,1,0,17.69Zm-28.85-16.52a7.68,7.68,0,0,0,0,15.35h28.85a7.68,7.68,0,1,0,0-15.35Z"/><rect class="cls-14" x="402.51" y="264.49" width="45.37" height="16.52" rx="7.04"/></g><rect class="cls-1" x="104.3" y="16.68" width="357.98" height="281.69" rx="12.12"/><path class="cls-8" d="M261.8,324.26a32.08,32.08,0,0,1-32.29-31.79l-.34-45.25a12.5,12.5,0,0,1,25-.19v1.9l0,.47,0,.22.12,15.42a.6.6,0,0,0,.6.59.61.61,0,0,0,.59-.6l-.53-69.9a12.49,12.49,0,1,1,25-.19l.2,25.41a12.35,12.35,0,0,1,4.05-.71,12.49,12.49,0,0,1,10.2,5.16,12.49,12.49,0,0,1,18.07,6.08,12.32,12.32,0,0,1,4.9-1,12.51,12.51,0,0,1,12.58,12.4l.38,49.46A32.07,32.07,0,0,1,298.46,324Z"/><path class="cls-15" d="M317.33,234.06a8.27,8.27,0,0,0-8.21,8.33l-.05-7a8.28,8.28,0,0,0-16.55.12l0-3.48a8.27,8.27,0,1,0-16.54.13L275.67,195a8.28,8.28,0,0,0-16.55.13l.47,61.43h0l.06,8.46a4.82,4.82,0,1,1-9.63.08l-.12-15.58a4.75,4.75,0,0,1,0-.53v-1.9a8.28,8.28,0,1,0-16.55.13v1.4l.3,38.66,0,5.18a27.82,27.82,0,0,0,28,27.61l36.66-.27a27.82,27.82,0,0,0,27.61-28l-.15-19.85-.17-22-.06-7.64A8.26,8.26,0,0,0,317.33,234.06Z"/><rect class="cls-14" x="265.83" y="176.31" width="2.82" height="7.69" rx="1.2" transform="translate(-1.36 2.04) rotate(-0.44)"/><rect class="cls-14" x="281.22" y="191.47" width="2.82" height="7.69" rx="1.2" transform="translate(475.78 -88.8) rotate(89.56)"/><rect class="cls-14" x="250.68" y="191.7" width="2.82" height="7.69" rx="1.2" transform="translate(445.7 -58.02) rotate(89.56)"/><rect class="cls-14" x="276.66" y="180.7" width="2.82" height="7.69" rx="1.2" transform="translate(209.45 -142.06) rotate(44.56)"/><rect class="cls-14" x="255.07" y="180.87" width="2.82" height="7.69" rx="1.2" transform="translate(568.05 131.59) rotate(134.56)"/><rect class="cls-8" x="275.94" y="223.79" width="1.69" height="32.19" rx="0.72"/><rect class="cls-8" x="292.5" y="228.28" width="1.69" height="27.71" rx="0.72"/><rect class="cls-8" x="309.05" y="228.28" width="1.69" height="27.71" rx="0.72"/></g></g></svg>