<svg xmlns="http://www.w3.org/2000/svg" viewBox="0 0 59.3 58"><defs><style>.cls-1{fill:#fff;}.cls-2{fill:#546fff;}</style></defs><g id="Layer_2" data-name="Layer 2"><g id="Layer_1-2" data-name="Layer 1"><rect class="cls-1" x="1" y="1" width="44" height="56" rx="5.95"/><path class="cls-2" d="M39.05,58H7a7,7,0,0,1-6.95-7V7A7,7,0,0,1,7,0h32.1a7,7,0,0,1,7,7v44.1A7,7,0,0,1,39.05,58ZM7,2A5,5,0,0,0,2,7v44.1a5,5,0,0,0,5,5h32.1a5,5,0,0,0,5-5V7a5,5,0,0,0-5-4.95Z"/><line class="cls-1" x1="10" y1="12" x2="35.5" y2="12"/><path class="cls-2" d="M35.5,13H10a1,1,0,0,1,0-2H35.5a1,1,0,0,1,0,2Z"/><line class="cls-1" x1="10" y1="20.25" x2="33" y2="20.25"/><path class="cls-2" d="M33,21.25H10a1,1,0,0,1,0-2H33a1,1,0,0,1,0,2Z"/><line class="cls-1" x1="10" y1="28.5" x2="29" y2="28.5"/><path class="cls-2" d="M29,29.5H10a1,1,0,0,1,0-2H29a1,1,0,0,1,0,2Z"/><line class="cls-1" x1="10" y1="45" x2="31" y2="45"/><path class="cls-2" d="M31,46H10a1,1,0,0,1,0-2H31a1,1,0,0,1,0,2Z"/><line class="cls-1" x1="10" y1="36.75" x2="28" y2="36.75"/><path class="cls-2" d="M28,37.75H10a1,1,0,0,1,0-2H28a1,1,0,0,1,0,2Z"/><circle class="cls-1" cx="45" cy="34" r="13"/><path class="cls-2" d="M45,48A14,14,0,1,1,59,34,14,14,0,0,1,45,48Zm0-26A12,12,0,1,0,57,34,12,12,0,0,0,45,22Z"/><circle class="cls-1" cx="45" cy="34" r="8"/><path class="cls-2" d="M45,43a9,9,0,1,1,9-9A9,9,0,0,1,45,43Zm0-16a7,7,0,1,0,7,7A7,7,0,0,0,45,27Z"/><circle class="cls-1" cx="45" cy="34" r="3"/><path class="cls-2" d="M45,38a4,4,0,1,1,4-4A4,4,0,0,1,45,38Zm0-6a2,2,0,1,0,2,2A2,2,0,0,0,45,32Z"/><polygon class="cls-1" points="51.76 50.03 46.97 36.27 58.3 45.42 52.73 44.45 51.76 50.03"/><path class="cls-2" d="M51.76,51a1,1,0,0,1-.95-.67L46,36.6a1,1,0,0,1,.37-1.14,1,1,0,0,1,1.2,0l11.33,9.14a1,1,0,0,1,.28,1.2,1,1,0,0,1-1.08.57l-4.59-.8-.8,4.59a1,1,0,0,1-.9.82ZM49.07,39.25l2.36,6.8.31-1.77a1,1,0,0,1,.41-.64,1,1,0,0,1,.75-.17l1.77.31Z"/></g></g></svg>