<svg width="20" height="20" viewBox="0 0 20 20" fill="none" xmlns="http://www.w3.org/2000/svg">
<path d="M10 20C15.5228 20 20 15.5228 20 10C20 4.47715 15.5228 0 10 0C4.47715 0 0 4.47715 0 10C0 15.5228 4.47715 20 10 20Z" fill="#41AD49"/>
<path d="M15.9052 6.02373L15.7086 5.82712C15.5757 5.69432 15.3956 5.61973 15.2077 5.61973C15.0199 5.61973 14.8397 5.69432 14.7069 5.82712L7.55604 12.978L4.61536 10.0373C4.4825 9.9045 4.30235 9.8299 4.11451 9.8299C3.92667 9.8299 3.74652 9.9045 3.61366 10.0373L3.41705 10.2339C3.3509 10.2995 3.29838 10.3775 3.26254 10.4634C3.2267 10.5494 3.20825 10.6416 3.20825 10.7347C3.20825 10.8279 3.2267 10.9201 3.26254 11.0061C3.29838 11.092 3.3509 11.17 3.41705 11.2356L6.88994 14.7085C6.94005 14.7574 6.99717 14.7985 7.05943 14.8305L7.07807 14.8508C7.21093 14.9836 7.39108 15.0582 7.57892 15.0582C7.76676 15.0582 7.94691 14.9836 8.07977 14.8508L15.9052 7.02542C15.9713 6.95987 16.0239 6.88185 16.0597 6.79589C16.0955 6.70992 16.114 6.61771 16.114 6.52457C16.114 6.43144 16.0955 6.33922 16.0597 6.25326C16.0239 6.16729 15.9713 6.08928 15.9052 6.02373Z" fill="white"/>
</svg>
