<svg width="20" height="20" viewBox="0 0 20 20" fill="none" xmlns="http://www.w3.org/2000/svg">
<path d="M10 20C15.5228 20 20 15.5228 20 10C20 4.47715 15.5228 0 10 0C4.47715 0 0 4.47715 0 10C0 15.5228 4.47715 20 10 20Z" fill="#FC3414" fill-opacity="0.9"/>
<path d="M11.1983 10L14.5119 6.68644C14.6447 6.55358 14.7193 6.37343 14.7193 6.18559C14.7193 5.99775 14.6447 5.8176 14.5119 5.68474L14.3153 5.48813C14.1824 5.35534 14.0023 5.28075 13.8144 5.28075C13.6266 5.28075 13.4464 5.35534 13.3136 5.48813L10 8.80169L6.68645 5.48813C6.5536 5.35534 6.37345 5.28075 6.18561 5.28075C5.99777 5.28075 5.81761 5.35534 5.68476 5.48813L5.48815 5.68474C5.35536 5.8176 5.28076 5.99775 5.28076 6.18559C5.28076 6.37343 5.35536 6.55358 5.48815 6.68644L8.80171 10L5.48815 13.3136C5.35536 13.4464 5.28076 13.6266 5.28076 13.8144C5.28076 14.0022 5.35536 14.1824 5.48815 14.3153L5.68476 14.5119C5.81761 14.6447 5.99777 14.7193 6.18561 14.7193C6.37345 14.7193 6.5536 14.6447 6.68645 14.5119L10 11.1983L13.3136 14.5119C13.4464 14.6447 13.6266 14.7193 13.8144 14.7193C14.0023 14.7193 14.1824 14.6447 14.3153 14.5119L14.5119 14.3153C14.6447 14.1824 14.7193 14.0022 14.7193 13.8144C14.7193 13.6266 14.6447 13.4464 14.5119 13.3136L11.1983 10Z" fill="white"/>
</svg>
