<svg xmlns="http://www.w3.org/2000/svg" viewBox="0 0 57.94 42.59"><defs><style>.cls-1{fill:#fff;}.cls-2{fill:#546fff;}</style></defs><g id="Layer_2" data-name="Layer 2"><g id="Layer_1-2" data-name="Layer 1"><polygon class="cls-1" points="18.75 41.59 33.75 41.59 25.75 29.59 18.75 41.59"/><path class="cls-2" d="M33.75,42.59h-15a1,1,0,0,1-.87-.51,1,1,0,0,1,0-1l7-12a1,1,0,0,1,.83-.49,1,1,0,0,1,.86.44l8,12a1,1,0,0,1,.05,1A1,1,0,0,1,33.75,42.59Zm-13.26-2H31.88l-6.07-9.12Z"/><rect class="cls-1" x="2.25" y="24.59" width="48" height="4" rx="2" transform="translate(3.2 -2.82) rotate(6.55)"/><path class="cls-2" d="M48.11,32.09a2.06,2.06,0,0,1-.35,0l-43.71-5a3,3,0,1,1,.69-6l43.71,5a3,3,0,0,1,2,1.12,3,3,0,0,1-2.35,4.86Zm-43.72-9a1,1,0,0,0-1,.88,1,1,0,0,0,.88,1.11l43.71,5a1,1,0,0,0,1.11-.88,1,1,0,0,0-.88-1.11l-43.71-5Z"/><polygon class="cls-1" points="11 17.8 4.82 19.99 5 13.44 1 8.24 7.29 6.38 11 0.97 14.71 6.38 21 8.24 17 13.44 17.18 19.99 11 17.8"/><path class="cls-2" d="M17.18,21a1.2,1.2,0,0,1-.33,0L11,18.86,5.15,20.94a1,1,0,0,1-.92-.14A1,1,0,0,1,3.82,20L4,13.76.21,8.85a1,1,0,0,1-.16-.92,1,1,0,0,1,.67-.65l6-1.76L10.18.41a1,1,0,0,1,1.64,0l3.51,5.11,6,1.76a1,1,0,0,1,.67.65,1,1,0,0,1-.16.92L18,13.76,18.18,20a1,1,0,0,1-.41.83A1,1,0,0,1,17.18,21ZM11,16.8a1.2,1.2,0,0,1,.33.05l4.81,1.71L16,13.46a1,1,0,0,1,.21-.63l3.11-4.05L14.43,7.34A1,1,0,0,1,13.88,7L11,2.74,8.12,7a1,1,0,0,1-.55.39L2.68,8.78l3.11,4.05a1,1,0,0,1,.21.63l-.14,5.1,4.8-1.71A1.33,1.33,0,0,1,11,16.8Z"/><circle class="cls-1" cx="46.94" cy="16.34" r="10"/><path class="cls-2" d="M46.94,27.34a11,11,0,1,1,11-11A11,11,0,0,1,46.94,27.34Zm0-20a9,9,0,1,0,9,9A9,9,0,0,0,46.94,7.34Z"/><path class="cls-1" d="M44.06,18.79a2.65,2.65,0,0,0,2.88,2.32,2.65,2.65,0,0,0,2.89-2.32,2.65,2.65,0,0,0-2.89-2.32,2.65,2.65,0,0,1-2.88-2.32,2.64,2.64,0,0,1,2.88-2.31,2.64,2.64,0,0,1,2.89,2.31"/><path class="cls-2" d="M46.94,22.11a3.64,3.64,0,0,1-3.88-3.32,1,1,0,0,1,2,0c0,.71.86,1.32,1.88,1.32s1.89-.61,1.89-1.32-.87-1.32-1.89-1.32a3.64,3.64,0,0,1-3.88-3.32,3.63,3.63,0,0,1,3.88-3.31,3.64,3.64,0,0,1,3.89,3.31,1,1,0,0,1-2,0c0-.71-.87-1.31-1.89-1.31s-1.88.6-1.88,1.31.86,1.32,1.88,1.32a3.65,3.65,0,0,1,3.89,3.32A3.65,3.65,0,0,1,46.94,22.11Z"/><line class="cls-1" x1="46.94" y1="9.84" x2="46.94" y2="11.57"/><path class="cls-2" d="M46.94,12.57a1,1,0,0,1-1-1V9.84a1,1,0,0,1,2,0v1.73A1,1,0,0,1,46.94,12.57Z"/><line class="cls-1" x1="46.94" y1="21.11" x2="46.94" y2="22.84"/><path class="cls-2" d="M46.94,23.84a1,1,0,0,1-1-1V21.11a1,1,0,0,1,2,0v1.73A1,1,0,0,1,46.94,23.84Z"/></g></g></svg>