<svg xmlns="http://www.w3.org/2000/svg" viewBox="0 0 64 43"><defs><style>.cls-1{fill:#fff;}.cls-2{fill:#546fff;}</style></defs><g id="Layer_2" data-name="Layer 2"><g id="Layer_1-2" data-name="Layer 1"><rect class="cls-1" x="4" y="4" width="36" height="24"/><path class="cls-2" d="M40,29H4a1,1,0,0,1-1-1V4A1,1,0,0,1,4,3H40a1,1,0,0,1,1,1V28A1,1,0,0,1,40,29ZM5,27H39V5H5Z"/><rect class="cls-1" x="40" y="28" width="15" height="10"/><path class="cls-2" d="M55,39H40a1,1,0,0,1-1-1V28a1,1,0,0,1,1-1H55a1,1,0,0,1,1,1V38A1,1,0,0,1,55,39ZM41,37H54V29H41Z"/><rect class="cls-1" x="48" y="10" width="15" height="10"/><path class="cls-2" d="M63,21H48a1,1,0,0,1-1-1V10a1,1,0,0,1,1-1H63a1,1,0,0,1,1,1V20A1,1,0,0,1,63,21ZM49,19H62V11H49Z"/><rect class="cls-1" x="22" y="36" width="9" height="6"/><path class="cls-2" d="M31,43H22a1,1,0,0,1-1-1V36a1,1,0,0,1,1-1h9a1,1,0,0,1,1,1v6A1,1,0,0,1,31,43Zm-8-2h7V37H23Z"/><circle class="cls-1" cx="4" cy="4" r="3"/><path class="cls-2" d="M4,8A4,4,0,1,1,8,4,4,4,0,0,1,4,8ZM4,2A2,2,0,1,0,6,4,2,2,0,0,0,4,2Z"/><circle class="cls-1" cx="4" cy="28" r="3"/><path class="cls-2" d="M4,32a4,4,0,1,1,4-4A4,4,0,0,1,4,32Zm0-6a2,2,0,1,0,2,2A2,2,0,0,0,4,26Z"/><circle class="cls-1" cx="40" cy="4" r="3"/><path class="cls-2" d="M40,8a4,4,0,1,1,4-4A4,4,0,0,1,40,8Zm0-6a2,2,0,1,0,2,2A2,2,0,0,0,40,2Z"/><circle class="cls-1" cx="55" cy="38" r="3"/><path class="cls-2" d="M55,42a4,4,0,1,1,4-4A4,4,0,0,1,55,42Zm0-6a2,2,0,1,0,2,2A2,2,0,0,0,55,36Z"/><circle class="cls-1" cx="40" cy="28" r="3"/><path class="cls-2" d="M40,32a4,4,0,1,1,4-4A4,4,0,0,1,40,32Zm0-6a2,2,0,1,0,2,2A2,2,0,0,0,40,26Z"/></g></g></svg>