<svg width="137" height="30" viewBox="0 0 137 30" fill="none" xmlns="http://www.w3.org/2000/svg">
<g clip-path="url(#clip0)">
<path d="M47.9305 24.3219H44.5152L39.5218 15.9344L38.2889 13.5339H38.2677L38.3541 16.0632V24.3219H35.6733V10.0535H39.0674L44.0609 18.4198L45.2937 20.8415H45.3376L45.2513 18.3123V10.0535H47.932V24.3219H47.9305Z" fill="white"/>
<path d="M74.0127 14.3124C74.726 14.9894 75.0835 15.9633 75.0835 17.231V24.322H72.121V18.0958C72.121 16.4525 71.4789 15.6316 70.1961 15.6316C69.5039 15.6316 68.9163 15.877 68.4347 16.3662C67.9515 16.8569 67.7107 17.6066 67.7107 18.6153V24.322H64.7483V13.5113H67.4078L67.4941 15.4347C67.8546 14.7289 68.3514 14.1958 68.986 13.8354C69.6205 13.4749 70.3551 13.2947 71.1911 13.2947C72.3588 13.2962 73.2993 13.6339 74.0127 14.3124Z" fill="white"/>
<path d="M87.3951 14.788C88.3675 15.783 88.8536 17.1582 88.8536 18.9181C88.8536 20.678 88.3675 22.0532 87.3951 23.0467C86.4228 24.0403 85.0628 24.5386 83.3195 24.5386C81.5763 24.5386 80.2177 24.0418 79.2439 23.0467C78.2716 22.0517 77.7854 20.6765 77.7854 18.9181C77.7854 17.1597 78.2716 15.783 79.2439 14.788C80.2162 13.7929 81.5748 13.2961 83.3195 13.2961C85.0643 13.2961 86.4213 13.7929 87.3951 14.788ZM81.4067 16.3555C80.9674 16.925 80.7478 17.7792 80.7478 18.9181C80.7478 20.057 80.9674 20.9112 81.4067 21.4792C81.8459 22.0487 82.4835 22.3334 83.3195 22.3334C84.1555 22.3334 84.7932 22.0487 85.2324 21.4792C85.6716 20.9097 85.8912 20.0555 85.8912 18.9181C85.8912 17.7807 85.6716 16.925 85.2324 16.3555C84.7932 15.786 84.154 15.5013 83.3195 15.5013C82.485 15.5013 81.8459 15.786 81.4067 16.3555Z" fill="white"/>
<path d="M100.885 14.3124C101.598 14.9894 101.954 15.9633 101.954 17.231V24.322H98.9919V18.0958C98.9919 16.4525 98.3512 15.6316 97.0684 15.6316C96.3763 15.6316 95.7886 15.877 95.307 16.3662C94.8239 16.8569 94.583 17.6066 94.583 18.6153V24.322H91.6206V13.5113H94.2801L94.3665 15.4347C94.7269 14.7289 95.2237 14.1958 95.8583 13.8354C96.4929 13.4749 97.2274 13.2947 98.0635 13.2947C99.2312 13.2962 100.17 13.6339 100.885 14.3124Z" fill="white"/>
<path d="M115.228 20.0404H107.575C107.878 21.5686 108.777 22.3319 110.277 22.3319C110.896 22.3319 111.408 22.2168 111.812 21.9851C112.215 21.7549 112.497 21.4232 112.656 20.9916L115.078 21.8776C114.731 22.7424 114.151 23.4012 113.338 23.8556C112.523 24.3099 111.504 24.5371 110.278 24.5371C108.491 24.5371 107.107 24.0434 106.127 23.0559C105.147 22.0684 104.656 20.6887 104.656 18.9166C104.656 17.1431 105.132 15.7634 106.083 14.7759C107.034 13.7884 108.374 13.2947 110.104 13.2947C111.776 13.2947 113.062 13.7778 113.963 14.7426C114.864 15.7089 115.314 17.0856 115.314 18.8712C115.316 19.2771 115.285 19.6663 115.228 20.0404ZM108.364 16.1057C107.938 16.5237 107.669 17.1431 107.554 17.9655H112.591C112.476 17.1583 112.202 16.5419 111.77 16.1178C111.338 15.6922 110.777 15.4802 110.084 15.4802C109.362 15.4786 108.789 15.6876 108.364 16.1057Z" fill="white"/>
<path d="M125.239 23.6512C124.892 23.9253 124.457 24.1419 123.93 24.2994C123.403 24.4584 122.853 24.5372 122.276 24.5372C119.87 24.5372 118.666 23.4497 118.666 21.2733V15.7165H116.698V13.5113H118.666V11.026L121.628 10.2051V13.5128H125.13V15.718H121.628V20.7978C121.628 21.7928 122.125 22.2896 123.12 22.2896C123.754 22.2896 124.309 22.0882 124.784 21.6838L125.239 23.6512Z" fill="white"/>
<path d="M126.491 22.4621L128.221 20.6901C128.509 21.3095 128.924 21.7457 129.464 21.9971C130.005 22.2501 130.671 22.3758 131.463 22.3758C132.098 22.3758 132.587 22.2894 132.934 22.1168C133.279 21.9441 133.454 21.7063 133.454 21.4034C133.454 21.1581 133.291 20.9491 132.967 20.7764C132.643 20.6037 132.084 20.4371 131.292 20.2796C129.634 19.9479 128.471 19.5118 127.801 18.9726C127.132 18.4334 126.796 17.7004 126.796 16.778C126.796 16.1722 126.983 15.6043 127.358 15.0696C127.732 14.5365 128.287 14.1079 129.022 13.7838C129.757 13.4597 130.637 13.2976 131.66 13.2976C132.87 13.2976 133.85 13.4809 134.6 13.8489C135.35 14.2169 135.977 14.797 136.481 15.5891L134.642 17.1445C134.324 16.5675 133.932 16.1434 133.464 15.8693C132.996 15.5952 132.409 15.4589 131.701 15.4589C131.111 15.4589 130.638 15.5603 130.285 15.7618C129.932 15.9632 129.755 16.2086 129.755 16.4963C129.755 16.7992 129.928 17.0506 130.275 17.2536C130.621 17.455 131.233 17.6428 132.113 17.8155C133.684 18.1335 134.797 18.547 135.453 19.0589C136.109 19.5708 136.437 20.2796 136.437 21.1884C136.437 22.197 136.009 23.0088 135.151 23.6207C134.294 24.2341 133.079 24.54 131.509 24.54C129.099 24.537 127.429 23.8449 126.491 22.4621Z" fill="white"/>
<path d="M11.1984 7.46668C13.2603 7.46668 14.9318 5.79521 14.9318 3.73334C14.9318 1.67147 13.2603 0 11.1984 0C9.13656 0 7.46509 1.67147 7.46509 3.73334C7.46509 5.79521 9.13656 7.46668 11.1984 7.46668Z" fill="white"/>
<path d="M26.2668 7.46668C28.3287 7.46668 30.0001 5.79521 30.0001 3.73334C30.0001 1.67147 28.3287 0 26.2668 0C24.2049 0 22.5334 1.67147 22.5334 3.73334C22.5334 5.79521 24.2049 7.46668 26.2668 7.46668Z" fill="white"/>
<path d="M7.46503 18.8031C9.5269 18.8031 11.1984 17.1316 11.1984 15.0698C11.1984 13.0079 9.5269 11.3364 7.46503 11.3364C5.40316 11.3364 3.73169 13.0079 3.73169 15.0698C3.73169 17.1316 5.40316 18.8031 7.46503 18.8031Z" fill="white"/>
<path d="M22.5349 18.8031C24.5967 18.8031 26.2682 17.1316 26.2682 15.0698C26.2682 13.0079 24.5967 11.3364 22.5349 11.3364C20.473 11.3364 18.8015 13.0079 18.8015 15.0698C18.8015 17.1316 20.473 18.8031 22.5349 18.8031Z" fill="white"/>
<path d="M3.73334 29.9999C5.79521 29.9999 7.46668 28.3284 7.46668 26.2665C7.46668 24.2047 5.79521 22.5332 3.73334 22.5332C1.67147 22.5332 0 24.2047 0 26.2665C0 28.3284 1.67147 29.9999 3.73334 29.9999Z" fill="white"/>
<path d="M18.8012 29.9999C20.8631 29.9999 22.5346 28.3284 22.5346 26.2665C22.5346 24.2047 20.8631 22.5332 18.8012 22.5332C16.7393 22.5332 15.0679 24.2047 15.0679 26.2665C15.0679 28.3284 16.7393 29.9999 18.8012 29.9999Z" fill="white"/>
<path d="M22.8072 16.4402L11.5754 5.20686L10.2835 9.61872C10.1623 10.0307 9.73218 10.2654 9.32023 10.1458C8.90827 10.0246 8.67352 9.59449 8.79317 9.18253L10.8196 2.25806L22.1211 13.5595L25.4592 3.41971C25.594 3.0123 26.0317 2.79117 26.4391 2.92597C26.8465 3.05925 27.0676 3.49846 26.9328 3.90588L22.8072 16.4402Z" fill="white"/>
<path d="M23.0422 17.4232L11.8331 6.21412L10.7926 9.76723C10.5912 10.4579 9.86421 10.8562 9.17358 10.6532C8.48143 10.4503 8.08462 9.72331 8.28606 9.03268L10.5639 1.25098L21.8881 12.5752L24.9566 3.25471C25.1823 2.57165 25.9214 2.19756 26.6059 2.42323C26.9376 2.53228 27.2072 2.764 27.3632 3.076C27.5207 3.38799 27.5465 3.74088 27.4374 4.07256L23.0422 17.4232ZM11.3182 4.19978L22.5742 15.4558L26.4318 3.74088C26.459 3.65607 26.4348 3.58791 26.4181 3.55308C26.4015 3.51976 26.3591 3.45766 26.2758 3.4304C26.147 3.38799 26.0077 3.45918 25.9653 3.5864L22.3576 14.5441L11.0789 3.26531L9.30383 9.33105C9.26596 9.4613 9.34018 9.5976 9.47043 9.63547C9.60068 9.67333 9.73699 9.59912 9.77485 9.46887L11.3182 4.19978Z" fill="white"/>
<path d="M19.0668 27.6191L7.73806 16.4282L4.40001 26.4439C4.26522 26.8497 3.826 27.0694 3.41859 26.9346C3.01269 26.7998 2.79308 26.359 2.92788 25.9531L7.055 13.5718L18.3989 24.7763L19.9346 20.2782C20.0725 19.8723 20.5132 19.6557 20.9191 19.795C21.325 19.9328 21.5416 20.3751 21.4022 20.7795L19.0668 27.6191Z" fill="white"/>
<path d="M19.2954 28.59L7.97114 17.4036L4.90268 26.6105C4.6755 27.2935 3.93489 27.6631 3.25032 27.4374C2.91864 27.3268 2.65056 27.0951 2.49456 26.7816C2.33857 26.4681 2.31282 26.1152 2.42338 25.785L6.82009 12.5964L18.1685 23.8071L19.4317 20.1086C19.5437 19.7784 19.7785 19.5118 20.092 19.3589C20.4055 19.2044 20.7599 19.1832 21.0901 19.2952C21.4203 19.4073 21.6868 19.6421 21.8398 19.9556C21.9928 20.2691 22.0155 20.6235 21.9034 20.9537L19.2954 28.59ZM7.50466 15.4529L18.838 26.6483L20.9008 20.6099C20.9295 20.5266 20.9053 20.4569 20.8887 20.4221C20.872 20.3872 20.8311 20.3266 20.7478 20.2979C20.663 20.2691 20.5933 20.2933 20.56 20.31C20.5252 20.3266 20.4646 20.3675 20.4358 20.4508L18.6259 25.7472L7.28808 14.5472L3.43055 26.1198C3.40329 26.2031 3.42752 26.2727 3.44418 26.3076C3.46084 26.3424 3.50173 26.403 3.58655 26.4302C3.71528 26.4726 3.85462 26.403 3.89703 26.2742L7.50466 15.4529Z" fill="white"/>
<path d="M56.2165 22.235C54.6414 22.235 53.6917 21.0476 53.6917 18.8909C53.6917 16.7327 54.6414 15.5468 56.2165 15.5468C57.7704 15.5468 58.7185 16.7342 58.7185 18.7834V18.9984C58.7185 21.0688 57.7704 22.235 56.2165 22.235ZM58.7185 13.4961V15.2651C58.093 14.0353 56.9056 13.2795 55.3532 13.2795C52.4831 13.2795 50.7354 15.3726 50.7354 18.9106C50.7354 22.4274 52.4831 24.4993 55.3532 24.4993C56.9707 24.4993 58.2869 23.636 58.9139 22.2774L59.0426 24.2842H61.6749V13.4961H58.7185Z" fill="white"/>
</g>
<defs>
<clipPath id="clip0">
<rect width="136.48" height="30" fill="white"/>
</clipPath>
</defs>
</svg>
