<svg xmlns="http://www.w3.org/2000/svg" viewBox="0 0 69 50"><defs><style>.cls-1{fill:#fff;}.cls-2{fill:#546fff;}</style></defs><g id="Layer_2" data-name="Layer 2"><g id="Layer_1-2" data-name="Layer 1"><path class="cls-1" d="M32.6,1H6.4A5.4,5.4,0,0,0,1,6.4V19.6A5.39,5.39,0,0,0,6.16,25L2,34l11.08-9H32.6A5.4,5.4,0,0,0,38,19.6V6.4A5.4,5.4,0,0,0,32.6,1Z"/><path class="cls-2" d="M2,35a1,1,0,0,1-.61-.21,1,1,0,0,1-.3-1.21L4.7,25.75A6.37,6.37,0,0,1,0,19.6V6.4A6.41,6.41,0,0,1,6.4,0H32.6A6.41,6.41,0,0,1,39,6.4V19.6A6.41,6.41,0,0,1,32.6,26H13.43L2.63,34.78A1,1,0,0,1,2,35ZM6.4,2A4.4,4.4,0,0,0,2,6.4V19.6A4.39,4.39,0,0,0,6.21,24a1,1,0,0,1,.81.48,1,1,0,0,1,.05.94L4.71,30.51l7.74-6.29a1,1,0,0,1,.63-.22H32.6A4.4,4.4,0,0,0,37,19.6V6.4A4.4,4.4,0,0,0,32.6,2Z"/><polyline class="cls-1" points="14 19 20 7 25 19"/><path class="cls-2" d="M25,20a1,1,0,0,1-.92-.62l-4.16-10-5,10a1,1,0,0,1-1.78-.9l6-12a1,1,0,0,1,1.81.07l5,12a1,1,0,0,1-.54,1.3A.84.84,0,0,1,25,20Z"/><line class="cls-1" x1="16.33" y1="14.34" x2="23.06" y2="14.34"/><path class="cls-2" d="M23.06,15.34H16.33a1,1,0,0,1,0-2h6.73a1,1,0,0,1,0,2Z"/><path class="cls-1" d="M62.6,16H36.4A5.4,5.4,0,0,0,31,21.4V34.6A5.39,5.39,0,0,0,36.16,40L32,49l11.08-9H62.6A5.4,5.4,0,0,0,68,34.6V21.4A5.4,5.4,0,0,0,62.6,16Z"/><path class="cls-2" d="M32,50a1,1,0,0,1-.61-.21,1,1,0,0,1-.3-1.21l3.61-7.83A6.37,6.37,0,0,1,30,34.6V21.4A6.41,6.41,0,0,1,36.4,15H62.6A6.41,6.41,0,0,1,69,21.4V34.6A6.41,6.41,0,0,1,62.6,41H43.43l-10.8,8.78A1,1,0,0,1,32,50Zm4.4-33A4.4,4.4,0,0,0,32,21.4V34.6A4.39,4.39,0,0,0,36.21,39a1,1,0,0,1,.81.48,1,1,0,0,1,0,.94l-2.36,5.11,7.74-6.29a1,1,0,0,1,.63-.22H62.6A4.4,4.4,0,0,0,67,34.6V21.4A4.4,4.4,0,0,0,62.6,17Z"/><path class="cls-2" d="M57,32.06a1,1,0,0,1-1-1V25.18H46.28v5.88a1,1,0,0,1-2,0V24.18a1,1,0,0,1,1-1H57a1,1,0,0,1,1,1v6.88A1,1,0,0,1,57,32.06Z"/><path class="cls-2" d="M51.14,36.39a1,1,0,0,1-1-1V20.61a1,1,0,0,1,2,0V35.39A1,1,0,0,1,51.14,36.39Z"/><path class="cls-2" d="M57,30.49H45.28a1,1,0,0,1,0-2H57a1,1,0,0,1,0,2Z"/></g></g></svg>