<svg xmlns="http://www.w3.org/2000/svg" viewBox="0 0 58.04 58.04"><defs><style>.cls-1{fill:#546fff;}.cls-2{fill:#fff;}</style></defs><g id="Layer_2" data-name="Layer 2"><g id="Layer_1-2" data-name="Layer 1"><path class="cls-1" d="M57,31.5a1,1,0,0,1-1-1A28.54,28.54,0,0,0,27.53,2a1,1,0,0,1,0-2A30.54,30.54,0,0,1,58,30.5,1,1,0,0,1,57,31.5Z"/><circle class="cls-2" cx="26.53" cy="31.5" r="25.53"/><path class="cls-1" d="M26.53,58A26.54,26.54,0,1,1,53.07,31.5,26.56,26.56,0,0,1,26.53,58ZM26.53,7A24.54,24.54,0,1,0,51.07,31.5,24.57,24.57,0,0,0,26.53,7Z"/><line class="cls-2" x1="44.88" y1="31.5" x2="47.56" y2="31.5"/><path class="cls-1" d="M47.56,32.5H44.88a1,1,0,1,1,0-2h2.68a1,1,0,0,1,0,2Z"/><line class="cls-2" x1="4.55" y1="31.5" x2="7.23" y2="31.5"/><path class="cls-1" d="M7.23,32.5H4.55a1,1,0,1,1,0-2H7.23a1,1,0,1,1,0,2Z"/><line class="cls-2" x1="26.53" y1="50.33" x2="26.53" y2="53.01"/><path class="cls-1" d="M26.53,54a1,1,0,0,1-1-1V50.33a1,1,0,0,1,2,0V53A1,1,0,0,1,26.53,54Z"/><line class="cls-2" x1="26.53" y1="10" x2="26.53" y2="12.68"/><path class="cls-1" d="M26.53,13.68a1,1,0,0,1-1-1V10a1,1,0,0,1,2,0v2.68A1,1,0,0,1,26.53,13.68Z"/><polyline class="cls-2" points="26.53 21.52 26.53 31.5 39.98 31.5"/><path class="cls-1" d="M40,32.5H26.53a1,1,0,0,1-1-1v-10a1,1,0,1,1,2,0v9H40a1,1,0,0,1,0,2Z"/></g></g></svg>