<svg xmlns="http://www.w3.org/2000/svg" viewBox="0 0 38 55.45"><defs><style>.cls-1{fill:#fff;}.cls-2{fill:#546fff;}</style></defs><g id="Layer_2" data-name="Layer 2"><g id="Layer_1-2" data-name="Layer 1"><path class="cls-1" d="M9.61,34.82H28.39A8.61,8.61,0,0,1,37,43.43v9.83a1.19,1.19,0,0,1-1.19,1.19H2.19A1.19,1.19,0,0,1,1,53.26V43.43a8.61,8.61,0,0,1,8.61-8.61Z"/><path class="cls-2" d="M35.81,55.45H2.19A2.19,2.19,0,0,1,0,53.26V43.43a9.62,9.62,0,0,1,9.61-9.61H28.39A9.62,9.62,0,0,1,38,43.43v9.83A2.19,2.19,0,0,1,35.81,55.45ZM9.61,35.82A7.61,7.61,0,0,0,2,43.43v9.83a.19.19,0,0,0,.19.19H35.81a.19.19,0,0,0,.19-.19V43.43a7.62,7.62,0,0,0-7.61-7.61Z"/><path class="cls-2" d="M19,43.45A14.83,14.83,0,0,1,4.18,28.64V14.82a14.82,14.82,0,0,1,29.64,0V23a1,1,0,0,1-2,0V14.82a12.82,12.82,0,0,0-25.64,0V28.64A12.83,12.83,0,0,0,19,41.45a1,1,0,0,1,0,2Z"/><rect class="cls-1" x="8.33" y="4.64" width="21.33" height="32" rx="9.78"/><path class="cls-2" d="M19.89,37.64H18.11A10.8,10.8,0,0,1,7.33,26.86V14.41A10.79,10.79,0,0,1,18.11,3.64h1.78A10.79,10.79,0,0,1,30.67,14.41V26.86A10.8,10.8,0,0,1,19.89,37.64Zm-1.78-32a8.78,8.78,0,0,0-8.78,8.77V26.86a8.79,8.79,0,0,0,8.78,8.78h1.78a8.79,8.79,0,0,0,8.78-8.78V14.41a8.78,8.78,0,0,0-8.78-8.77Z"/><rect class="cls-1" x="30.45" y="17.36" width="6.55" height="9.82" rx="3"/><path class="cls-2" d="M34,28.18h-.55a4,4,0,0,1-4-4V20.36a4,4,0,0,1,4-4H34a4,4,0,0,1,4,4v3.82A4,4,0,0,1,34,28.18Zm-.55-9.82a2,2,0,0,0-2,2v3.82a2,2,0,0,0,2,2H34a2,2,0,0,0,2-2V20.36a2,2,0,0,0-2-2Z"/><line class="cls-1" x1="15.18" y1="17.36" x2="15.18" y2="17.36"/><path class="cls-2" d="M15.18,18.36a1,1,0,0,1-.7-.29A1,1,0,0,1,14.26,17a.83.83,0,0,1,.22-.33.61.61,0,0,1,.15-.12.56.56,0,0,1,.17-.09.6.6,0,0,1,.19-.06.86.86,0,0,1,.39,0,.64.64,0,0,1,.18.06.76.76,0,0,1,.18.09,1.58,1.58,0,0,1,.15.12.93.93,0,0,1,.21.33.94.94,0,0,1,0,.76,1.15,1.15,0,0,1-.21.33A1,1,0,0,1,15.18,18.36Z"/><line class="cls-1" x1="22.82" y1="17.36" x2="22.82" y2="17.36"/><path class="cls-2" d="M22.82,18.36a1,1,0,0,1-.71-.29,1.19,1.19,0,0,1-.22-.33,1,1,0,0,1-.07-.38A.84.84,0,0,1,21.9,17a.81.81,0,0,1,.21-.33,1.05,1.05,0,0,1,.9-.27.6.6,0,0,1,.19.06.56.56,0,0,1,.17.09.61.61,0,0,1,.15.12.91.91,0,0,1,.22.33,1,1,0,0,1-.22,1.09A1,1,0,0,1,22.82,18.36Z"/><path class="cls-2" d="M18.85,29.39a6.58,6.58,0,0,1-3.54-1,4.86,4.86,0,0,1-2-2.37,1,1,0,0,1,.6-1.29,1,1,0,0,1,1.28.59,2.76,2.76,0,0,0,1.21,1.38,4.31,4.31,0,0,0,2.56.67c1.33,0,3.07-.39,3.78-2a1,1,0,0,1,1.84.8c-.89,2-2.87,3.18-5.59,3.22Z"/><circle class="cls-1" cx="18.45" cy="42.45" r="2.18"/><path class="cls-2" d="M18.45,45.64a3.19,3.19,0,1,1,3.19-3.19A3.19,3.19,0,0,1,18.45,45.64Zm0-4.37a1.19,1.19,0,1,0,1.19,1.18A1.18,1.18,0,0,0,18.45,41.27Z"/><rect class="cls-1" x="1" y="17.36" width="6.55" height="9.82" rx="3"/><path class="cls-2" d="M4.55,28.18H4a4,4,0,0,1-4-4V20.36a4,4,0,0,1,4-4h.55a4,4,0,0,1,4,4v3.82A4,4,0,0,1,4.55,28.18ZM4,18.36a2,2,0,0,0-2,2v3.82a2,2,0,0,0,2,2h.55a2,2,0,0,0,2-2V20.36a2,2,0,0,0-2-2Z"/></g></g></svg>