<svg xmlns="http://www.w3.org/2000/svg" viewBox="0 0 51 51"><defs><style>.cls-1{fill:#fff;}.cls-2{fill:#546fff;}</style></defs><g id="Layer_2" data-name="Layer 2"><g id="Layer_1-2" data-name="Layer 1"><line class="cls-1" x1="1" y1="1" x2="26.5" y2="1"/><path class="cls-2" d="M26.5,2H1A1,1,0,0,1,1,0H26.5a1,1,0,0,1,0,2Z"/><line class="cls-1" x1="1" y1="13.25" x2="50" y2="13.25"/><path class="cls-2" d="M50,14.25H1a1,1,0,0,1,0-2H50a1,1,0,0,1,0,2Z"/><line class="cls-1" x1="1" y1="25.25" x2="21" y2="25.25"/><path class="cls-2" d="M21,26.25H1a1,1,0,0,1,0-2H21a1,1,0,0,1,0,2Z"/><line class="cls-1" x1="1" y1="37.75" x2="50" y2="37.75"/><path class="cls-2" d="M50,38.75H1a1,1,0,0,1,0-2H50a1,1,0,0,1,0,2Z"/><line class="cls-1" x1="1" y1="50" x2="50" y2="50"/><path class="cls-2" d="M50,51H1a1,1,0,0,1,0-2H50a1,1,0,0,1,0,2Z"/><rect class="cls-1" x="25" y="20" width="25" height="10"/><path class="cls-2" d="M50,31H25a1,1,0,0,1-1-1V20a1,1,0,0,1,1-1H50a1,1,0,0,1,1,1V30A1,1,0,0,1,50,31ZM26,29H49V21H26Z"/><line class="cls-1" x1="30" y1="25.25" x2="45" y2="25.25"/><path class="cls-2" d="M45,26.25H30a1,1,0,0,1,0-2H45a1,1,0,0,1,0,2Z"/></g></g></svg>