<svg width="148" height="33" viewBox="0 0 148 33" fill="none" xmlns="http://www.w3.org/2000/svg">
<path d="M51.9672 25.9472H48.2636L42.8569 16.9989L41.52 14.44H41.497L41.5906 17.1379V25.9472H38.6836V10.7275H42.3642L47.784 19.6516L49.1209 22.2364H49.1685L49.0733 19.5385V10.7275H51.9803L51.9672 25.9472Z" fill="#020202"/>
<path d="M80.2506 15.2703C81.0236 15.9919 81.4101 17.0296 81.4101 18.3834V25.9473H78.1992V19.3059C78.1992 17.5525 77.5034 16.6758 76.1118 16.6758C75.7555 16.6699 75.4019 16.7366 75.0731 16.8717C74.7444 17.0068 74.4477 17.2075 74.2017 17.461C73.6783 17.9823 73.4166 18.7814 73.4166 19.8584V25.9473H70.2041V14.4157H73.0881L73.1817 16.4691C73.5364 15.7543 74.0996 15.1598 74.7995 14.7615C75.5317 14.3674 76.3563 14.1691 77.1908 14.1863C78.4576 14.1863 79.4775 14.5477 80.2506 15.2703Z" fill="#020202"/>
<path d="M94.7561 15.7777C95.8105 16.8375 96.3377 18.3054 96.3377 20.1816C96.3377 22.0577 95.8105 23.5257 94.7561 24.5855C93.705 25.6452 92.234 26.1751 90.343 26.1751C88.4521 26.1751 86.9789 25.6447 85.9234 24.5839C84.869 23.5241 84.3418 22.0561 84.3418 20.18C84.3418 18.3038 84.869 16.8359 85.9234 15.7761C86.9789 14.7142 88.4521 14.1837 90.343 14.1848C92.234 14.1859 93.705 14.7169 94.7561 15.7777ZM88.2687 17.4514C87.7902 18.0577 87.5516 18.9683 87.5526 20.1832C87.5537 21.3981 87.7924 22.3087 88.2687 22.915C88.745 23.5225 89.4365 23.8262 90.343 23.8262C91.2496 23.8262 91.9411 23.5225 92.4174 22.915C92.8937 22.3098 93.1324 21.3991 93.1334 20.1832C93.1345 18.9673 92.8959 18.0567 92.4174 17.4514C91.9411 16.8439 91.2496 16.5402 90.343 16.5402C89.4365 16.5402 88.745 16.8439 88.2687 17.4514Z" fill="#020202"/>
<path d="M109.391 15.2704C110.165 15.992 110.552 17.0297 110.551 18.3835V25.9473H107.338V19.3059C107.338 17.5526 106.643 16.6759 105.252 16.6759C104.896 16.6697 104.542 16.7362 104.214 16.8714C103.885 17.0065 103.588 17.2073 103.342 17.461C102.819 17.9823 102.557 18.7814 102.556 19.8584V25.9473H99.3447V14.4158H102.229L102.322 16.4691C102.677 15.7544 103.24 15.1599 103.94 14.7615C104.672 14.367 105.497 14.1687 106.331 14.1864C107.593 14.1864 108.613 14.5477 109.391 15.2704Z" fill="#020202"/>
<path d="M124.945 21.3804H116.646C116.974 23.0099 117.951 23.8247 119.577 23.8247C120.155 23.8464 120.729 23.7195 121.241 23.4563C121.667 23.2237 121.992 22.8464 122.156 22.3949L124.784 23.3416C124.427 24.2419 123.758 24.9892 122.895 25.4515C122.012 25.934 120.907 26.1752 119.577 26.1752C117.638 26.1752 116.138 25.6491 115.076 24.5969C114.014 23.5446 113.481 22.0729 113.479 20.1817C113.479 18.2915 113.996 16.8193 115.028 15.7649C116.061 14.7105 117.515 14.1844 119.392 14.1865C121.203 14.1865 122.597 14.7013 123.575 15.731C124.553 16.7606 125.042 18.2285 125.042 20.1348C125.042 20.5518 125.009 20.9682 124.945 21.3804ZM117.501 17.1801C117.042 17.6259 116.749 18.2872 116.623 19.1639H122.085C121.96 18.3023 121.663 17.6448 121.193 17.1914C120.951 16.963 120.664 16.785 120.35 16.6682C120.036 16.5513 119.701 16.4979 119.366 16.5112C118.584 16.5134 117.962 16.7374 117.501 17.1833V17.1801Z" fill="#020202"/>
<path d="M135.801 25.2316C135.376 25.5481 134.895 25.7827 134.382 25.923C133.8 26.0933 133.195 26.1782 132.588 26.175C129.979 26.175 128.674 25.0145 128.673 22.6936V16.7679H126.538V14.4157H128.673V11.7647L131.885 10.8875V14.4157H135.682V16.7679H131.885V22.1879C131.885 23.2477 132.424 23.7781 133.503 23.7792C134.165 23.789 134.808 23.559 135.31 23.133L135.801 25.2316Z" fill="#020202"/>
<path d="M137.159 23.9636L139.035 22.0734C139.297 22.6837 139.776 23.1792 140.383 23.4676C141.067 23.7562 141.807 23.8941 142.551 23.8715C143.239 23.8715 143.77 23.7794 144.146 23.5953C144.522 23.4111 144.709 23.1558 144.709 22.8327C144.709 22.5726 144.532 22.3481 144.18 22.1655C143.829 21.983 143.223 21.8037 142.364 21.634C140.567 21.2818 139.308 20.8171 138.586 20.2398C137.865 19.6626 137.501 18.8823 137.496 17.899C137.499 17.2436 137.712 16.606 138.105 16.0767C138.568 15.465 139.193 14.9905 139.912 14.7051C140.818 14.3388 141.793 14.1622 142.773 14.1865C144.087 14.1865 145.149 14.3826 145.961 14.7746C146.804 15.1929 147.511 15.8362 148 16.6308L145.998 18.2915C145.706 17.7316 145.265 17.2607 144.72 16.9297C144.134 16.6198 143.474 16.4687 142.809 16.4919C142.277 16.468 141.748 16.5793 141.273 16.815C140.89 17.0304 140.699 17.2915 140.7 17.5985C140.701 17.9054 140.888 18.1747 141.262 18.4062C141.638 18.6216 142.303 18.8214 143.255 19.0056C144.959 19.3427 146.166 19.7848 146.877 20.3319C147.588 20.879 147.943 21.6362 147.943 22.6033C147.943 23.6803 147.478 24.5452 146.548 25.1978C145.619 25.8505 144.302 26.1763 142.599 26.1752C139.987 26.1752 138.174 25.438 137.159 23.9636Z" fill="#020202"/>
<path d="M32.5229 3.986C32.5236 3.31657 32.3526 2.65778 32.0259 2.07053C31.6992 1.48328 31.2273 0.986523 30.6537 0.626173C30.0802 0.265824 29.4235 0.0535136 28.7445 0.00886719C28.0654 -0.0357793 27.3859 0.0886792 26.7687 0.370738C26.1515 0.652797 25.6165 1.08335 25.2133 1.62261C24.81 2.16186 24.5514 2.79241 24.4615 3.45597C24.3716 4.11953 24.4531 4.79469 24.6987 5.41903C24.9442 6.04337 25.3458 6.59674 25.8664 7.028L24.1665 12.1055C23.6758 12.1355 23.1948 12.2538 22.7475 12.4545L15.8166 5.63705C16.1338 4.95346 16.248 4.19554 16.1458 3.45086C16.0436 2.70618 15.7293 2.00513 15.2392 1.42871C14.7491 0.852291 14.1032 0.424031 13.3762 0.193411C12.6491 -0.0372084 11.8706 -0.0607755 11.1304 0.125433C10.3903 0.311642 9.7189 0.700027 9.19371 1.24571C8.66851 1.7914 8.31099 2.47211 8.16246 3.20921C8.01393 3.9463 8.08046 4.70969 8.35434 5.41117C8.62823 6.11265 9.0983 6.72359 9.71024 7.1734L8.9761 9.64028C8.9239 9.81584 8.90737 9.99979 8.92745 10.1816C8.94753 10.3635 9.00382 10.5396 9.09311 10.7001C9.27345 11.0241 9.57726 11.2644 9.93771 11.3681C10.2982 11.4718 10.6857 11.4304 11.0151 11.253C11.3445 11.0756 11.5888 10.7767 11.6942 10.4222L12.4284 7.95531C12.9077 7.92137 13.3771 7.80376 13.8146 7.60797L20.7454 14.4254C20.4293 15.1074 20.3154 15.8633 20.4167 16.6061C20.5181 17.349 20.8306 18.0486 21.3182 18.6244C21.8059 19.2003 22.449 19.6291 23.1734 19.8613C23.8979 20.0936 24.6743 20.12 25.4133 19.9374C26.1523 19.7549 26.8239 19.3708 27.3509 18.8294C27.8778 18.288 28.2386 17.6113 28.3918 16.8771C28.545 16.1429 28.4844 15.3811 28.2169 14.6793C27.9494 13.9775 27.4859 13.3642 26.8797 12.9101L28.5336 7.965C29.5967 7.95056 30.6114 7.52498 31.3579 6.78033C32.1045 6.03569 32.523 5.03185 32.5229 3.986Z" fill="#546FFF"/>
<path d="M22.8658 24.8827L23.7429 22.3545C23.8041 22.1808 23.8299 21.997 23.8187 21.8136C23.8075 21.6301 23.7596 21.4506 23.6776 21.2855C23.5956 21.1203 23.4813 20.9728 23.3411 20.8512C23.201 20.7297 23.0378 20.6366 22.8609 20.5774C22.6848 20.5182 22.4986 20.4937 22.3128 20.5053C22.1271 20.5169 21.9455 20.5645 21.7785 20.6452C21.6114 20.7259 21.4622 20.8382 21.3394 20.9757C21.2165 21.1132 21.1224 21.2732 21.0625 21.4465L20.1625 24.0313C19.6507 24.0585 19.1489 24.1819 18.6843 24.3948L11.7863 17.6921C12.0945 17.0172 12.2055 16.2711 12.1068 15.5376C12.008 14.8041 11.7035 14.1122 11.2273 13.5395C10.7511 12.9667 10.1222 12.5357 9.41092 12.2949C8.69968 12.0541 7.93429 12.013 7.20061 12.1761C6.46693 12.3393 5.79396 12.7003 5.25718 13.2186C4.7204 13.7369 4.34105 14.3921 4.16165 15.1106C3.98226 15.8292 4.00993 16.5827 4.24155 17.2866C4.47318 17.9905 4.8996 18.6171 5.47299 19.096L3.79283 24.0491C2.84611 24.1077 1.9504 24.4915 1.26211 25.1336C0.573821 25.7757 0.136708 26.6351 0.0271094 27.562C-0.0824894 28.4888 0.142391 29.424 0.662477 30.2043C1.18256 30.9847 1.9648 31.5605 2.87258 31.8312C3.78035 32.102 4.75597 32.0505 5.62905 31.6856C6.50214 31.3208 7.21719 30.6659 7.64933 29.8353C8.08148 29.0047 8.20325 28.0512 7.99338 27.1412C7.78352 26.2313 7.25535 25.4227 6.50112 24.8569L8.13036 20.0523C8.70375 20.0465 9.26927 19.9203 9.78917 19.6824L16.6872 26.3851C16.3746 27.0663 16.2631 27.8201 16.3656 28.5606C16.468 29.3011 16.7802 29.9982 17.2665 30.5724C17.7527 31.1466 18.3934 31.5746 19.1153 31.8075C19.8372 32.0404 20.6111 32.0688 21.3487 31.8895C22.0862 31.7102 22.7575 31.3303 23.2859 30.7934C23.8143 30.2564 24.1785 29.5841 24.3367 28.8532C24.495 28.1223 24.441 27.3623 24.1809 26.6602C23.9208 25.9581 23.465 25.3421 22.8658 24.8827Z" fill="#546FFF"/>
<path d="M60.9526 23.7211C59.2446 23.7211 58.2148 22.4545 58.2148 20.154C58.2148 17.8535 59.2446 16.5854 60.9526 16.5854C62.6607 16.5854 63.6675 17.8519 63.6675 20.0377V20.2687C63.6675 22.4771 62.6377 23.7211 60.9526 23.7211ZM63.6675 14.3996V16.2865C62.9875 14.9747 61.6966 14.1702 60.0165 14.1702C56.9058 14.1702 55.0105 16.4028 55.0105 20.1766C55.0105 23.9505 56.9058 26.1362 60.0165 26.1362C61.7722 26.1362 63.1994 25.217 63.8777 23.7663L64.0173 25.9068H66.8718V14.3996H63.6675Z" fill="#020202"/>
</svg>
